G04*
G04 #@! TF.GenerationSoftware,Altium Limited,Altium Designer,24.3.1 (35)*
G04*
G04 Layer_Color=8421504*
%FSLAX25Y25*%
%MOIN*%
G70*
G04*
G04 #@! TF.SameCoordinates,4C3539F3-5CB9-4789-9EF3-9A9D2157AC9C*
G04*
G04*
G04 #@! TF.FilePolarity,Positive*
G04*
G01*
G75*
%ADD24R,0.02756X0.03543*%
%ADD25R,0.03740X0.03347*%
G04:AMPARAMS|DCode=26|XSize=27.95mil|YSize=34.65mil|CornerRadius=4.61mil|HoleSize=0mil|Usage=FLASHONLY|Rotation=90.000|XOffset=0mil|YOffset=0mil|HoleType=Round|Shape=RoundedRectangle|*
%AMROUNDEDRECTD26*
21,1,0.02795,0.02542,0,0,90.0*
21,1,0.01873,0.03465,0,0,90.0*
1,1,0.00922,0.01271,0.00936*
1,1,0.00922,0.01271,-0.00936*
1,1,0.00922,-0.01271,-0.00936*
1,1,0.00922,-0.01271,0.00936*
%
%ADD26ROUNDEDRECTD26*%
%ADD27R,0.06004X0.02559*%
G04:AMPARAMS|DCode=28|XSize=166.93mil|YSize=150mil|CornerRadius=15mil|HoleSize=0mil|Usage=FLASHONLY|Rotation=0.000|XOffset=0mil|YOffset=0mil|HoleType=Round|Shape=RoundedRectangle|*
%AMROUNDEDRECTD28*
21,1,0.16693,0.12000,0,0,0.0*
21,1,0.13693,0.15000,0,0,0.0*
1,1,0.03000,0.06847,-0.06000*
1,1,0.03000,-0.06847,-0.06000*
1,1,0.03000,-0.06847,0.06000*
1,1,0.03000,0.06847,0.06000*
%
%ADD28ROUNDEDRECTD28*%
%ADD29R,0.14961X0.07992*%
%ADD30R,0.06102X0.05315*%
%ADD31R,0.03347X0.03740*%
G04:AMPARAMS|DCode=32|XSize=27.95mil|YSize=34.65mil|CornerRadius=4.61mil|HoleSize=0mil|Usage=FLASHONLY|Rotation=180.000|XOffset=0mil|YOffset=0mil|HoleType=Round|Shape=RoundedRectangle|*
%AMROUNDEDRECTD32*
21,1,0.02795,0.02542,0,0,180.0*
21,1,0.01873,0.03465,0,0,180.0*
1,1,0.00922,-0.00936,0.01271*
1,1,0.00922,0.00936,0.01271*
1,1,0.00922,0.00936,-0.01271*
1,1,0.00922,-0.00936,-0.01271*
%
%ADD32ROUNDEDRECTD32*%
%ADD33R,0.04134X0.01378*%
%ADD34R,0.01378X0.04134*%
%ADD35R,0.12795X0.12795*%
%ADD36R,0.06299X0.10630*%
G04:AMPARAMS|DCode=37|XSize=45.67mil|YSize=107.09mil|CornerRadius=7.54mil|HoleSize=0mil|Usage=FLASHONLY|Rotation=90.000|XOffset=0mil|YOffset=0mil|HoleType=Round|Shape=RoundedRectangle|*
%AMROUNDEDRECTD37*
21,1,0.04567,0.09202,0,0,90.0*
21,1,0.03060,0.10709,0,0,90.0*
1,1,0.01507,0.04601,0.01530*
1,1,0.01507,0.04601,-0.01530*
1,1,0.01507,-0.04601,-0.01530*
1,1,0.01507,-0.04601,0.01530*
%
%ADD37ROUNDEDRECTD37*%
G04:AMPARAMS|DCode=38|XSize=45.67mil|YSize=107.09mil|CornerRadius=7.54mil|HoleSize=0mil|Usage=FLASHONLY|Rotation=180.000|XOffset=0mil|YOffset=0mil|HoleType=Round|Shape=RoundedRectangle|*
%AMROUNDEDRECTD38*
21,1,0.04567,0.09202,0,0,180.0*
21,1,0.03060,0.10709,0,0,180.0*
1,1,0.01507,-0.01530,0.04601*
1,1,0.01507,0.01530,0.04601*
1,1,0.01507,0.01530,-0.04601*
1,1,0.01507,-0.01530,-0.04601*
%
%ADD38ROUNDEDRECTD38*%
G04:AMPARAMS|DCode=39|XSize=19.68mil|YSize=35.43mil|CornerRadius=3.25mil|HoleSize=0mil|Usage=FLASHONLY|Rotation=270.000|XOffset=0mil|YOffset=0mil|HoleType=Round|Shape=RoundedRectangle|*
%AMROUNDEDRECTD39*
21,1,0.01968,0.02894,0,0,270.0*
21,1,0.01319,0.03543,0,0,270.0*
1,1,0.00650,-0.01447,-0.00659*
1,1,0.00650,-0.01447,0.00659*
1,1,0.00650,0.01447,0.00659*
1,1,0.00650,0.01447,-0.00659*
%
%ADD39ROUNDEDRECTD39*%
%ADD40R,0.03150X0.03150*%
%ADD41R,0.03543X0.02756*%
G04:AMPARAMS|DCode=42|XSize=23.62mil|YSize=39.37mil|CornerRadius=2.01mil|HoleSize=0mil|Usage=FLASHONLY|Rotation=90.000|XOffset=0mil|YOffset=0mil|HoleType=Round|Shape=RoundedRectangle|*
%AMROUNDEDRECTD42*
21,1,0.02362,0.03535,0,0,90.0*
21,1,0.01961,0.03937,0,0,90.0*
1,1,0.00402,0.01768,0.00980*
1,1,0.00402,0.01768,-0.00980*
1,1,0.00402,-0.01768,-0.00980*
1,1,0.00402,-0.01768,0.00980*
%
%ADD42ROUNDEDRECTD42*%
%ADD43R,0.05512X0.03937*%
%ADD44R,0.05315X0.06102*%
%ADD45R,0.03150X0.03150*%
G36*
X219025Y80338D02*
X219080Y80282D01*
X219110Y80210D01*
Y80171D01*
Y79088D01*
Y79049D01*
X219080Y78977D01*
X219025Y78921D01*
X218953Y78891D01*
X218284D01*
X218212Y78921D01*
X218156Y78977D01*
X218126Y79049D01*
Y79088D01*
Y80171D01*
Y80210D01*
X218156Y80282D01*
X218212Y80338D01*
X218284Y80368D01*
X218953D01*
X219025Y80338D01*
D02*
G37*
G36*
X217056D02*
X217112Y80282D01*
X217142Y80210D01*
Y80171D01*
Y79088D01*
Y79049D01*
X217112Y78977D01*
X217056Y78921D01*
X216984Y78891D01*
X216315D01*
X216243Y78921D01*
X216188Y78977D01*
X216158Y79049D01*
Y79088D01*
Y80171D01*
Y80210D01*
X216188Y80282D01*
X216243Y80338D01*
X216315Y80368D01*
X216984D01*
X217056Y80338D01*
D02*
G37*
G36*
X215088D02*
X215143Y80282D01*
X215173Y80210D01*
Y80171D01*
Y79088D01*
Y79049D01*
X215143Y78977D01*
X215088Y78921D01*
X215016Y78891D01*
X214347D01*
X214275Y78921D01*
X214219Y78977D01*
X214189Y79049D01*
Y79088D01*
Y80171D01*
Y80210D01*
X214219Y80282D01*
X214275Y80338D01*
X214347Y80368D01*
X215016D01*
X215088Y80338D01*
D02*
G37*
G36*
X213120D02*
X213175Y80282D01*
X213205Y80210D01*
Y80171D01*
Y79088D01*
Y79049D01*
X213175Y78977D01*
X213120Y78921D01*
X213047Y78891D01*
X212378D01*
X212306Y78921D01*
X212251Y78977D01*
X212221Y79049D01*
Y79088D01*
Y80171D01*
Y80210D01*
X212251Y80282D01*
X212306Y80338D01*
X212378Y80368D01*
X213047D01*
X213120Y80338D01*
D02*
G37*
G36*
X209379Y80340D02*
X209435Y80284D01*
X209465Y80212D01*
Y80173D01*
Y76236D01*
Y76197D01*
X209435Y76124D01*
X209379Y76069D01*
X209307Y76039D01*
X208638D01*
X208566Y76069D01*
X208510Y76124D01*
X208481Y76197D01*
X208481Y76236D01*
Y76236D01*
Y80173D01*
Y80212D01*
X208510Y80284D01*
X208566Y80340D01*
X208638Y80370D01*
X209307D01*
X209379Y80340D01*
D02*
G37*
G36*
X207299Y80370D02*
X207339D01*
X207411Y80340D01*
X207466Y80284D01*
X207496Y80212D01*
Y80173D01*
Y76236D01*
Y76197D01*
X207466Y76124D01*
X207411Y76069D01*
X207339Y76039D01*
X206670D01*
X206597Y76069D01*
X206542Y76124D01*
X206512Y76197D01*
Y76236D01*
X206512D01*
X206512Y80173D01*
Y80212D01*
X206542Y80284D01*
X206597Y80340D01*
X206670Y80370D01*
X206709D01*
Y80370D01*
X207299Y80370D01*
D02*
G37*
G36*
X204349D02*
X204388D01*
X204460Y80340D01*
X204516Y80284D01*
X204545Y80212D01*
Y80173D01*
Y76236D01*
Y76197D01*
X204516Y76124D01*
X204460Y76069D01*
X204388Y76039D01*
X203227D01*
X203154Y76069D01*
X203099Y76124D01*
X203069Y76197D01*
Y76236D01*
Y80173D01*
Y80212D01*
X203099Y80284D01*
X203154Y80340D01*
X203227Y80370D01*
X203266D01*
Y80370D01*
X204349Y80370D01*
D02*
G37*
G36*
X219429Y78096D02*
X219484Y78040D01*
X219514Y77968D01*
Y77929D01*
Y74661D01*
Y74622D01*
X219484Y74550D01*
X219429Y74494D01*
X219356Y74464D01*
X217644D01*
X217572Y74494D01*
X217516Y74550D01*
X217486Y74622D01*
Y74661D01*
Y77929D01*
Y77968D01*
X217516Y78040D01*
X217572Y78096D01*
X217644Y78126D01*
X219356D01*
X219429Y78096D01*
D02*
G37*
G36*
X216604D02*
X216659Y78040D01*
X216689Y77968D01*
Y77929D01*
Y74661D01*
Y74622D01*
X216659Y74550D01*
X216604Y74494D01*
X216531Y74464D01*
X214406D01*
X214334Y74494D01*
X214278Y74550D01*
X214248Y74622D01*
Y74661D01*
Y77929D01*
Y77968D01*
X214278Y78040D01*
X214334Y78096D01*
X214406Y78126D01*
X216531D01*
X216604Y78096D01*
D02*
G37*
G36*
X213385D02*
X213441Y78040D01*
X213471Y77968D01*
Y77929D01*
Y74661D01*
Y74622D01*
X213441Y74550D01*
X213385Y74494D01*
X213313Y74464D01*
X211601D01*
X211528Y74494D01*
X211473Y74550D01*
X211443Y74622D01*
Y74661D01*
Y77929D01*
Y77968D01*
X211473Y78040D01*
X211528Y78096D01*
X211601Y78126D01*
X213313D01*
X213385Y78096D01*
D02*
G37*
G36*
X204950Y75123D02*
X205006Y75068D01*
X205036Y74995D01*
X205036Y74956D01*
Y74366D01*
Y74327D01*
X205006Y74254D01*
X204950Y74199D01*
X204878Y74169D01*
X202044D01*
X201971Y74199D01*
X201916Y74254D01*
X201886Y74327D01*
Y74366D01*
Y74956D01*
Y74995D01*
X201916Y75068D01*
X201971Y75123D01*
X202044Y75153D01*
X204878D01*
X204950Y75123D01*
D02*
G37*
G36*
X207806Y73253D02*
X207862Y73198D01*
X207892Y73125D01*
Y73086D01*
Y72299D01*
Y72260D01*
X207862Y72187D01*
X207806Y72132D01*
X207734Y72102D01*
X202046D01*
X201973Y72132D01*
X201918Y72187D01*
X201888Y72260D01*
Y72299D01*
Y73086D01*
Y73125D01*
X201918Y73198D01*
X201973Y73253D01*
X202046Y73283D01*
X207734D01*
X207806Y73253D01*
D02*
G37*
G36*
X204950Y71186D02*
X205006Y71131D01*
X205036Y71058D01*
Y71019D01*
Y70429D01*
Y70390D01*
X205006Y70317D01*
X204950Y70262D01*
X204878Y70232D01*
X202044D01*
X201971Y70262D01*
X201916Y70317D01*
X201886Y70390D01*
Y70429D01*
X201886D01*
X201886Y71019D01*
Y71058D01*
X201916Y71131D01*
X201971Y71186D01*
X202044Y71216D01*
X204878D01*
X204950Y71186D01*
D02*
G37*
G36*
X219429Y70891D02*
X219484Y70836D01*
X219514Y70763D01*
Y70724D01*
Y67456D01*
Y67417D01*
X219484Y67345D01*
X219429Y67289D01*
X219356Y67260D01*
X217644D01*
X217572Y67289D01*
X217516Y67345D01*
X217486Y67417D01*
Y67456D01*
Y70724D01*
Y70763D01*
X217516Y70836D01*
X217572Y70891D01*
X217644Y70921D01*
X219356D01*
X219429Y70891D01*
D02*
G37*
G36*
X216604D02*
X216659Y70836D01*
X216689Y70763D01*
Y70724D01*
Y67456D01*
Y67417D01*
X216659Y67345D01*
X216604Y67289D01*
X216531Y67260D01*
X214406D01*
X214334Y67289D01*
X214278Y67345D01*
X214248Y67417D01*
Y67456D01*
Y70724D01*
Y70763D01*
X214278Y70836D01*
X214334Y70891D01*
X214406Y70921D01*
X216531D01*
X216604Y70891D01*
D02*
G37*
G36*
X213385D02*
X213441Y70836D01*
X213471Y70763D01*
Y70724D01*
Y67456D01*
Y67417D01*
X213441Y67345D01*
X213385Y67289D01*
X213313Y67260D01*
X211601D01*
X211528Y67289D01*
X211473Y67345D01*
X211443Y67417D01*
Y67456D01*
Y70724D01*
Y70763D01*
X211473Y70836D01*
X211528Y70891D01*
X211601Y70921D01*
X213313D01*
X213385Y70891D01*
D02*
G37*
G36*
X219025Y66464D02*
X219080Y66408D01*
X219110Y66336D01*
Y66297D01*
Y65214D01*
Y65175D01*
X219080Y65103D01*
X219025Y65047D01*
X218953Y65017D01*
X218284D01*
X218212Y65047D01*
X218156Y65103D01*
X218126Y65175D01*
Y65214D01*
Y66297D01*
Y66336D01*
X218156Y66408D01*
X218212Y66464D01*
X218284Y66494D01*
X218953D01*
X219025Y66464D01*
D02*
G37*
G36*
X217056D02*
X217112Y66408D01*
X217142Y66336D01*
Y66297D01*
Y65214D01*
Y65175D01*
X217112Y65103D01*
X217056Y65047D01*
X216984Y65017D01*
X216315D01*
X216243Y65047D01*
X216188Y65103D01*
X216158Y65175D01*
Y65214D01*
Y66297D01*
Y66336D01*
X216188Y66408D01*
X216243Y66464D01*
X216315Y66494D01*
X216984D01*
X217056Y66464D01*
D02*
G37*
G36*
X215088D02*
X215143Y66408D01*
X215173Y66336D01*
Y66297D01*
Y65214D01*
Y65175D01*
X215143Y65103D01*
X215088Y65047D01*
X215016Y65017D01*
X214347D01*
X214275Y65047D01*
X214219Y65103D01*
X214189Y65175D01*
Y65214D01*
Y66297D01*
Y66336D01*
X214219Y66408D01*
X214275Y66464D01*
X214347Y66494D01*
X215016D01*
X215088Y66464D01*
D02*
G37*
G36*
X213120D02*
X213175Y66408D01*
X213205Y66336D01*
Y66297D01*
Y65214D01*
Y65175D01*
X213175Y65103D01*
X213120Y65047D01*
X213047Y65017D01*
X212378D01*
X212306Y65047D01*
X212251Y65103D01*
X212221Y65175D01*
Y65214D01*
Y66297D01*
Y66336D01*
X212251Y66408D01*
X212306Y66464D01*
X212378Y66494D01*
X213047D01*
X213120Y66464D01*
D02*
G37*
G36*
X209379Y69316D02*
X209435Y69261D01*
X209465Y69188D01*
Y69149D01*
Y65212D01*
Y65173D01*
X209435Y65101D01*
X209379Y65045D01*
X209307Y65015D01*
X208638D01*
X208566Y65045D01*
X208510Y65101D01*
X208481Y65173D01*
Y65212D01*
X208481Y69149D01*
Y69188D01*
X208510Y69261D01*
X208566Y69316D01*
X208638Y69346D01*
X209307D01*
X209379Y69316D01*
D02*
G37*
G36*
X207411D02*
X207466Y69261D01*
X207496Y69188D01*
Y69149D01*
Y65212D01*
Y65173D01*
X207466Y65101D01*
X207411Y65045D01*
X207339Y65015D01*
X207299D01*
Y65015D01*
X206709Y65015D01*
X206670D01*
X206597Y65045D01*
X206542Y65101D01*
X206512Y65173D01*
Y65212D01*
X206512D01*
X206512Y69149D01*
Y69188D01*
X206542Y69261D01*
X206597Y69316D01*
X206670Y69346D01*
X207339D01*
X207411Y69316D01*
D02*
G37*
G36*
X204460D02*
X204516Y69261D01*
X204545Y69188D01*
Y69149D01*
Y65212D01*
Y65173D01*
X204516Y65101D01*
X204460Y65045D01*
X204388Y65015D01*
X204349D01*
Y65015D01*
X203266Y65015D01*
X203227D01*
X203154Y65045D01*
X203099Y65101D01*
X203069Y65173D01*
Y65212D01*
Y69149D01*
Y69188D01*
X203099Y69261D01*
X203154Y69316D01*
X203227Y69346D01*
X204388D01*
X204460Y69316D01*
D02*
G37*
D24*
X349210Y219163D02*
D03*
X343698D02*
D03*
X402362Y246654D02*
D03*
X396850D02*
D03*
X377756Y246850D02*
D03*
X383268D02*
D03*
X242913Y245669D02*
D03*
X237402D02*
D03*
X218307Y245669D02*
D03*
X223819D02*
D03*
X62598Y247835D02*
D03*
X68110D02*
D03*
X87303Y247736D02*
D03*
X81791D02*
D03*
X564468Y246752D02*
D03*
X558957D02*
D03*
X540158Y247047D02*
D03*
X545669D02*
D03*
X121850Y91535D02*
D03*
X116339D02*
D03*
X121850Y84646D02*
D03*
X116339D02*
D03*
X121850Y77756D02*
D03*
X116339D02*
D03*
X511528Y219163D02*
D03*
X506016D02*
D03*
X511700Y230893D02*
D03*
X506188D02*
D03*
X511700Y224988D02*
D03*
X506188D02*
D03*
X547146Y233465D02*
D03*
X552658D02*
D03*
X520472Y247835D02*
D03*
X525984D02*
D03*
X549948Y194586D02*
D03*
X544436D02*
D03*
X550812Y206427D02*
D03*
X545300D02*
D03*
X559891D02*
D03*
X554380D02*
D03*
X555460Y194586D02*
D03*
X560971D02*
D03*
X343871Y224988D02*
D03*
X349382D02*
D03*
X343871Y230894D02*
D03*
X349382D02*
D03*
X43669Y248524D02*
D03*
X49181D02*
D03*
X200492Y247441D02*
D03*
X206004D02*
D03*
X359744Y248425D02*
D03*
X365256D02*
D03*
X209957Y84110D02*
D03*
X204445D02*
D03*
X31634Y201169D02*
D03*
X26122D02*
D03*
X189941Y223807D02*
D03*
X184430D02*
D03*
X230807Y232185D02*
D03*
X225295D02*
D03*
X233701Y193405D02*
D03*
X239213D02*
D03*
X222677D02*
D03*
X228189D02*
D03*
X184430Y229713D02*
D03*
X189941D02*
D03*
X189769Y217982D02*
D03*
X184257D02*
D03*
X223542Y205246D02*
D03*
X229053D02*
D03*
X232621D02*
D03*
X238133D02*
D03*
X67794Y207117D02*
D03*
X73305D02*
D03*
X384169Y68756D02*
D03*
X389681D02*
D03*
X371571Y83716D02*
D03*
X366059D02*
D03*
X371571Y78598D02*
D03*
X366059D02*
D03*
X269996Y66000D02*
D03*
X275508D02*
D03*
X397573Y206428D02*
D03*
X392062D02*
D03*
X388494D02*
D03*
X382983D02*
D03*
X384941Y233465D02*
D03*
X390453D02*
D03*
X398654Y194587D02*
D03*
X393142D02*
D03*
X387630D02*
D03*
X382118D02*
D03*
X209563Y61669D02*
D03*
X215075D02*
D03*
X69685Y234055D02*
D03*
X75197D02*
D03*
X72441Y195276D02*
D03*
X66929D02*
D03*
X83465D02*
D03*
X77953D02*
D03*
X31634Y207075D02*
D03*
X26122D02*
D03*
X82385Y207117D02*
D03*
X76873D02*
D03*
X25950Y195344D02*
D03*
X31462D02*
D03*
D25*
X195390Y88637D02*
D03*
Y83519D02*
D03*
X539532Y240354D02*
D03*
Y235236D02*
D03*
X377889Y240611D02*
D03*
Y235493D02*
D03*
X218448Y234312D02*
D03*
Y239430D02*
D03*
X242791Y233883D02*
D03*
Y239001D02*
D03*
X254567Y216043D02*
D03*
Y221161D02*
D03*
X206929Y216142D02*
D03*
Y221260D02*
D03*
X98819Y223031D02*
D03*
Y217913D02*
D03*
X576326Y222342D02*
D03*
Y217224D02*
D03*
X564549Y235064D02*
D03*
Y240182D02*
D03*
X528688Y217322D02*
D03*
Y222441D02*
D03*
X354703Y35280D02*
D03*
Y40398D02*
D03*
X349977Y35280D02*
D03*
Y40398D02*
D03*
X244073Y41185D02*
D03*
Y36067D02*
D03*
X239347Y41185D02*
D03*
Y36067D02*
D03*
X167028Y25098D02*
D03*
Y19980D02*
D03*
X195390Y58716D02*
D03*
Y53598D02*
D03*
Y63834D02*
D03*
Y68952D02*
D03*
X200591Y40846D02*
D03*
Y35728D02*
D03*
X366370Y217323D02*
D03*
Y222441D02*
D03*
X414008Y217224D02*
D03*
Y222342D02*
D03*
X402232Y235064D02*
D03*
Y240182D02*
D03*
X51181Y218012D02*
D03*
Y223130D02*
D03*
X62700Y236182D02*
D03*
Y241300D02*
D03*
X87043Y240871D02*
D03*
Y235753D02*
D03*
D26*
X248563Y215473D02*
D03*
Y221535D02*
D03*
X213031Y215374D02*
D03*
Y221437D02*
D03*
X570322Y222716D02*
D03*
Y216653D02*
D03*
X534790Y216555D02*
D03*
Y222618D02*
D03*
X372472Y216555D02*
D03*
Y222618D02*
D03*
X408004Y216653D02*
D03*
Y222717D02*
D03*
X57283Y217244D02*
D03*
Y223307D02*
D03*
X92815Y217342D02*
D03*
Y223406D02*
D03*
D27*
X85713Y227832D02*
D03*
Y222832D02*
D03*
Y217832D02*
D03*
Y212832D02*
D03*
X64358D02*
D03*
Y217832D02*
D03*
Y222832D02*
D03*
Y227832D02*
D03*
X241461Y225962D02*
D03*
Y220962D02*
D03*
Y215962D02*
D03*
Y210962D02*
D03*
X220106D02*
D03*
Y215962D02*
D03*
Y220962D02*
D03*
Y225962D02*
D03*
X400902Y227143D02*
D03*
Y222143D02*
D03*
Y217143D02*
D03*
Y212143D02*
D03*
X379547D02*
D03*
Y217143D02*
D03*
Y222143D02*
D03*
Y227143D02*
D03*
X563219Y227142D02*
D03*
Y222142D02*
D03*
Y217142D02*
D03*
Y212142D02*
D03*
X541865D02*
D03*
Y217142D02*
D03*
Y222142D02*
D03*
Y227142D02*
D03*
D28*
X99646Y62008D02*
D03*
X124764D02*
D03*
D29*
X26740Y245472D02*
D03*
X504247Y244783D02*
D03*
X599311Y205413D02*
D03*
X525323Y186556D02*
D03*
X580323Y186556D02*
D03*
X613287Y244882D02*
D03*
X561756Y186556D02*
D03*
X543873D02*
D03*
X137173Y245472D02*
D03*
X292921Y243602D02*
D03*
X452362Y244783D02*
D03*
X341929D02*
D03*
X258564Y185375D02*
D03*
X203564Y185375D02*
D03*
X222114D02*
D03*
X239997D02*
D03*
X286327Y218701D02*
D03*
X182488Y243602D02*
D03*
X102816Y187245D02*
D03*
X418005Y186556D02*
D03*
X130579Y220571D02*
D03*
X445768Y219882D02*
D03*
X47816Y187245D02*
D03*
X363005Y186556D02*
D03*
X66366Y187245D02*
D03*
X381555Y186556D02*
D03*
X84249Y187245D02*
D03*
X399438Y186556D02*
D03*
D30*
X596668Y246456D02*
D03*
Y238582D02*
D03*
X588243Y246453D02*
D03*
Y238579D02*
D03*
X264878Y56157D02*
D03*
Y48283D02*
D03*
X272898Y56157D02*
D03*
Y48283D02*
D03*
X119161Y247146D02*
D03*
Y239272D02*
D03*
X274909Y245276D02*
D03*
Y237402D02*
D03*
X434350Y246457D02*
D03*
Y238583D02*
D03*
X110736Y247143D02*
D03*
Y239269D02*
D03*
X266484Y245273D02*
D03*
Y237399D02*
D03*
X425925Y246454D02*
D03*
Y238580D02*
D03*
X241453Y67968D02*
D03*
Y75842D02*
D03*
X248933Y67968D02*
D03*
Y75842D02*
D03*
X233579Y67968D02*
D03*
Y75842D02*
D03*
X226099Y67968D02*
D03*
Y75842D02*
D03*
X334170Y58519D02*
D03*
Y50645D02*
D03*
X342437Y58519D02*
D03*
Y50645D02*
D03*
X317634Y58519D02*
D03*
Y50645D02*
D03*
X325902Y58519D02*
D03*
Y50645D02*
D03*
X309366Y58519D02*
D03*
Y50645D02*
D03*
D31*
X544633Y200885D02*
D03*
X539515D02*
D03*
X560775D02*
D03*
X565893D02*
D03*
X217756Y199705D02*
D03*
X222874D02*
D03*
X244134D02*
D03*
X239016D02*
D03*
X173819Y19291D02*
D03*
X178937D02*
D03*
X315075Y90803D02*
D03*
X309957D02*
D03*
X315075Y73480D02*
D03*
X309957D02*
D03*
X315075Y78992D02*
D03*
X309957D02*
D03*
X309957Y84897D02*
D03*
X315075D02*
D03*
X296374Y90015D02*
D03*
X291256D02*
D03*
X199909Y47244D02*
D03*
X194791D02*
D03*
X209366Y90015D02*
D03*
X204248D02*
D03*
X274130Y76236D02*
D03*
X269012D02*
D03*
X280626Y90015D02*
D03*
X285744D02*
D03*
X269012Y82929D02*
D03*
X274130D02*
D03*
X382315Y200886D02*
D03*
X377197D02*
D03*
X398457D02*
D03*
X403575D02*
D03*
X67126Y201575D02*
D03*
X62008D02*
D03*
X83268D02*
D03*
X88386D02*
D03*
D32*
X555606Y200830D02*
D03*
X549543D02*
D03*
X227784Y199650D02*
D03*
X233847D02*
D03*
X393288Y200831D02*
D03*
X387225D02*
D03*
X78099Y201520D02*
D03*
X72036D02*
D03*
D33*
X300507Y64031D02*
D03*
Y66590D02*
D03*
Y69149D02*
D03*
Y71708D02*
D03*
Y74267D02*
D03*
X282003D02*
D03*
Y71708D02*
D03*
Y69149D02*
D03*
Y66590D02*
D03*
Y64031D02*
D03*
D34*
X296373Y78401D02*
D03*
X293814D02*
D03*
X291255D02*
D03*
X288696D02*
D03*
X286137D02*
D03*
Y59897D02*
D03*
X288696D02*
D03*
X291255D02*
D03*
X293814D02*
D03*
X296373D02*
D03*
D35*
X291255Y69149D02*
D03*
D36*
X273599Y35083D02*
D03*
X285410D02*
D03*
D37*
X152559Y91634D02*
D03*
Y103248D02*
D03*
X137795Y91634D02*
D03*
Y103248D02*
D03*
D38*
X147343Y65748D02*
D03*
X158957D02*
D03*
X177461Y39764D02*
D03*
X165847D02*
D03*
X147343Y78740D02*
D03*
X158957D02*
D03*
X147343Y52756D02*
D03*
X158957D02*
D03*
X177461D02*
D03*
X165847D02*
D03*
X177461Y65748D02*
D03*
X165847D02*
D03*
X177461Y78740D02*
D03*
X165847D02*
D03*
X147343Y39764D02*
D03*
X158957D02*
D03*
X220488Y42328D02*
D03*
X208874D02*
D03*
X220488Y31255D02*
D03*
X208874D02*
D03*
X220488Y53401D02*
D03*
X208874D02*
D03*
D39*
X195390Y79110D02*
D03*
Y73362D02*
D03*
D40*
X192520Y18996D02*
D03*
X186221D02*
D03*
D41*
X372752Y59700D02*
D03*
Y54189D02*
D03*
X377870Y59700D02*
D03*
Y54189D02*
D03*
D42*
X376984Y72496D02*
D03*
Y68756D02*
D03*
Y65015D02*
D03*
X366158D02*
D03*
Y68756D02*
D03*
Y72496D02*
D03*
D43*
X352280Y58913D02*
D03*
X362516D02*
D03*
X244012Y58913D02*
D03*
X254248D02*
D03*
X188189Y28346D02*
D03*
X198425D02*
D03*
D44*
X369996Y90803D02*
D03*
X362122D02*
D03*
D45*
X352614Y22091D02*
D03*
Y28390D02*
D03*
X242084Y22299D02*
D03*
Y28598D02*
D03*
M02*
