G04*
G04 #@! TF.GenerationSoftware,Altium Limited,Altium Designer,24.3.1 (35)*
G04*
G04 Layer_Color=16711935*
%FSLAX25Y25*%
%MOIN*%
G70*
G04*
G04 #@! TF.SameCoordinates,A8BCB32B-8C60-4C12-B3DE-DCC8D8FA19DF*
G04*
G04*
G04 #@! TF.FilePolarity,Negative*
G04*
G01*
G75*
%ADD70C,0.13005*%
%ADD71C,0.09855*%
%ADD72C,0.04993*%
%ADD73C,0.06312*%
%ADD74R,0.10642X0.06706*%
%ADD75R,0.20485X0.12611*%
%ADD76C,0.32296*%
%ADD77C,0.07887*%
%ADD78C,0.15761*%
%ADD79C,0.12611*%
%ADD80C,0.03162*%
%ADD81C,0.02572*%
D70*
X314961Y379921D02*
D03*
X74803Y19685D02*
D03*
X616142Y222441D02*
D03*
X13780D02*
D03*
X555118Y19685D02*
D03*
D71*
X622638Y170472D02*
D03*
Y109547D02*
D03*
D72*
X610856Y162559D02*
D03*
Y117559D02*
D03*
D73*
X575856Y157539D02*
D03*
X585856Y152539D02*
D03*
X575856Y147539D02*
D03*
X585856Y142539D02*
D03*
X575856Y137539D02*
D03*
X585856Y132539D02*
D03*
X575856Y127539D02*
D03*
X585856Y122539D02*
D03*
D74*
X557087Y262323D02*
D03*
Y272323D02*
D03*
Y282323D02*
D03*
Y292323D02*
D03*
X395669Y262323D02*
D03*
Y272323D02*
D03*
Y282323D02*
D03*
Y292323D02*
D03*
X234252Y262323D02*
D03*
Y272323D02*
D03*
Y282323D02*
D03*
Y292323D02*
D03*
X72835Y262323D02*
D03*
Y272323D02*
D03*
Y282323D02*
D03*
Y292323D02*
D03*
D75*
X514370D02*
D03*
Y369094D02*
D03*
X599803D02*
D03*
Y292323D02*
D03*
X352953D02*
D03*
Y369094D02*
D03*
X438386D02*
D03*
Y292323D02*
D03*
X191535D02*
D03*
Y369094D02*
D03*
X276969D02*
D03*
Y292323D02*
D03*
X30118D02*
D03*
Y369094D02*
D03*
X115551D02*
D03*
Y292323D02*
D03*
D76*
X557087Y330709D02*
D03*
X395669D02*
D03*
X234252D02*
D03*
X72835D02*
D03*
D77*
X591465Y40284D02*
D03*
X605386Y54205D02*
D03*
X591465D02*
D03*
X605386Y40284D02*
D03*
X24535Y54205D02*
D03*
X38457Y40284D02*
D03*
X24535D02*
D03*
X38457Y54205D02*
D03*
D78*
X614173Y17717D02*
D03*
Y76772D02*
D03*
X15748Y17717D02*
D03*
Y76772D02*
D03*
D79*
X598425D02*
D03*
Y17717D02*
D03*
X31496Y76772D02*
D03*
Y17717D02*
D03*
D80*
X237342Y21928D02*
D03*
X347184D02*
D03*
X249016Y17717D02*
D03*
X220843Y23665D02*
D03*
X216119Y29473D02*
D03*
X147244Y31102D02*
D03*
X177559Y87402D02*
D03*
X141370Y67563D02*
D03*
X556693Y216535D02*
D03*
X394488D02*
D03*
X235039Y215748D02*
D03*
X79429Y217325D02*
D03*
X552217Y217142D02*
D03*
X550751Y212302D02*
D03*
X389899Y217143D02*
D03*
X388433Y212303D02*
D03*
X230458Y215962D02*
D03*
X228992Y211122D02*
D03*
X73325Y213037D02*
D03*
X74791Y217877D02*
D03*
X154528Y108268D02*
D03*
X149606D02*
D03*
X139764D02*
D03*
X134843D02*
D03*
X198425Y18799D02*
D03*
X125000Y247047D02*
D03*
X281299Y245571D02*
D03*
X260343Y245079D02*
D03*
X440354Y246457D02*
D03*
X419783Y246260D02*
D03*
X285410Y54374D02*
D03*
X291304Y69118D02*
D03*
X295717Y65484D02*
D03*
X287056D02*
D03*
Y73161D02*
D03*
X295717D02*
D03*
X293371Y54768D02*
D03*
X289827D02*
D03*
X221237Y66185D02*
D03*
X309202Y62993D02*
D03*
X264764Y42618D02*
D03*
X317863Y62993D02*
D03*
X352339Y63036D02*
D03*
X325652Y62993D02*
D03*
X334159D02*
D03*
X342666D02*
D03*
X247221Y81146D02*
D03*
X250370D02*
D03*
X239740D02*
D03*
X242890D02*
D03*
X231867D02*
D03*
X235016D02*
D03*
X212890Y90201D02*
D03*
X191315Y68941D02*
D03*
X190922Y73272D02*
D03*
X200370Y53587D02*
D03*
X183071Y68110D02*
D03*
Y63779D02*
D03*
Y54724D02*
D03*
Y50394D02*
D03*
Y37402D02*
D03*
Y41732D02*
D03*
Y76378D02*
D03*
Y80709D02*
D03*
X141370Y37248D02*
D03*
Y41579D02*
D03*
Y75830D02*
D03*
Y80161D02*
D03*
Y63232D02*
D03*
Y54571D02*
D03*
Y50240D02*
D03*
X216119Y33803D02*
D03*
Y40545D02*
D03*
Y44876D02*
D03*
X189764Y47244D02*
D03*
X191315Y63823D02*
D03*
X195252Y92957D02*
D03*
X213756Y84295D02*
D03*
X227536Y81146D02*
D03*
X224386D02*
D03*
X270019Y70354D02*
D03*
X296397Y95157D02*
D03*
X218838Y61692D02*
D03*
X216119Y55949D02*
D03*
Y51618D02*
D03*
X318874Y79046D02*
D03*
Y73272D02*
D03*
Y90595D02*
D03*
Y84820D02*
D03*
X276748Y89807D02*
D03*
X291709Y83114D02*
D03*
X305821Y91317D02*
D03*
X317913Y45276D02*
D03*
X309055D02*
D03*
X325787D02*
D03*
X104724Y247441D02*
D03*
X259032Y47681D02*
D03*
X301945Y50437D02*
D03*
X334646Y45276D02*
D03*
X342520D02*
D03*
X265331Y76028D02*
D03*
X268874Y87839D02*
D03*
X296433Y85083D02*
D03*
X275114Y70724D02*
D03*
D81*
X209011Y72693D02*
D03*
X206756D02*
D03*
M02*
