G04*
G04 #@! TF.GenerationSoftware,Altium Limited,Altium Designer,24.3.1 (35)*
G04*
G04 Layer_Physical_Order=1*
G04 Layer_Color=255*
%FSLAX25Y25*%
%MOIN*%
G70*
G04*
G04 #@! TF.SameCoordinates,E1EECEC8-64B6-4E6B-A92A-5F1BE3EF8597*
G04*
G04*
G04 #@! TF.FilePolarity,Positive*
G04*
G01*
G75*
%ADD10C,0.01000*%
%ADD16C,0.00500*%
%ADD18C,0.00787*%
%ADD24R,0.03740X0.03347*%
G04:AMPARAMS|DCode=25|XSize=27.95mil|YSize=34.65mil|CornerRadius=4.61mil|HoleSize=0mil|Usage=FLASHONLY|Rotation=90.000|XOffset=0mil|YOffset=0mil|HoleType=Round|Shape=RoundedRectangle|*
%AMROUNDEDRECTD25*
21,1,0.02795,0.02542,0,0,90.0*
21,1,0.01873,0.03465,0,0,90.0*
1,1,0.00922,0.01271,0.00936*
1,1,0.00922,0.01271,-0.00936*
1,1,0.00922,-0.01271,-0.00936*
1,1,0.00922,-0.01271,0.00936*
%
%ADD25ROUNDEDRECTD25*%
%ADD26R,0.06004X0.02559*%
%ADD27R,0.02756X0.03543*%
G04:AMPARAMS|DCode=28|XSize=166.93mil|YSize=150mil|CornerRadius=15mil|HoleSize=0mil|Usage=FLASHONLY|Rotation=0.000|XOffset=0mil|YOffset=0mil|HoleType=Round|Shape=RoundedRectangle|*
%AMROUNDEDRECTD28*
21,1,0.16693,0.12000,0,0,0.0*
21,1,0.13693,0.15000,0,0,0.0*
1,1,0.03000,0.06847,-0.06000*
1,1,0.03000,-0.06847,-0.06000*
1,1,0.03000,-0.06847,0.06000*
1,1,0.03000,0.06847,0.06000*
%
%ADD28ROUNDEDRECTD28*%
%ADD29R,0.04724X0.06496*%
%ADD30R,0.14961X0.07992*%
%ADD31R,0.06102X0.05315*%
%ADD32R,0.03347X0.03740*%
G04:AMPARAMS|DCode=33|XSize=27.95mil|YSize=34.65mil|CornerRadius=4.61mil|HoleSize=0mil|Usage=FLASHONLY|Rotation=180.000|XOffset=0mil|YOffset=0mil|HoleType=Round|Shape=RoundedRectangle|*
%AMROUNDEDRECTD33*
21,1,0.02795,0.02542,0,0,180.0*
21,1,0.01873,0.03465,0,0,180.0*
1,1,0.00922,-0.00936,0.01271*
1,1,0.00922,0.00936,0.01271*
1,1,0.00922,0.00936,-0.01271*
1,1,0.00922,-0.00936,-0.01271*
%
%ADD33ROUNDEDRECTD33*%
%ADD34R,0.04134X0.01378*%
%ADD35R,0.01378X0.04134*%
%ADD36R,0.12795X0.12795*%
%ADD37R,0.06299X0.10630*%
G04:AMPARAMS|DCode=38|XSize=45.67mil|YSize=107.09mil|CornerRadius=7.54mil|HoleSize=0mil|Usage=FLASHONLY|Rotation=90.000|XOffset=0mil|YOffset=0mil|HoleType=Round|Shape=RoundedRectangle|*
%AMROUNDEDRECTD38*
21,1,0.04567,0.09202,0,0,90.0*
21,1,0.03060,0.10709,0,0,90.0*
1,1,0.01507,0.04601,0.01530*
1,1,0.01507,0.04601,-0.01530*
1,1,0.01507,-0.04601,-0.01530*
1,1,0.01507,-0.04601,0.01530*
%
%ADD38ROUNDEDRECTD38*%
G04:AMPARAMS|DCode=39|XSize=45.67mil|YSize=107.09mil|CornerRadius=7.54mil|HoleSize=0mil|Usage=FLASHONLY|Rotation=180.000|XOffset=0mil|YOffset=0mil|HoleType=Round|Shape=RoundedRectangle|*
%AMROUNDEDRECTD39*
21,1,0.04567,0.09202,0,0,180.0*
21,1,0.03060,0.10709,0,0,180.0*
1,1,0.01507,-0.01530,0.04601*
1,1,0.01507,0.01530,0.04601*
1,1,0.01507,0.01530,-0.04601*
1,1,0.01507,-0.01530,-0.04601*
%
%ADD39ROUNDEDRECTD39*%
G04:AMPARAMS|DCode=40|XSize=19.68mil|YSize=35.43mil|CornerRadius=3.25mil|HoleSize=0mil|Usage=FLASHONLY|Rotation=270.000|XOffset=0mil|YOffset=0mil|HoleType=Round|Shape=RoundedRectangle|*
%AMROUNDEDRECTD40*
21,1,0.01968,0.02894,0,0,270.0*
21,1,0.01319,0.03543,0,0,270.0*
1,1,0.00650,-0.01447,-0.00659*
1,1,0.00650,-0.01447,0.00659*
1,1,0.00650,0.01447,0.00659*
1,1,0.00650,0.01447,-0.00659*
%
%ADD40ROUNDEDRECTD40*%
%ADD41R,0.03150X0.03150*%
%ADD42R,0.03543X0.02756*%
G04:AMPARAMS|DCode=43|XSize=23.62mil|YSize=39.37mil|CornerRadius=2.01mil|HoleSize=0mil|Usage=FLASHONLY|Rotation=90.000|XOffset=0mil|YOffset=0mil|HoleType=Round|Shape=RoundedRectangle|*
%AMROUNDEDRECTD43*
21,1,0.02362,0.03535,0,0,90.0*
21,1,0.01961,0.03937,0,0,90.0*
1,1,0.00402,0.01768,0.00980*
1,1,0.00402,0.01768,-0.00980*
1,1,0.00402,-0.01768,-0.00980*
1,1,0.00402,-0.01768,0.00980*
%
%ADD43ROUNDEDRECTD43*%
%ADD44R,0.05512X0.03937*%
%ADD45R,0.05315X0.06102*%
%ADD46R,0.03150X0.03150*%
G04:AMPARAMS|DCode=83|XSize=47.24mil|YSize=18.7mil|CornerRadius=3.93mil|HoleSize=0mil|Usage=FLASHONLY|Rotation=90.000|XOffset=0mil|YOffset=0mil|HoleType=Round|Shape=RoundedRectangle|*
%AMROUNDEDRECTD83*
21,1,0.04724,0.01085,0,0,90.0*
21,1,0.03939,0.01870,0,0,90.0*
1,1,0.00785,0.00542,0.01970*
1,1,0.00785,0.00542,-0.01970*
1,1,0.00785,-0.00542,-0.01970*
1,1,0.00785,-0.00542,0.01970*
%
%ADD83ROUNDEDRECTD83*%
G04:AMPARAMS|DCode=84|XSize=47.24mil|YSize=13.78mil|CornerRadius=3.93mil|HoleSize=0mil|Usage=FLASHONLY|Rotation=90.000|XOffset=0mil|YOffset=0mil|HoleType=Round|Shape=RoundedRectangle|*
%AMROUNDEDRECTD84*
21,1,0.04724,0.00593,0,0,90.0*
21,1,0.03939,0.01378,0,0,90.0*
1,1,0.00785,0.00296,0.01970*
1,1,0.00785,0.00296,-0.01970*
1,1,0.00785,-0.00296,-0.01970*
1,1,0.00785,-0.00296,0.01970*
%
%ADD84ROUNDEDRECTD84*%
G04:AMPARAMS|DCode=85|XSize=13.78mil|YSize=35.43mil|CornerRadius=3.93mil|HoleSize=0mil|Usage=FLASHONLY|Rotation=90.000|XOffset=0mil|YOffset=0mil|HoleType=Round|Shape=RoundedRectangle|*
%AMROUNDEDRECTD85*
21,1,0.01378,0.02758,0,0,90.0*
21,1,0.00593,0.03543,0,0,90.0*
1,1,0.00785,0.01379,0.00296*
1,1,0.00785,0.01379,-0.00296*
1,1,0.00785,-0.01379,-0.00296*
1,1,0.00785,-0.01379,0.00296*
%
%ADD85ROUNDEDRECTD85*%
G04:AMPARAMS|DCode=86|XSize=62.99mil|YSize=84.65mil|CornerRadius=4.1mil|HoleSize=0mil|Usage=FLASHONLY|Rotation=90.000|XOffset=0mil|YOffset=0mil|HoleType=Round|Shape=RoundedRectangle|*
%AMROUNDEDRECTD86*
21,1,0.06299,0.07646,0,0,90.0*
21,1,0.05480,0.08465,0,0,90.0*
1,1,0.00819,0.03823,0.02740*
1,1,0.00819,0.03823,-0.02740*
1,1,0.00819,-0.03823,-0.02740*
1,1,0.00819,-0.03823,0.02740*
%
%ADD86ROUNDEDRECTD86*%
%ADD87C,0.03937*%
%ADD88C,0.03150*%
%ADD89C,0.01575*%
%ADD90C,0.00630*%
%ADD91C,0.01378*%
%ADD92C,0.09055*%
%ADD93C,0.04193*%
%ADD94C,0.05512*%
%ADD95R,0.09843X0.05906*%
%ADD96R,0.19685X0.11811*%
%ADD97C,0.31496*%
%ADD98C,0.12205*%
%ADD99C,0.07087*%
%ADD100C,0.14961*%
%ADD101C,0.11811*%
%ADD102C,0.02362*%
%ADD103C,0.05000*%
%ADD104C,0.01772*%
G36*
X628900Y1020D02*
X1020Y1020D01*
X1020Y392681D01*
X628900D01*
Y1020D01*
D02*
G37*
%LPC*%
G36*
X610646Y376000D02*
X600197D01*
Y374892D01*
X599409D01*
Y376000D01*
X588961D01*
Y369488D01*
X590068D01*
Y368701D01*
X588961D01*
Y362189D01*
X599409D01*
Y363297D01*
X600197D01*
Y362189D01*
X610646D01*
Y368701D01*
X609538D01*
Y369488D01*
X610646D01*
Y376000D01*
D02*
G37*
G36*
X525213D02*
X514764D01*
Y374892D01*
X513976D01*
Y376000D01*
X503527D01*
Y369488D01*
X504635D01*
Y368701D01*
X503527D01*
Y362189D01*
X513976D01*
Y363297D01*
X514764D01*
Y362189D01*
X525213D01*
Y368701D01*
X524105D01*
Y369488D01*
X525213D01*
Y376000D01*
D02*
G37*
G36*
X449228D02*
X438779D01*
Y374892D01*
X437992D01*
Y376000D01*
X427543D01*
Y369488D01*
X428651D01*
Y368701D01*
X427543D01*
Y362189D01*
X437992D01*
Y363297D01*
X438779D01*
Y362189D01*
X449228D01*
Y368701D01*
X448121D01*
Y369488D01*
X449228D01*
Y376000D01*
D02*
G37*
G36*
X363795D02*
X353346D01*
Y374892D01*
X352559D01*
Y376000D01*
X342110D01*
Y369488D01*
X343218D01*
Y368701D01*
X342110D01*
Y362189D01*
X352559D01*
Y363297D01*
X353346D01*
Y362189D01*
X363795D01*
Y368701D01*
X362688D01*
Y369488D01*
X363795D01*
Y376000D01*
D02*
G37*
G36*
X287811D02*
X277362D01*
Y374892D01*
X276575D01*
Y376000D01*
X266126D01*
Y369488D01*
X267234D01*
Y368701D01*
X266126D01*
Y362189D01*
X276575D01*
Y363297D01*
X277362D01*
Y362189D01*
X287811D01*
Y368701D01*
X286703D01*
Y369488D01*
X287811D01*
Y376000D01*
D02*
G37*
G36*
X202378D02*
X191929D01*
Y374892D01*
X191142D01*
Y376000D01*
X180693D01*
Y369488D01*
X181800D01*
Y368701D01*
X180693D01*
Y362189D01*
X191142D01*
Y363297D01*
X191929D01*
Y362189D01*
X202378D01*
Y368701D01*
X201270D01*
Y369488D01*
X202378D01*
Y376000D01*
D02*
G37*
G36*
X126394D02*
X115945D01*
Y374892D01*
X115157D01*
Y376000D01*
X104709D01*
Y369488D01*
X105816D01*
Y368701D01*
X104709D01*
Y362189D01*
X115157D01*
Y363297D01*
X115945D01*
Y362189D01*
X126394D01*
Y368701D01*
X125286D01*
Y369488D01*
X126394D01*
Y376000D01*
D02*
G37*
G36*
X40961D02*
X30512D01*
Y374892D01*
X29724D01*
Y376000D01*
X19276D01*
Y369488D01*
X20383D01*
Y368701D01*
X19276D01*
Y362189D01*
X29724D01*
Y363297D01*
X30512D01*
Y362189D01*
X40961D01*
Y368701D01*
X39853D01*
Y369488D01*
X40961D01*
Y376000D01*
D02*
G37*
G36*
X558673Y362992D02*
X555501D01*
X552344Y362681D01*
X549233Y362062D01*
X546198Y361142D01*
X543267Y359928D01*
X540470Y358433D01*
X537832Y356670D01*
X535380Y354658D01*
X533137Y352415D01*
X531125Y349963D01*
X529363Y347326D01*
X527868Y344528D01*
X526654Y341598D01*
X525733Y338562D01*
X525114Y335451D01*
X524803Y332295D01*
Y329123D01*
X525114Y325966D01*
X525733Y322855D01*
X526654Y319820D01*
X527868Y316889D01*
X529363Y314092D01*
X531125Y311454D01*
X533137Y309002D01*
X535380Y306759D01*
X537832Y304747D01*
X540470Y302985D01*
X543267Y301490D01*
X546198Y300276D01*
X549233Y299355D01*
X552344Y298736D01*
X555501Y298425D01*
X558673D01*
X561829Y298736D01*
X564940Y299355D01*
X567976Y300276D01*
X570906Y301490D01*
X573704Y302985D01*
X576341Y304747D01*
X578793Y306759D01*
X581036Y309002D01*
X583048Y311454D01*
X584810Y314092D01*
X586306Y316889D01*
X587520Y319820D01*
X588440Y322855D01*
X589059Y325966D01*
X589370Y329123D01*
Y332295D01*
X589059Y335451D01*
X588440Y338562D01*
X587520Y341598D01*
X586306Y344528D01*
X584810Y347326D01*
X583048Y349963D01*
X581036Y352415D01*
X578793Y354658D01*
X576341Y356670D01*
X573704Y358433D01*
X570906Y359928D01*
X567976Y361142D01*
X564940Y362062D01*
X561829Y362681D01*
X558673Y362992D01*
D02*
G37*
G36*
X397255D02*
X394083D01*
X390927Y362681D01*
X387816Y362062D01*
X384780Y361142D01*
X381850Y359928D01*
X379052Y358433D01*
X376415Y356670D01*
X373963Y354658D01*
X371720Y352415D01*
X369708Y349963D01*
X367945Y347326D01*
X366450Y344528D01*
X365236Y341598D01*
X364316Y338562D01*
X363697Y335451D01*
X363386Y332295D01*
Y329123D01*
X363697Y325966D01*
X364316Y322855D01*
X365236Y319820D01*
X366450Y316889D01*
X367945Y314092D01*
X369708Y311454D01*
X371720Y309002D01*
X373963Y306759D01*
X376415Y304747D01*
X379052Y302985D01*
X381850Y301490D01*
X384780Y300276D01*
X387816Y299355D01*
X390927Y298736D01*
X394083Y298425D01*
X397255D01*
X400412Y298736D01*
X403523Y299355D01*
X406558Y300276D01*
X409489Y301490D01*
X412286Y302985D01*
X414924Y304747D01*
X417376Y306759D01*
X419619Y309002D01*
X421631Y311454D01*
X423393Y314092D01*
X424888Y316889D01*
X426102Y319820D01*
X427023Y322855D01*
X427642Y325966D01*
X427953Y329123D01*
Y332295D01*
X427642Y335451D01*
X427023Y338562D01*
X426102Y341598D01*
X424888Y344528D01*
X423393Y347326D01*
X421631Y349963D01*
X419619Y352415D01*
X417376Y354658D01*
X414924Y356670D01*
X412286Y358433D01*
X409489Y359928D01*
X406558Y361142D01*
X403523Y362062D01*
X400412Y362681D01*
X397255Y362992D01*
D02*
G37*
G36*
X235838D02*
X232666D01*
X229509Y362681D01*
X226398Y362062D01*
X223363Y361142D01*
X220432Y359928D01*
X217635Y358433D01*
X214998Y356670D01*
X212546Y354658D01*
X210303Y352415D01*
X208290Y349963D01*
X206528Y347326D01*
X205033Y344528D01*
X203819Y341598D01*
X202898Y338562D01*
X202279Y335451D01*
X201969Y332295D01*
Y329123D01*
X202279Y325966D01*
X202898Y322855D01*
X203819Y319820D01*
X205033Y316889D01*
X206528Y314092D01*
X208290Y311454D01*
X210303Y309002D01*
X212546Y306759D01*
X214998Y304747D01*
X217635Y302985D01*
X220432Y301490D01*
X223363Y300276D01*
X226398Y299355D01*
X229509Y298736D01*
X232666Y298425D01*
X235838D01*
X238995Y298736D01*
X242106Y299355D01*
X245141Y300276D01*
X248072Y301490D01*
X250869Y302985D01*
X253506Y304747D01*
X255958Y306759D01*
X258201Y309002D01*
X260213Y311454D01*
X261976Y314092D01*
X263471Y316889D01*
X264685Y319820D01*
X265606Y322855D01*
X266225Y325966D01*
X266535Y329123D01*
Y332295D01*
X266225Y335451D01*
X265606Y338562D01*
X264685Y341598D01*
X263471Y344528D01*
X261976Y347326D01*
X260213Y349963D01*
X258201Y352415D01*
X255958Y354658D01*
X253506Y356670D01*
X250869Y358433D01*
X248072Y359928D01*
X245141Y361142D01*
X242106Y362062D01*
X238995Y362681D01*
X235838Y362992D01*
D02*
G37*
G36*
X74421D02*
X71249D01*
X68092Y362681D01*
X64981Y362062D01*
X61946Y361142D01*
X59015Y359928D01*
X56218Y358433D01*
X53580Y356670D01*
X51128Y354658D01*
X48885Y352415D01*
X46873Y349963D01*
X45111Y347326D01*
X43616Y344528D01*
X42402Y341598D01*
X41481Y338562D01*
X40862Y335451D01*
X40551Y332295D01*
Y329123D01*
X40862Y325966D01*
X41481Y322855D01*
X42402Y319820D01*
X43616Y316889D01*
X45111Y314092D01*
X46873Y311454D01*
X48885Y309002D01*
X51128Y306759D01*
X53580Y304747D01*
X56218Y302985D01*
X59015Y301490D01*
X61946Y300276D01*
X64981Y299355D01*
X68092Y298736D01*
X71249Y298425D01*
X74421D01*
X77577Y298736D01*
X80688Y299355D01*
X83724Y300276D01*
X86654Y301490D01*
X89452Y302985D01*
X92089Y304747D01*
X94541Y306759D01*
X96784Y309002D01*
X98796Y311454D01*
X100558Y314092D01*
X102054Y316889D01*
X103268Y319820D01*
X104188Y322855D01*
X104807Y325966D01*
X105118Y329123D01*
Y332295D01*
X104807Y335451D01*
X104188Y338562D01*
X103268Y341598D01*
X102054Y344528D01*
X100558Y347326D01*
X98796Y349963D01*
X96784Y352415D01*
X94541Y354658D01*
X92089Y356670D01*
X89452Y358433D01*
X86654Y359928D01*
X83724Y361142D01*
X80688Y362062D01*
X77577Y362681D01*
X74421Y362992D01*
D02*
G37*
G36*
X610646Y299228D02*
X600197D01*
Y298121D01*
X599409D01*
Y299228D01*
X588961D01*
Y292717D01*
X590068D01*
Y291929D01*
X588961D01*
Y285417D01*
X599409D01*
Y286525D01*
X600197D01*
Y285417D01*
X610646D01*
Y291929D01*
X609538D01*
Y292717D01*
X610646D01*
Y299228D01*
D02*
G37*
G36*
X525213D02*
X514764D01*
Y298121D01*
X513976D01*
Y299228D01*
X503527D01*
Y292717D01*
X504635D01*
Y291929D01*
X503527D01*
Y285417D01*
X513976D01*
Y286525D01*
X514764D01*
Y285417D01*
X525213D01*
Y291929D01*
X524105D01*
Y292717D01*
X525213D01*
Y299228D01*
D02*
G37*
G36*
X449228D02*
X438779D01*
Y298121D01*
X437992D01*
Y299228D01*
X427543D01*
Y292717D01*
X428651D01*
Y291929D01*
X427543D01*
Y285417D01*
X437992D01*
Y286525D01*
X438779D01*
Y285417D01*
X449228D01*
Y291929D01*
X448121D01*
Y292717D01*
X449228D01*
Y299228D01*
D02*
G37*
G36*
X363795D02*
X353346D01*
Y298121D01*
X352559D01*
Y299228D01*
X342110D01*
Y292717D01*
X343218D01*
Y291929D01*
X342110D01*
Y285417D01*
X352559D01*
Y286525D01*
X353346D01*
Y285417D01*
X363795D01*
Y291929D01*
X362688D01*
Y292717D01*
X363795D01*
Y299228D01*
D02*
G37*
G36*
X287811D02*
X277362D01*
Y298121D01*
X276575D01*
Y299228D01*
X266126D01*
Y292717D01*
X267234D01*
Y291929D01*
X266126D01*
Y285417D01*
X276575D01*
Y286525D01*
X277362D01*
Y285417D01*
X287811D01*
Y291929D01*
X286703D01*
Y292717D01*
X287811D01*
Y299228D01*
D02*
G37*
G36*
X202378D02*
X191929D01*
Y298121D01*
X191142D01*
Y299228D01*
X180693D01*
Y292717D01*
X181800D01*
Y291929D01*
X180693D01*
Y285417D01*
X191142D01*
Y286525D01*
X191929D01*
Y285417D01*
X202378D01*
Y291929D01*
X201270D01*
Y292717D01*
X202378D01*
Y299228D01*
D02*
G37*
G36*
X126394D02*
X115945D01*
Y298121D01*
X115157D01*
Y299228D01*
X104709D01*
Y292717D01*
X105816D01*
Y291929D01*
X104709D01*
Y285417D01*
X115157D01*
Y286525D01*
X115945D01*
Y285417D01*
X126394D01*
Y291929D01*
X125286D01*
Y292717D01*
X126394D01*
Y299228D01*
D02*
G37*
G36*
X40961D02*
X30512D01*
Y298121D01*
X29724D01*
Y299228D01*
X19276D01*
Y292717D01*
X20383D01*
Y291929D01*
X19276D01*
Y285417D01*
X29724D01*
Y286525D01*
X30512D01*
Y285417D01*
X40961D01*
Y291929D01*
X39853D01*
Y292717D01*
X40961D01*
Y299228D01*
D02*
G37*
G36*
X562795Y296063D02*
X551378D01*
Y288583D01*
X562795D01*
Y296063D01*
D02*
G37*
G36*
X401378D02*
X389961D01*
Y288583D01*
X401378D01*
Y296063D01*
D02*
G37*
G36*
X239961D02*
X228543D01*
Y288583D01*
X239961D01*
Y296063D01*
D02*
G37*
G36*
X78543D02*
X67126D01*
Y288583D01*
X78543D01*
Y296063D01*
D02*
G37*
G36*
X563008Y286276D02*
X557480D01*
Y285168D01*
X556693D01*
Y286276D01*
X551165D01*
Y282716D01*
X552273D01*
Y281929D01*
X551165D01*
Y278370D01*
X556693D01*
Y279478D01*
X557480D01*
Y278370D01*
X563008D01*
Y281929D01*
X561900D01*
Y282716D01*
X563008D01*
Y286276D01*
D02*
G37*
G36*
X401590D02*
X396063D01*
Y285168D01*
X395276D01*
Y286276D01*
X389748D01*
Y282716D01*
X390856D01*
Y281929D01*
X389748D01*
Y278370D01*
X395276D01*
Y279478D01*
X396063D01*
Y278370D01*
X401590D01*
Y281929D01*
X400483D01*
Y282716D01*
X401590D01*
Y286276D01*
D02*
G37*
G36*
X240173D02*
X234646D01*
Y285168D01*
X233858D01*
Y286276D01*
X228331D01*
Y282716D01*
X229438D01*
Y281929D01*
X228331D01*
Y278370D01*
X233858D01*
Y279478D01*
X234646D01*
Y278370D01*
X240173D01*
Y281929D01*
X239066D01*
Y282716D01*
X240173D01*
Y286276D01*
D02*
G37*
G36*
X78756D02*
X73228D01*
Y285168D01*
X72441D01*
Y286276D01*
X66913D01*
Y282716D01*
X68021D01*
Y281929D01*
X66913D01*
Y278370D01*
X72441D01*
Y279478D01*
X73228D01*
Y278370D01*
X78756D01*
Y281929D01*
X77648D01*
Y282716D01*
X78756D01*
Y286276D01*
D02*
G37*
G36*
X401378Y266063D02*
X389961D01*
Y263728D01*
X386535D01*
X385998Y263621D01*
X385542Y263316D01*
X376861Y254635D01*
X376556Y254179D01*
X376449Y253642D01*
Y249016D01*
X375984D01*
Y244685D01*
X376450D01*
Y242678D01*
X375625D01*
Y241803D01*
X372450D01*
X371913Y241696D01*
X371457Y241391D01*
X368478Y238413D01*
X353771D01*
X349803Y242381D01*
Y249173D01*
X334055D01*
Y240394D01*
X347816D01*
X352196Y236014D01*
X352651Y235710D01*
X353189Y235603D01*
X369060D01*
X369598Y235710D01*
X370054Y236014D01*
X373032Y238993D01*
X375625D01*
Y238544D01*
X380153D01*
Y242678D01*
X379259D01*
Y244685D01*
X379528D01*
Y249016D01*
X379259D01*
Y253060D01*
X387117Y260918D01*
X389961D01*
Y258583D01*
X401378D01*
Y266063D01*
D02*
G37*
G36*
X239961D02*
X228543D01*
Y263728D01*
X223937D01*
X223399Y263621D01*
X222944Y263316D01*
X217420Y257793D01*
X217115Y257337D01*
X217008Y256799D01*
Y247835D01*
X216535D01*
Y243504D01*
X217009D01*
Y241497D01*
X216184D01*
Y240622D01*
X213009D01*
X212472Y240515D01*
X212016Y240210D01*
X209037Y237232D01*
X194330D01*
X190362Y241199D01*
Y247992D01*
X174614D01*
Y239213D01*
X188375D01*
X192754Y234833D01*
X193210Y234529D01*
X193748Y234422D01*
X209619D01*
X210157Y234529D01*
X210613Y234833D01*
X213591Y237812D01*
X216184D01*
Y237363D01*
X220712D01*
Y241497D01*
X219818D01*
Y243504D01*
X220079D01*
Y247835D01*
X219818D01*
Y256217D01*
X224519Y260918D01*
X228543D01*
Y258583D01*
X239961D01*
Y266063D01*
D02*
G37*
G36*
X78543D02*
X67126D01*
Y263728D01*
X65472D01*
X64935Y263621D01*
X64479Y263316D01*
X61672Y260509D01*
X61367Y260053D01*
X61260Y259516D01*
Y250000D01*
X60827D01*
Y245669D01*
X61261D01*
Y243367D01*
X60436D01*
Y242492D01*
X57261D01*
X56723Y242385D01*
X56268Y242080D01*
X53289Y239102D01*
X38582D01*
X34614Y243070D01*
Y249862D01*
X18866D01*
Y241083D01*
X32627D01*
X37007Y236703D01*
X37462Y236399D01*
X38000Y236292D01*
X53871D01*
X54409Y236399D01*
X54865Y236703D01*
X57843Y239682D01*
X60436D01*
Y239233D01*
X64964D01*
Y243367D01*
X64070D01*
Y245669D01*
X64370D01*
Y250000D01*
X64070D01*
Y258934D01*
X66054Y260918D01*
X67126D01*
Y258583D01*
X78543D01*
Y266063D01*
D02*
G37*
G36*
X476379Y380784D02*
X468511D01*
X468120Y380707D01*
X467790Y380486D01*
X467569Y380155D01*
X467491Y379765D01*
Y253780D01*
X467569Y253390D01*
X467790Y253059D01*
X468120Y252838D01*
X468511Y252761D01*
X476379D01*
X476769Y252838D01*
X477100Y253059D01*
X477321Y253390D01*
X477398Y253780D01*
Y379765D01*
X477321Y380155D01*
X477100Y380486D01*
X476769Y380707D01*
X476379Y380784D01*
D02*
G37*
G36*
X318893D02*
X311024D01*
X310634Y380707D01*
X310303Y380486D01*
X310082Y380155D01*
X310005Y379765D01*
Y253780D01*
X310082Y253390D01*
X310303Y253059D01*
X310634Y252838D01*
X311024Y252761D01*
X318893D01*
X319283Y252838D01*
X319614Y253059D01*
X319835Y253390D01*
X319912Y253780D01*
Y379765D01*
X319835Y380155D01*
X319614Y380486D01*
X319283Y380707D01*
X318893Y380784D01*
D02*
G37*
G36*
X161412D02*
X153544D01*
X153154Y380707D01*
X152823Y380486D01*
X152602Y380155D01*
X152524Y379765D01*
Y253780D01*
X152602Y253390D01*
X152823Y253059D01*
X153154Y252838D01*
X153544Y252761D01*
X161412D01*
X161802Y252838D01*
X162133Y253059D01*
X162354Y253390D01*
X162432Y253780D01*
Y379765D01*
X162354Y380155D01*
X162133Y380486D01*
X161802Y380707D01*
X161412Y380784D01*
D02*
G37*
G36*
X529707Y250099D02*
X528924D01*
X528256Y249822D01*
X527756Y250000D01*
Y250000D01*
X524213D01*
Y245669D01*
X527756D01*
Y246199D01*
X528003Y246345D01*
X528256Y246439D01*
X528924Y246162D01*
X529707D01*
X530431Y246462D01*
X530985Y247015D01*
X531285Y247739D01*
Y248522D01*
X530985Y249245D01*
X530431Y249799D01*
X529707Y250099D01*
D02*
G37*
G36*
X45638Y250886D02*
X43964D01*
Y248819D01*
X45638D01*
Y250886D01*
D02*
G37*
G36*
X43374D02*
X41701D01*
Y248819D01*
X43374D01*
Y250886D01*
D02*
G37*
G36*
X361713Y250787D02*
X360039D01*
Y248721D01*
X361713D01*
Y250787D01*
D02*
G37*
G36*
X359449D02*
X357776D01*
Y248721D01*
X359449D01*
Y250787D01*
D02*
G37*
G36*
X122606Y250197D02*
X115717D01*
Y248452D01*
X114181D01*
Y250194D01*
X107291D01*
Y248452D01*
X106436D01*
X106393Y248556D01*
X105840Y249110D01*
X105116Y249409D01*
X104333D01*
X103609Y249110D01*
X103056Y248556D01*
X102756Y247832D01*
Y247049D01*
X103056Y246326D01*
X103609Y245772D01*
X104333Y245472D01*
X105116D01*
X105526Y245642D01*
X107291D01*
Y244092D01*
X114181D01*
Y245642D01*
X115717D01*
Y244094D01*
X122606D01*
Y245642D01*
X123621D01*
X123885Y245378D01*
X124608Y245079D01*
X125392D01*
X126115Y245378D01*
X126669Y245932D01*
X126969Y246656D01*
Y247439D01*
X126669Y248162D01*
X126115Y248716D01*
X125392Y249016D01*
X124608D01*
X123885Y248716D01*
X123621Y248452D01*
X122606D01*
Y250197D01*
D02*
G37*
G36*
X70079Y250197D02*
X68405D01*
Y248130D01*
X70079D01*
Y250197D01*
D02*
G37*
G36*
X67815D02*
X66142D01*
Y248130D01*
X67815D01*
Y250197D01*
D02*
G37*
G36*
X522441Y250197D02*
X520768D01*
Y248130D01*
X522441D01*
Y250197D01*
D02*
G37*
G36*
X520177D02*
X518504D01*
Y248130D01*
X520177D01*
Y250197D01*
D02*
G37*
G36*
X83760Y250098D02*
X82087D01*
Y248031D01*
X83760D01*
Y250098D01*
D02*
G37*
G36*
X81496D02*
X79823D01*
Y248031D01*
X81496D01*
Y250098D01*
D02*
G37*
G36*
X202461Y249803D02*
X200787D01*
Y247736D01*
X202461D01*
Y249803D01*
D02*
G37*
G36*
X200197D02*
X198524D01*
Y247736D01*
X200197D01*
Y249803D01*
D02*
G37*
G36*
X437795Y249508D02*
X430905D01*
Y247665D01*
X429370D01*
Y249505D01*
X422480D01*
Y247665D01*
X421162D01*
X420898Y247929D01*
X420175Y248228D01*
X419392D01*
X418668Y247929D01*
X418115Y247375D01*
X417815Y246651D01*
Y245868D01*
X418115Y245145D01*
X418668Y244591D01*
X419392Y244291D01*
X420175D01*
X420898Y244591D01*
X421162Y244855D01*
X422480D01*
Y243403D01*
X429370D01*
Y244855D01*
X430905D01*
Y243406D01*
X437795D01*
Y245052D01*
X438975D01*
X439239Y244788D01*
X439963Y244488D01*
X440746D01*
X441469Y244788D01*
X442023Y245342D01*
X442323Y246065D01*
Y246848D01*
X442023Y247572D01*
X441469Y248126D01*
X440746Y248425D01*
X439963D01*
X439239Y248126D01*
X438975Y247862D01*
X437795D01*
Y249508D01*
D02*
G37*
G36*
X600113Y249507D02*
X593223D01*
Y247419D01*
X591688D01*
Y249505D01*
X584798D01*
Y247419D01*
X583515D01*
X583300Y247633D01*
X582577Y247933D01*
X581793D01*
X581070Y247633D01*
X580516Y247080D01*
X580217Y246356D01*
Y245573D01*
X580516Y244849D01*
X581070Y244296D01*
X581793Y243996D01*
X582577D01*
X583300Y244296D01*
X583613Y244609D01*
X584798D01*
Y243402D01*
X591688D01*
Y244609D01*
X593223D01*
Y243405D01*
X600113D01*
Y244609D01*
X601032D01*
X601247Y244394D01*
X601971Y244094D01*
X602754D01*
X603477Y244394D01*
X604031Y244948D01*
X604331Y245671D01*
Y246455D01*
X604031Y247178D01*
X603477Y247732D01*
X602754Y248031D01*
X601971D01*
X601247Y247732D01*
X600934Y247419D01*
X600113D01*
Y249507D01*
D02*
G37*
G36*
X385236Y249213D02*
X383563D01*
Y247146D01*
X385236D01*
Y249213D01*
D02*
G37*
G36*
X382972D02*
X381299D01*
Y247146D01*
X382972D01*
Y249213D01*
D02*
G37*
G36*
X398819Y249016D02*
X397146D01*
Y246949D01*
X398819D01*
Y249016D01*
D02*
G37*
G36*
X396555D02*
X394882D01*
Y246949D01*
X396555D01*
Y249016D01*
D02*
G37*
G36*
X278354Y248327D02*
X271465D01*
Y246681D01*
X269929D01*
Y248324D01*
X263039D01*
Y246484D01*
X261721D01*
X261458Y246748D01*
X260734Y247047D01*
X259951D01*
X259227Y246748D01*
X258674Y246194D01*
X258374Y245470D01*
Y244687D01*
X258674Y243964D01*
X259227Y243410D01*
X259951Y243110D01*
X260734D01*
X261458Y243410D01*
X261721Y243674D01*
X263039D01*
Y242221D01*
X269929D01*
Y243871D01*
X271465D01*
Y242224D01*
X278354D01*
Y243871D01*
X280260D01*
X280908Y243602D01*
X281691D01*
X282414Y243902D01*
X282968Y244456D01*
X283268Y245179D01*
Y245962D01*
X282968Y246686D01*
X282414Y247240D01*
X281691Y247539D01*
X280908D01*
X280184Y247240D01*
X279630Y246686D01*
X279628Y246681D01*
X278354D01*
Y248327D01*
D02*
G37*
G36*
X50953Y250689D02*
X47409D01*
Y246358D01*
X50953D01*
Y247119D01*
X51475D01*
X51739Y246855D01*
X52463Y246555D01*
X53246D01*
X53969Y246855D01*
X54523Y247409D01*
X54823Y248132D01*
Y248915D01*
X54523Y249639D01*
X53969Y250192D01*
X53246Y250492D01*
X52463D01*
X51739Y250192D01*
X51475Y249929D01*
X50953D01*
Y250689D01*
D02*
G37*
G36*
X367028Y250591D02*
X363484D01*
Y246260D01*
X367028D01*
Y246971D01*
X367765D01*
X368078Y246658D01*
X368801Y246358D01*
X369584D01*
X370308Y246658D01*
X370862Y247212D01*
X371161Y247935D01*
Y248718D01*
X370862Y249442D01*
X370308Y249996D01*
X369584Y250295D01*
X368801D01*
X368078Y249996D01*
X367863Y249781D01*
X367028D01*
Y250591D01*
D02*
G37*
G36*
X45638Y248228D02*
X43964D01*
Y246161D01*
X45638D01*
Y248228D01*
D02*
G37*
G36*
X43374D02*
X41701D01*
Y246161D01*
X43374D01*
Y248228D01*
D02*
G37*
G36*
X361713Y248130D02*
X360039D01*
Y246063D01*
X361713D01*
Y248130D01*
D02*
G37*
G36*
X359449D02*
X357776D01*
Y246063D01*
X359449D01*
Y248130D01*
D02*
G37*
G36*
X225787Y248031D02*
X224114D01*
Y245965D01*
X225787D01*
Y248031D01*
D02*
G37*
G36*
X223524D02*
X221850D01*
Y245965D01*
X223524D01*
Y248031D01*
D02*
G37*
G36*
X239370Y248031D02*
X237697D01*
Y245965D01*
X239370D01*
Y248031D01*
D02*
G37*
G36*
X237106D02*
X235433D01*
Y245965D01*
X237106D01*
Y248031D01*
D02*
G37*
G36*
X207776Y249606D02*
X204232D01*
Y245276D01*
X207776D01*
Y246094D01*
X208276Y246118D01*
X208424Y245969D01*
X209148Y245669D01*
X209931D01*
X210654Y245969D01*
X211208Y246523D01*
X211508Y247246D01*
Y248029D01*
X211208Y248753D01*
X210654Y249307D01*
X209931Y249606D01*
X209148D01*
X208424Y249307D01*
X208276Y249158D01*
X207776Y249365D01*
Y249606D01*
D02*
G37*
G36*
X522441Y247539D02*
X520768D01*
Y245473D01*
X522441D01*
Y247539D01*
D02*
G37*
G36*
X520177D02*
X518504D01*
Y245473D01*
X520177D01*
Y247539D01*
D02*
G37*
G36*
X70079Y247539D02*
X68405D01*
Y245472D01*
X70079D01*
Y247539D01*
D02*
G37*
G36*
X67815D02*
X66142D01*
Y245472D01*
X67815D01*
Y247539D01*
D02*
G37*
G36*
X83760Y247441D02*
X82087D01*
Y245374D01*
X83760D01*
Y247441D01*
D02*
G37*
G36*
X81496D02*
X79823D01*
Y245374D01*
X81496D01*
Y247441D01*
D02*
G37*
G36*
X202461Y247146D02*
X200787D01*
Y245079D01*
X202461D01*
Y247146D01*
D02*
G37*
G36*
X200197D02*
X198524D01*
Y245079D01*
X200197D01*
Y247146D01*
D02*
G37*
G36*
X385236Y246555D02*
X383563D01*
Y244488D01*
X385236D01*
Y246555D01*
D02*
G37*
G36*
X382972D02*
X381299D01*
Y244488D01*
X382972D01*
Y246555D01*
D02*
G37*
G36*
X398819Y246358D02*
X397146D01*
Y244291D01*
X398819D01*
Y246358D01*
D02*
G37*
G36*
X396555D02*
X394882D01*
Y244291D01*
X396555D01*
Y246358D01*
D02*
G37*
G36*
X239370Y245374D02*
X237697D01*
Y243307D01*
X239370D01*
Y245374D01*
D02*
G37*
G36*
X237106D02*
X235433D01*
Y243307D01*
X237106D01*
Y245374D01*
D02*
G37*
G36*
X225787Y245374D02*
X224114D01*
Y243307D01*
X225787D01*
Y245374D01*
D02*
G37*
G36*
X223524D02*
X221850D01*
Y243307D01*
X223524D01*
Y245374D01*
D02*
G37*
G36*
X78543Y276063D02*
X67126D01*
Y268583D01*
X78543D01*
Y270249D01*
X81111D01*
X86851Y264509D01*
Y253043D01*
X85983Y252175D01*
X85678Y251719D01*
X85571Y251181D01*
Y249902D01*
X85532D01*
Y245571D01*
X85621D01*
Y242938D01*
X84779D01*
Y238984D01*
X84779Y238804D01*
X84411Y238484D01*
X83285D01*
Y231004D01*
X71127D01*
Y231890D01*
X71457D01*
Y236221D01*
X71090D01*
Y237597D01*
X71354Y237861D01*
X71653Y238585D01*
Y239368D01*
X71354Y240091D01*
X70800Y240645D01*
X70077Y240945D01*
X69293D01*
X68570Y240645D01*
X68016Y240091D01*
X67716Y239368D01*
Y238585D01*
X68016Y237861D01*
X68280Y237597D01*
Y236221D01*
X67913D01*
Y231890D01*
X68317D01*
Y231004D01*
X66159D01*
Y238484D01*
X59270D01*
Y226673D01*
X47360D01*
Y214469D01*
X55333D01*
X59044Y210757D01*
X58914Y210562D01*
X58829Y210137D01*
X58829Y210137D01*
Y203839D01*
X58829Y203839D01*
X58914Y203413D01*
X59155Y203052D01*
X59941Y202266D01*
Y199311D01*
X64075D01*
Y203839D01*
X61513D01*
X61053Y204299D01*
Y209676D01*
X61908Y210531D01*
X71986D01*
Y209282D01*
X71534D01*
Y204951D01*
X74601D01*
X75077Y204951D01*
Y204951D01*
X75101D01*
Y204951D01*
X78644D01*
Y206532D01*
X78702Y206618D01*
X78809Y207156D01*
X78702Y207693D01*
X78644Y207779D01*
Y209282D01*
X75101D01*
X74796Y209656D01*
Y210531D01*
X87103D01*
Y209817D01*
X87103Y209817D01*
X87187Y209391D01*
X87428Y209031D01*
X89439Y207020D01*
Y204398D01*
X88880Y203839D01*
X86319D01*
Y199311D01*
X90453D01*
Y202266D01*
X91076Y202890D01*
X91337Y203064D01*
X91579Y203425D01*
X91663Y203850D01*
Y207480D01*
X91663Y207480D01*
X91579Y207906D01*
X91337Y208267D01*
X91337Y208267D01*
X89573Y210032D01*
X89780Y210531D01*
X90766D01*
X94703Y214469D01*
X102380D01*
Y227067D01*
X91061D01*
X90470Y227657D01*
Y238484D01*
X89674D01*
X89306Y238804D01*
X89306Y238984D01*
Y242938D01*
X88431D01*
Y245571D01*
X89075D01*
Y249902D01*
X88381D01*
Y250599D01*
X89249Y251467D01*
X89554Y251923D01*
X89661Y252461D01*
Y265091D01*
X89554Y265628D01*
X89249Y266084D01*
X85547Y269787D01*
X85738Y270249D01*
X116611D01*
X135768Y251091D01*
Y249862D01*
X129299D01*
Y241083D01*
X145047D01*
Y249862D01*
X138578D01*
Y251673D01*
X138471Y252211D01*
X138167Y252667D01*
X118186Y272647D01*
X117730Y272952D01*
X117193Y273059D01*
X78543D01*
Y276063D01*
D02*
G37*
G36*
X562795D02*
X551378D01*
Y268583D01*
X562795D01*
X563078Y268200D01*
Y266446D01*
X562795Y266063D01*
X562578Y266063D01*
X551378D01*
Y263728D01*
X547756D01*
X547218Y263621D01*
X546762Y263316D01*
X541280Y257834D01*
X539179Y255733D01*
X538874Y255277D01*
X538767Y254739D01*
Y249213D01*
X538386D01*
Y244882D01*
X538767D01*
Y242421D01*
X537269D01*
Y241802D01*
X534768D01*
X534230Y241695D01*
X533775Y241391D01*
X530796Y238412D01*
X516089D01*
X512121Y242380D01*
Y249173D01*
X496373D01*
Y240393D01*
X510134D01*
X514513Y236014D01*
X514969Y235710D01*
X515507Y235602D01*
X531378D01*
X531916Y235710D01*
X532372Y236014D01*
X535350Y238992D01*
X537269D01*
Y238295D01*
X537269Y238287D01*
X537250Y237795D01*
X536776D01*
Y225984D01*
X524867D01*
Y213779D01*
X532839D01*
X536551Y210068D01*
X536421Y209873D01*
X536336Y209448D01*
X536336Y209447D01*
Y203149D01*
X536336Y203149D01*
X536421Y202724D01*
X536662Y202363D01*
X537448Y201577D01*
Y198622D01*
X541582D01*
Y203149D01*
X539020D01*
X538560Y203610D01*
Y208987D01*
X539415Y209842D01*
X549346D01*
Y208593D01*
X549041D01*
Y204262D01*
X552584D01*
Y204262D01*
X552608D01*
Y204262D01*
X556151D01*
Y206267D01*
X556169Y206354D01*
X556151Y206441D01*
Y208593D01*
X552608D01*
X552608Y208593D01*
X552156Y208709D01*
Y209842D01*
X564609D01*
Y209128D01*
X564609Y209128D01*
X564694Y208702D01*
X564935Y208341D01*
X566946Y206330D01*
Y203708D01*
X566387Y203149D01*
X563826D01*
Y198622D01*
X567960D01*
Y201577D01*
X568583Y202200D01*
X568844Y202375D01*
X569085Y202735D01*
X569170Y203161D01*
Y206791D01*
X569170Y206791D01*
X569085Y207216D01*
X568844Y207577D01*
X568844Y207577D01*
X567079Y209342D01*
X567286Y209842D01*
X568273D01*
X572210Y213779D01*
X579887D01*
Y226378D01*
X568568D01*
X567977Y226968D01*
Y237795D01*
X567181D01*
X566813Y238115D01*
X566813Y238295D01*
Y242249D01*
X565938D01*
Y244587D01*
X566240D01*
Y248917D01*
X565888D01*
Y270162D01*
X565959Y270249D01*
X592135D01*
X611882Y250501D01*
Y249272D01*
X605413D01*
Y240492D01*
X621161D01*
Y249272D01*
X614692D01*
Y251083D01*
X614585Y251620D01*
X614281Y252076D01*
X593710Y272647D01*
X593254Y272952D01*
X592717Y273059D01*
X562795D01*
Y276063D01*
D02*
G37*
G36*
X401378D02*
X389961D01*
Y268583D01*
X401378D01*
Y269017D01*
X401940D01*
X402040Y268917D01*
Y252354D01*
X401172Y251486D01*
X400867Y251030D01*
X400760Y250492D01*
Y248819D01*
X400591D01*
Y244488D01*
X400810D01*
Y242249D01*
X399968D01*
Y238295D01*
X399968Y238115D01*
X399600Y237795D01*
X398474D01*
Y230315D01*
X386383D01*
Y231299D01*
X386713D01*
Y235630D01*
X386346D01*
Y237007D01*
X386610Y237271D01*
X386910Y237994D01*
Y238777D01*
X386610Y239501D01*
X386056Y240055D01*
X385332Y240354D01*
X384549D01*
X383826Y240055D01*
X383272Y239501D01*
X382972Y238777D01*
Y237994D01*
X383272Y237271D01*
X383536Y237007D01*
Y235630D01*
X383169D01*
Y231299D01*
X383573D01*
Y230315D01*
X381348D01*
Y237795D01*
X374459D01*
Y227557D01*
X372886Y225984D01*
X362549D01*
Y213779D01*
X370522D01*
X374233Y210068D01*
X374103Y209873D01*
X374018Y209448D01*
X374018Y209448D01*
Y203150D01*
X374018Y203150D01*
X374103Y202724D01*
X374344Y202363D01*
X375130Y201577D01*
Y198622D01*
X379264D01*
Y203150D01*
X376702D01*
X376242Y203610D01*
Y208987D01*
X377097Y209842D01*
X387028D01*
Y208593D01*
X386723D01*
Y204262D01*
X390266D01*
Y204262D01*
X390290D01*
Y204262D01*
X393833D01*
Y206268D01*
X393851Y206355D01*
X393833Y206442D01*
Y208593D01*
X390290D01*
X390290Y208593D01*
X389838Y208709D01*
Y209842D01*
X402292D01*
Y209128D01*
X402292Y209128D01*
X402376Y208702D01*
X402617Y208342D01*
X404628Y206331D01*
Y203709D01*
X404069Y203150D01*
X401508D01*
Y198622D01*
X405642D01*
Y201577D01*
X406265Y202201D01*
X406526Y202375D01*
X406768Y202736D01*
X406852Y203161D01*
Y206791D01*
X406852Y206791D01*
X406768Y207217D01*
X406526Y207578D01*
X406526Y207578D01*
X404762Y209343D01*
X404969Y209842D01*
X405955D01*
X409892Y213779D01*
X417569D01*
Y226378D01*
X406250D01*
X405659Y226968D01*
Y237795D01*
X404863D01*
X404495Y238115D01*
X404495Y238295D01*
Y242249D01*
X403620D01*
Y244488D01*
X404134D01*
Y248819D01*
X403570D01*
Y249910D01*
X404438Y250778D01*
X404743Y251234D01*
X404850Y251772D01*
Y269017D01*
X432343D01*
X450957Y250402D01*
Y249173D01*
X444488D01*
Y240394D01*
X460236D01*
Y249173D01*
X453767D01*
Y250984D01*
X453660Y251522D01*
X453356Y251978D01*
X433918Y271415D01*
X433462Y271720D01*
X432925Y271827D01*
X401378D01*
Y276063D01*
D02*
G37*
G36*
X122803Y242520D02*
X119457D01*
Y239567D01*
X122803D01*
Y242520D01*
D02*
G37*
G36*
X118866D02*
X115520D01*
Y239567D01*
X118866D01*
Y242520D01*
D02*
G37*
G36*
X114378Y242517D02*
X111031D01*
Y239564D01*
X114378D01*
Y242517D01*
D02*
G37*
G36*
X110441D02*
X107095D01*
Y239564D01*
X110441D01*
Y242517D01*
D02*
G37*
G36*
X239961Y276063D02*
X228543D01*
Y268583D01*
X239961D01*
Y270249D01*
X241544D01*
X242689Y269103D01*
Y251263D01*
X241731Y250305D01*
X241426Y249849D01*
X241319Y249311D01*
Y247835D01*
X241142D01*
Y243504D01*
X241369D01*
Y241068D01*
X240527D01*
Y237114D01*
X240527Y236934D01*
X240159Y236614D01*
X239033D01*
Y229134D01*
X226737D01*
Y230020D01*
X227067D01*
Y234350D01*
X226700D01*
Y235727D01*
X226964Y235991D01*
X227264Y236715D01*
Y237498D01*
X226964Y238221D01*
X226410Y238775D01*
X225687Y239075D01*
X224904D01*
X224180Y238775D01*
X223626Y238221D01*
X223327Y237498D01*
Y236715D01*
X223626Y235991D01*
X223890Y235727D01*
Y234350D01*
X223524D01*
Y230020D01*
X223928D01*
Y229134D01*
X221907D01*
Y236614D01*
X215018D01*
Y226039D01*
X213782Y224803D01*
X203108D01*
Y212598D01*
X211081D01*
X214792Y208887D01*
X214662Y208692D01*
X214577Y208267D01*
X214577Y208267D01*
Y201969D01*
X214577Y201969D01*
X214662Y201543D01*
X214903Y201182D01*
X215689Y200396D01*
Y197441D01*
X219823D01*
Y201969D01*
X217262D01*
X216801Y202429D01*
Y207806D01*
X217656Y208661D01*
X227587D01*
Y207412D01*
X227282D01*
Y203081D01*
X230825D01*
Y203081D01*
X230849D01*
Y203081D01*
X234392D01*
Y205087D01*
X234410Y205174D01*
X234392Y205261D01*
Y207412D01*
X230849D01*
X230849Y207412D01*
X230397Y207528D01*
Y208661D01*
X242851D01*
Y207947D01*
X242851Y207947D01*
X242935Y207521D01*
X243176Y207161D01*
X245187Y205150D01*
Y202527D01*
X244628Y201969D01*
X242067D01*
Y197441D01*
X246201D01*
Y200396D01*
X246824Y201020D01*
X247085Y201194D01*
X247326Y201555D01*
X247411Y201980D01*
Y205610D01*
X247411Y205610D01*
X247326Y206036D01*
X247085Y206397D01*
X247085Y206397D01*
X245321Y208161D01*
X245528Y208661D01*
X246514D01*
X250451Y212598D01*
X258128D01*
Y225197D01*
X246218D01*
Y236614D01*
X245422D01*
X245054Y236934D01*
X245054Y237114D01*
Y241068D01*
X244179D01*
Y243504D01*
X244685D01*
Y247835D01*
X244129D01*
Y248729D01*
X245088Y249688D01*
X245392Y250144D01*
X245499Y250681D01*
Y269685D01*
X245487Y269749D01*
X245897Y270249D01*
X273040D01*
X291516Y251772D01*
Y247992D01*
X285047D01*
Y239213D01*
X300795D01*
Y247992D01*
X294326D01*
Y252354D01*
X294219Y252892D01*
X293915Y253348D01*
X274616Y272647D01*
X274160Y272952D01*
X273622Y273059D01*
X239961D01*
Y276063D01*
D02*
G37*
G36*
X437992Y241831D02*
X434646D01*
Y238878D01*
X437992D01*
Y241831D01*
D02*
G37*
G36*
X434055D02*
X430709D01*
Y238878D01*
X434055D01*
Y241831D01*
D02*
G37*
G36*
X600310Y241830D02*
X596964D01*
Y238878D01*
X600310D01*
Y241830D01*
D02*
G37*
G36*
X596373D02*
X593027D01*
Y238878D01*
X596373D01*
Y241830D01*
D02*
G37*
G36*
X429567Y241828D02*
X426220D01*
Y238875D01*
X429567D01*
Y241828D01*
D02*
G37*
G36*
X425630D02*
X422284D01*
Y238875D01*
X425630D01*
Y241828D01*
D02*
G37*
G36*
X591885Y241827D02*
X588538D01*
Y238875D01*
X591885D01*
Y241827D01*
D02*
G37*
G36*
X587948D02*
X584601D01*
Y238875D01*
X587948D01*
Y241827D01*
D02*
G37*
G36*
X278551Y240650D02*
X275205D01*
Y237697D01*
X278551D01*
Y240650D01*
D02*
G37*
G36*
X274614D02*
X271268D01*
Y237697D01*
X274614D01*
Y240650D01*
D02*
G37*
G36*
X270126Y240647D02*
X266779D01*
Y237694D01*
X270126D01*
Y240647D01*
D02*
G37*
G36*
X266189D02*
X262842D01*
Y237694D01*
X266189D01*
Y240647D01*
D02*
G37*
G36*
X122803Y238976D02*
X119457D01*
Y236024D01*
X122803D01*
Y238976D01*
D02*
G37*
G36*
X118866D02*
X115520D01*
Y236024D01*
X118866D01*
Y238976D01*
D02*
G37*
G36*
X114378Y238973D02*
X111031D01*
Y236021D01*
X114378D01*
Y238973D01*
D02*
G37*
G36*
X110441D02*
X107095D01*
Y236021D01*
X110441D01*
Y238973D01*
D02*
G37*
G36*
X437992Y238287D02*
X434646D01*
Y235335D01*
X437992D01*
Y238287D01*
D02*
G37*
G36*
X434055D02*
X430709D01*
Y235335D01*
X434055D01*
Y238287D01*
D02*
G37*
G36*
X600310Y238287D02*
X596964D01*
Y235334D01*
X600310D01*
Y238287D01*
D02*
G37*
G36*
X596373D02*
X593027D01*
Y235334D01*
X596373D01*
Y238287D01*
D02*
G37*
G36*
X429567Y238284D02*
X426220D01*
Y235332D01*
X429567D01*
Y238284D01*
D02*
G37*
G36*
X425630D02*
X422284D01*
Y235332D01*
X425630D01*
Y238284D01*
D02*
G37*
G36*
X591885Y238284D02*
X588538D01*
Y235331D01*
X591885D01*
Y238284D01*
D02*
G37*
G36*
X587948D02*
X584601D01*
Y235331D01*
X587948D01*
Y238284D01*
D02*
G37*
G36*
X77165Y236417D02*
X75492D01*
Y234350D01*
X77165D01*
Y236417D01*
D02*
G37*
G36*
X74902D02*
X73228D01*
Y234350D01*
X74902D01*
Y236417D01*
D02*
G37*
G36*
X278551Y237106D02*
X275205D01*
Y234154D01*
X278551D01*
Y237106D01*
D02*
G37*
G36*
X274614D02*
X271268D01*
Y234154D01*
X274614D01*
Y237106D01*
D02*
G37*
G36*
X270126Y237103D02*
X266779D01*
Y234151D01*
X270126D01*
Y237103D01*
D02*
G37*
G36*
X266189D02*
X262842D01*
Y234151D01*
X266189D01*
Y237103D01*
D02*
G37*
G36*
X392421Y235827D02*
X390748D01*
Y233760D01*
X392421D01*
Y235827D01*
D02*
G37*
G36*
X390158D02*
X388484D01*
Y233760D01*
X390158D01*
Y235827D01*
D02*
G37*
G36*
X232776Y234547D02*
X231102D01*
Y232480D01*
X232776D01*
Y234547D01*
D02*
G37*
G36*
X230512D02*
X228839D01*
Y232480D01*
X230512D01*
Y234547D01*
D02*
G37*
G36*
X77165Y233760D02*
X75492D01*
Y231693D01*
X77165D01*
Y233760D01*
D02*
G37*
G36*
X74902D02*
X73228D01*
Y231693D01*
X74902D01*
Y233760D01*
D02*
G37*
G36*
X345839Y233256D02*
X344166D01*
Y231189D01*
X345839D01*
Y233256D01*
D02*
G37*
G36*
X343575D02*
X341902D01*
Y231189D01*
X343575D01*
Y233256D01*
D02*
G37*
G36*
X508157Y233255D02*
X506484D01*
Y231189D01*
X508157D01*
Y233255D01*
D02*
G37*
G36*
X505893D02*
X504220D01*
Y231189D01*
X505893D01*
Y233255D01*
D02*
G37*
G36*
X392421Y233169D02*
X390748D01*
Y231102D01*
X392421D01*
Y233169D01*
D02*
G37*
G36*
X390158D02*
X388484D01*
Y231102D01*
X390158D01*
Y233169D01*
D02*
G37*
G36*
X186398Y232075D02*
X184725D01*
Y230008D01*
X186398D01*
Y232075D01*
D02*
G37*
G36*
X184134D02*
X182461D01*
Y230008D01*
X184134D01*
Y232075D01*
D02*
G37*
G36*
X232776Y231890D02*
X231102D01*
Y229823D01*
X232776D01*
Y231890D01*
D02*
G37*
G36*
X230512D02*
X228839D01*
Y229823D01*
X230512D01*
Y231890D01*
D02*
G37*
G36*
X345839Y230598D02*
X344166D01*
Y228531D01*
X345839D01*
Y230598D01*
D02*
G37*
G36*
X343575D02*
X341902D01*
Y228531D01*
X343575D01*
Y230598D01*
D02*
G37*
G36*
X508157Y230598D02*
X506484D01*
Y228531D01*
X508157D01*
Y230598D01*
D02*
G37*
G36*
X505893D02*
X504220D01*
Y228531D01*
X505893D01*
Y230598D01*
D02*
G37*
G36*
X186398Y229417D02*
X184725D01*
Y227350D01*
X186398D01*
Y229417D01*
D02*
G37*
G36*
X184134D02*
X182461D01*
Y227350D01*
X184134D01*
Y229417D01*
D02*
G37*
G36*
X345839Y227350D02*
X344166D01*
Y225283D01*
X345839D01*
Y227350D01*
D02*
G37*
G36*
X343575D02*
X341902D01*
Y225283D01*
X343575D01*
Y227350D01*
D02*
G37*
G36*
X508157Y227350D02*
X506484D01*
Y225283D01*
X508157D01*
Y227350D01*
D02*
G37*
G36*
X505893D02*
X504220D01*
Y225283D01*
X505893D01*
Y227350D01*
D02*
G37*
G36*
X186398Y226169D02*
X184725D01*
Y224102D01*
X186398D01*
Y226169D01*
D02*
G37*
G36*
X184134D02*
X182461D01*
Y224102D01*
X184134D01*
Y226169D01*
D02*
G37*
G36*
X345839Y224693D02*
X344166D01*
Y222626D01*
X345839D01*
Y224693D01*
D02*
G37*
G36*
X343575D02*
X341902D01*
Y222626D01*
X343575D01*
Y224693D01*
D02*
G37*
G36*
X508157Y224692D02*
X506484D01*
Y222625D01*
X508157D01*
Y224692D01*
D02*
G37*
G36*
X505893D02*
X504220D01*
Y222625D01*
X505893D01*
Y224692D01*
D02*
G37*
G36*
X186398Y223512D02*
X184725D01*
Y221445D01*
X186398D01*
Y223512D01*
D02*
G37*
G36*
X184134D02*
X182461D01*
Y221445D01*
X184134D01*
Y223512D01*
D02*
G37*
G36*
X138650Y225157D02*
X130874D01*
Y220866D01*
X138650D01*
Y225157D01*
D02*
G37*
G36*
X130283D02*
X122508D01*
Y220866D01*
X130283D01*
Y225157D01*
D02*
G37*
G36*
X453839Y224468D02*
X446063D01*
Y220177D01*
X453839D01*
Y224468D01*
D02*
G37*
G36*
X445472D02*
X437697D01*
Y220177D01*
X445472D01*
Y224468D01*
D02*
G37*
G36*
X345667Y221525D02*
X343994D01*
Y219458D01*
X345667D01*
Y221525D01*
D02*
G37*
G36*
X343403D02*
X341730D01*
Y219458D01*
X343403D01*
Y221525D01*
D02*
G37*
G36*
X507985Y221525D02*
X506312D01*
Y219458D01*
X507985D01*
Y221525D01*
D02*
G37*
G36*
X505721D02*
X504048D01*
Y219458D01*
X505721D01*
Y221525D01*
D02*
G37*
G36*
X294398Y223287D02*
X286622D01*
Y218996D01*
X294398D01*
Y223287D01*
D02*
G37*
G36*
X286032D02*
X278256D01*
Y218996D01*
X286032D01*
Y223287D01*
D02*
G37*
G36*
X186226Y220344D02*
X184553D01*
Y218277D01*
X186226D01*
Y220344D01*
D02*
G37*
G36*
X183962D02*
X182289D01*
Y218277D01*
X183962D01*
Y220344D01*
D02*
G37*
G36*
X345667Y218868D02*
X343994D01*
Y216801D01*
X345667D01*
Y218868D01*
D02*
G37*
G36*
X343403D02*
X341730D01*
Y216801D01*
X343403D01*
Y218868D01*
D02*
G37*
G36*
X507985Y218867D02*
X506312D01*
Y216800D01*
X507985D01*
Y218867D01*
D02*
G37*
G36*
X505721D02*
X504048D01*
Y216800D01*
X505721D01*
Y218867D01*
D02*
G37*
G36*
X138650Y220276D02*
X130874D01*
Y215984D01*
X138650D01*
Y220276D01*
D02*
G37*
G36*
X130283D02*
X122508D01*
Y215984D01*
X130283D01*
Y220276D01*
D02*
G37*
G36*
X186226Y217687D02*
X184553D01*
Y215620D01*
X186226D01*
Y217687D01*
D02*
G37*
G36*
X183962D02*
X182289D01*
Y215620D01*
X183962D01*
Y217687D01*
D02*
G37*
G36*
X453839Y219587D02*
X446063D01*
Y215295D01*
X453839D01*
Y219587D01*
D02*
G37*
G36*
X445472D02*
X437697D01*
Y215295D01*
X445472D01*
Y219587D01*
D02*
G37*
G36*
X294398Y218406D02*
X286622D01*
Y214114D01*
X294398D01*
Y218406D01*
D02*
G37*
G36*
X286032D02*
X278256D01*
Y214114D01*
X286032D01*
Y218406D01*
D02*
G37*
G36*
X351154Y233059D02*
X347611D01*
Y228728D01*
X347984D01*
Y227153D01*
X347611D01*
Y222823D01*
X347898D01*
Y221328D01*
X347439D01*
Y216998D01*
X347714D01*
X347769Y216497D01*
X347540Y216269D01*
X347240Y215545D01*
Y214762D01*
X347540Y214038D01*
X348094Y213485D01*
X348817Y213185D01*
X349600D01*
X350324Y213485D01*
X350877Y214038D01*
X351177Y214762D01*
Y215545D01*
X350877Y216269D01*
X350649Y216497D01*
X350693Y216998D01*
X350982D01*
Y221328D01*
X350708D01*
Y222823D01*
X351154D01*
Y227153D01*
X350794D01*
Y228728D01*
X351154D01*
Y233059D01*
D02*
G37*
G36*
X513472Y233059D02*
X509929D01*
Y228728D01*
X510302D01*
Y227153D01*
X509929D01*
Y222822D01*
X510216D01*
Y221328D01*
X509756D01*
Y216997D01*
X510032D01*
X510087Y216497D01*
X509858Y216268D01*
X509558Y215545D01*
Y214762D01*
X509858Y214038D01*
X510412Y213484D01*
X511135Y213185D01*
X511918D01*
X512642Y213484D01*
X513195Y214038D01*
X513495Y214762D01*
Y215545D01*
X513195Y216268D01*
X512966Y216497D01*
X513010Y216997D01*
X513300D01*
Y221328D01*
X513026D01*
Y222822D01*
X513472D01*
Y227153D01*
X513112D01*
Y228728D01*
X513472D01*
Y233059D01*
D02*
G37*
G36*
X191713Y231878D02*
X188170D01*
Y227547D01*
X188637D01*
Y225972D01*
X188170D01*
Y221642D01*
X188551D01*
Y220147D01*
X187998D01*
Y215816D01*
X188358D01*
X188418Y215316D01*
X188193Y215091D01*
X187894Y214368D01*
Y213585D01*
X188193Y212861D01*
X188747Y212308D01*
X189471Y212008D01*
X190254D01*
X190977Y212308D01*
X191531Y212861D01*
X191831Y213585D01*
Y214368D01*
X191531Y215091D01*
X191306Y215316D01*
X191356Y215816D01*
X191541D01*
Y220147D01*
X191361D01*
Y221642D01*
X191713D01*
Y225972D01*
X191447D01*
Y227547D01*
X191713D01*
Y231878D01*
D02*
G37*
G36*
X616879Y225984D02*
X615405D01*
X613960Y225697D01*
X612599Y225133D01*
X611373Y224314D01*
X610331Y223272D01*
X609513Y222047D01*
X608949Y220686D01*
X608661Y219241D01*
Y217767D01*
X608949Y216322D01*
X609513Y214961D01*
X610331Y213736D01*
X611373Y212694D01*
X612599Y211875D01*
X613960Y211311D01*
X615405Y211024D01*
X616879D01*
X618324Y211311D01*
X619685Y211875D01*
X620910Y212694D01*
X621952Y213736D01*
X622771Y214961D01*
X623335Y216322D01*
X623622Y217767D01*
Y219241D01*
X623335Y220686D01*
X622771Y222047D01*
X621952Y223272D01*
X620910Y224314D01*
X619685Y225133D01*
X618324Y225697D01*
X616879Y225984D01*
D02*
G37*
G36*
X14516Y225984D02*
X13043D01*
X11598Y225697D01*
X10236Y225133D01*
X9011Y224314D01*
X7969Y223272D01*
X7151Y222047D01*
X6587Y220686D01*
X6299Y219241D01*
Y217767D01*
X6587Y216322D01*
X7151Y214961D01*
X7969Y213736D01*
X9011Y212694D01*
X10236Y211875D01*
X11598Y211311D01*
X13043Y211024D01*
X14516D01*
X15961Y211311D01*
X17323Y211875D01*
X18548Y212694D01*
X19590Y213736D01*
X20409Y214961D01*
X20972Y216322D01*
X21260Y217767D01*
Y219241D01*
X20972Y220686D01*
X20409Y222047D01*
X19590Y223272D01*
X18548Y224314D01*
X17323Y225133D01*
X15961Y225697D01*
X14516Y225984D01*
D02*
G37*
G36*
X69762Y209479D02*
X68089D01*
Y207412D01*
X69762D01*
Y209479D01*
D02*
G37*
G36*
X84353D02*
X82680D01*
Y207412D01*
X84353D01*
Y209479D01*
D02*
G37*
G36*
X82089D02*
X80416D01*
Y207412D01*
X82089D01*
Y209479D01*
D02*
G37*
G36*
X67498D02*
X65825D01*
Y207412D01*
X67498D01*
Y209479D01*
D02*
G37*
G36*
X28091Y209437D02*
X26418D01*
Y207370D01*
X28091D01*
Y209437D01*
D02*
G37*
G36*
X25827D02*
X24154D01*
Y207370D01*
X25827D01*
Y209437D01*
D02*
G37*
G36*
X399542Y208790D02*
X397869D01*
Y206723D01*
X399542D01*
Y208790D01*
D02*
G37*
G36*
X397278D02*
X395605D01*
Y206723D01*
X397278D01*
Y208790D01*
D02*
G37*
G36*
X384951D02*
X383278D01*
Y206723D01*
X384951D01*
Y208790D01*
D02*
G37*
G36*
X382687D02*
X381014D01*
Y206723D01*
X382687D01*
Y208790D01*
D02*
G37*
G36*
X561860Y208789D02*
X560187D01*
Y206722D01*
X561860D01*
Y208789D01*
D02*
G37*
G36*
X559596D02*
X557923D01*
Y206722D01*
X559596D01*
Y208789D01*
D02*
G37*
G36*
X547269D02*
X545596D01*
Y206722D01*
X547269D01*
Y208789D01*
D02*
G37*
G36*
X545005D02*
X543332D01*
Y206722D01*
X545005D01*
Y208789D01*
D02*
G37*
G36*
X607382Y210000D02*
X599606D01*
Y205709D01*
X607382D01*
Y210000D01*
D02*
G37*
G36*
X599016D02*
X591240D01*
Y205709D01*
X599016D01*
Y210000D01*
D02*
G37*
G36*
X225510Y207609D02*
X223837D01*
Y205542D01*
X225510D01*
Y207609D01*
D02*
G37*
G36*
X240101D02*
X238428D01*
Y205542D01*
X240101D01*
Y207609D01*
D02*
G37*
G36*
X237837D02*
X236164D01*
Y205542D01*
X237837D01*
Y207609D01*
D02*
G37*
G36*
X223246D02*
X221573D01*
Y205542D01*
X223246D01*
Y207609D01*
D02*
G37*
G36*
X84353Y206821D02*
X82680D01*
Y204754D01*
X84353D01*
Y206821D01*
D02*
G37*
G36*
X82089D02*
X80416D01*
Y204754D01*
X82089D01*
Y206821D01*
D02*
G37*
G36*
X69762D02*
X68089D01*
Y204754D01*
X69762D01*
Y206821D01*
D02*
G37*
G36*
X67498D02*
X65825D01*
Y204754D01*
X67498D01*
Y206821D01*
D02*
G37*
G36*
X28091Y206779D02*
X26418D01*
Y204713D01*
X28091D01*
Y206779D01*
D02*
G37*
G36*
X25827D02*
X24154D01*
Y204713D01*
X25827D01*
Y206779D01*
D02*
G37*
G36*
X399542Y206132D02*
X397869D01*
Y204065D01*
X399542D01*
Y206132D01*
D02*
G37*
G36*
X397278D02*
X395605D01*
Y204065D01*
X397278D01*
Y206132D01*
D02*
G37*
G36*
X384951Y206132D02*
X383278D01*
Y204065D01*
X384951D01*
Y206132D01*
D02*
G37*
G36*
X382687D02*
X381014D01*
Y204065D01*
X382687D01*
Y206132D01*
D02*
G37*
G36*
X561860Y206132D02*
X560187D01*
Y204065D01*
X561860D01*
Y206132D01*
D02*
G37*
G36*
X559596D02*
X557923D01*
Y204065D01*
X559596D01*
Y206132D01*
D02*
G37*
G36*
X547269Y206132D02*
X545596D01*
Y204065D01*
X547269D01*
Y206132D01*
D02*
G37*
G36*
X545005D02*
X543332D01*
Y204065D01*
X545005D01*
Y206132D01*
D02*
G37*
G36*
X240101Y204951D02*
X238428D01*
Y202884D01*
X240101D01*
Y204951D01*
D02*
G37*
G36*
X237837D02*
X236164D01*
Y202884D01*
X237837D01*
Y204951D01*
D02*
G37*
G36*
X225510D02*
X223837D01*
Y202884D01*
X225510D01*
Y204951D01*
D02*
G37*
G36*
X223246D02*
X221573D01*
Y202884D01*
X223246D01*
Y204951D01*
D02*
G37*
G36*
X85335Y203839D02*
X81201D01*
Y202377D01*
X79907D01*
Y202791D01*
X79840Y203124D01*
X79652Y203407D01*
X79369Y203596D01*
X79035Y203662D01*
X77162D01*
X76829Y203596D01*
X76546Y203407D01*
X76357Y203124D01*
X76291Y202791D01*
Y200249D01*
X76357Y199915D01*
X76546Y199632D01*
X76829Y199443D01*
X77162Y199377D01*
X77242D01*
Y197441D01*
X76181D01*
Y193110D01*
X78224D01*
Y191635D01*
X76375D01*
Y184356D01*
X76350D01*
X76022Y184291D01*
X75744Y184105D01*
X75639Y184000D01*
X75308Y183869D01*
X74976Y184000D01*
X74871Y184105D01*
X74593Y184291D01*
X74265Y184356D01*
X74240D01*
Y191635D01*
X73684D01*
X73298Y192119D01*
Y193110D01*
X74213D01*
Y197441D01*
X72893D01*
Y199377D01*
X72972D01*
X73306Y199443D01*
X73589Y199632D01*
X73778Y199915D01*
X73844Y200249D01*
Y202791D01*
X73778Y203124D01*
X73589Y203407D01*
X73306Y203596D01*
X72972Y203662D01*
X71099D01*
X70766Y203596D01*
X70483Y203407D01*
X70294Y203124D01*
X70228Y202791D01*
Y202377D01*
X69193D01*
Y203839D01*
X65059D01*
Y199311D01*
X69193D01*
Y200663D01*
X70228D01*
Y200249D01*
X70294Y199915D01*
X70483Y199632D01*
X70766Y199443D01*
X71099Y199377D01*
X71179D01*
Y197441D01*
X70669D01*
Y193110D01*
X71584D01*
Y192474D01*
X70745Y191635D01*
X58492D01*
Y182855D01*
X69563D01*
X69784Y182707D01*
X70113Y182642D01*
X73700D01*
Y176524D01*
X73700Y176524D01*
Y168670D01*
X73766Y168342D01*
X73952Y168064D01*
X89791Y152225D01*
X90069Y152039D01*
X90397Y151974D01*
X539575D01*
X569615Y121933D01*
X569893Y121748D01*
X570221Y121682D01*
X582418D01*
X582554Y121172D01*
X583021Y120364D01*
X583681Y119704D01*
X584489Y119238D01*
X585390Y118996D01*
X586323D01*
X587224Y119238D01*
X588032Y119704D01*
X588692Y120364D01*
X589158Y121172D01*
X589400Y122073D01*
Y123006D01*
X589158Y123907D01*
X588692Y124715D01*
X588032Y125375D01*
X587224Y125841D01*
X586323Y126083D01*
X585390D01*
X584489Y125841D01*
X583681Y125375D01*
X583021Y124715D01*
X582554Y123907D01*
X582418Y123396D01*
X576534D01*
X576259Y123896D01*
X576323Y123996D01*
X577224Y124238D01*
X578032Y124704D01*
X578692Y125364D01*
X579158Y126172D01*
X579400Y127073D01*
Y128006D01*
X579158Y128907D01*
X578692Y129715D01*
X578193Y130214D01*
X578400Y130714D01*
X581726D01*
X582054Y130779D01*
X582162Y130851D01*
X582663Y130803D01*
X582808Y130733D01*
X583021Y130364D01*
X583681Y129704D01*
X584489Y129238D01*
X585390Y128996D01*
X586323D01*
X587224Y129238D01*
X588032Y129704D01*
X588692Y130364D01*
X589158Y131172D01*
X589400Y132073D01*
Y133006D01*
X589158Y133907D01*
X588692Y134715D01*
X588032Y135375D01*
X587515Y135673D01*
X587602Y136200D01*
X587741Y136228D01*
X588019Y136414D01*
X591157Y139551D01*
X591343Y139830D01*
X591408Y140157D01*
Y144488D01*
X591343Y144816D01*
X591157Y145094D01*
X588106Y148145D01*
X587828Y148331D01*
X587500Y148396D01*
X579295D01*
X579158Y148907D01*
X578692Y149715D01*
X578032Y150375D01*
X577910Y150445D01*
X578044Y150945D01*
X579715D01*
X580043Y151010D01*
X580321Y151196D01*
X580807Y151682D01*
X582418D01*
X582554Y151172D01*
X583021Y150364D01*
X583681Y149704D01*
X584489Y149238D01*
X585390Y148996D01*
X586323D01*
X587224Y149238D01*
X588032Y149704D01*
X588692Y150364D01*
X589158Y151172D01*
X589400Y152073D01*
Y153006D01*
X589158Y153907D01*
X588692Y154715D01*
X588032Y155375D01*
X587224Y155841D01*
X586323Y156083D01*
X585390D01*
X584489Y155841D01*
X583681Y155375D01*
X583021Y154715D01*
X582554Y153907D01*
X582418Y153396D01*
X580714D01*
X580392Y153532D01*
X580244Y153865D01*
Y154009D01*
X580178Y154337D01*
X579993Y154615D01*
X578894Y155714D01*
X579158Y156172D01*
X579400Y157073D01*
Y158006D01*
X579158Y158907D01*
X578692Y159715D01*
X578032Y160375D01*
X577224Y160841D01*
X576323Y161083D01*
X575390D01*
X574489Y160841D01*
X573681Y160375D01*
X573021Y159715D01*
X572554Y158907D01*
X572313Y158006D01*
Y157073D01*
X572554Y156172D01*
X573021Y155364D01*
X573681Y154704D01*
X573759Y154659D01*
X573625Y154159D01*
X566104D01*
X554421Y165841D01*
Y181953D01*
X558009D01*
X558337Y182018D01*
X558559Y182166D01*
X569629D01*
Y190945D01*
X557445D01*
Y193458D01*
X557379Y193786D01*
X557231Y194008D01*
Y196752D01*
X556463D01*
Y198688D01*
X556542D01*
X556876Y198754D01*
X557159Y198943D01*
X557347Y199226D01*
X557414Y199559D01*
Y199973D01*
X558708D01*
Y198622D01*
X562842D01*
Y203149D01*
X558708D01*
Y201687D01*
X557414D01*
Y202101D01*
X557347Y202435D01*
X557159Y202718D01*
X556876Y202907D01*
X556542Y202973D01*
X554669D01*
X554336Y202907D01*
X554053Y202718D01*
X553864Y202435D01*
X553798Y202101D01*
Y199559D01*
X553864Y199226D01*
X554053Y198943D01*
X554336Y198754D01*
X554669Y198688D01*
X554749D01*
Y196752D01*
X553688D01*
Y192421D01*
X555731D01*
Y190945D01*
X553882D01*
Y183667D01*
X553857D01*
X553529Y183601D01*
X553251Y183416D01*
X553146Y183311D01*
X552814Y183180D01*
X552483Y183311D01*
X552378Y183416D01*
X552100Y183601D01*
X551771Y183667D01*
X551747D01*
Y190945D01*
X551191D01*
X550805Y191430D01*
Y192421D01*
X551720D01*
Y196752D01*
X550400D01*
Y198688D01*
X550479D01*
X550813Y198754D01*
X551095Y198943D01*
X551284Y199226D01*
X551351Y199559D01*
Y202101D01*
X551284Y202435D01*
X551095Y202718D01*
X550813Y202907D01*
X550479Y202973D01*
X548606D01*
X548273Y202907D01*
X547990Y202718D01*
X547801Y202435D01*
X547735Y202101D01*
Y201687D01*
X546700D01*
Y203149D01*
X542566D01*
Y198622D01*
X546700D01*
Y199973D01*
X547735D01*
Y199559D01*
X547801Y199226D01*
X547990Y198943D01*
X548273Y198754D01*
X548606Y198688D01*
X548686D01*
Y196752D01*
X548176D01*
Y192421D01*
X549091D01*
Y191785D01*
X548251Y190945D01*
X535999D01*
Y182166D01*
X547070D01*
X547291Y182018D01*
X547619Y181953D01*
X551207D01*
Y164865D01*
X551273Y164537D01*
X551458Y164259D01*
X564521Y151196D01*
X564799Y151010D01*
X565127Y150945D01*
X573668D01*
X573802Y150445D01*
X573681Y150375D01*
X573021Y149715D01*
X572554Y148907D01*
X572313Y148006D01*
Y147073D01*
X572554Y146172D01*
X573021Y145364D01*
X573681Y144704D01*
X574322Y144334D01*
X574188Y143834D01*
X568161D01*
X549652Y162342D01*
X549374Y162528D01*
X549047Y162593D01*
X411968D01*
X393070Y181491D01*
X393262Y181953D01*
X395692D01*
X396020Y182018D01*
X396241Y182166D01*
X407312D01*
Y190946D01*
X396260D01*
X395169Y192037D01*
X394913Y192421D01*
X394913D01*
X394913Y192421D01*
Y196752D01*
X394145D01*
Y198688D01*
X394224D01*
X394558Y198754D01*
X394841Y198943D01*
X395029Y199226D01*
X395096Y199560D01*
Y199974D01*
X396390D01*
Y198622D01*
X400524D01*
Y203150D01*
X396390D01*
Y201688D01*
X395096D01*
Y202102D01*
X395029Y202435D01*
X394841Y202718D01*
X394558Y202907D01*
X394224Y202974D01*
X392351D01*
X392018Y202907D01*
X391735Y202718D01*
X391546Y202435D01*
X391480Y202102D01*
Y199560D01*
X391546Y199226D01*
X391735Y198943D01*
X392018Y198754D01*
X392351Y198688D01*
X392431D01*
Y196752D01*
X391370D01*
Y192421D01*
X392779D01*
Y192358D01*
X392844Y192030D01*
X393030Y191752D01*
X393374Y191408D01*
X393183Y190946D01*
X391564D01*
Y183667D01*
X391539D01*
X391212Y183602D01*
X390933Y183416D01*
X390828Y183311D01*
X390496Y183180D01*
X390165Y183311D01*
X390060Y183416D01*
X389782Y183602D01*
X389454Y183667D01*
X389429D01*
Y190946D01*
X388873D01*
X388487Y191430D01*
Y192421D01*
X389402D01*
Y196752D01*
X388082D01*
Y198688D01*
X388161D01*
X388495Y198754D01*
X388778Y198943D01*
X388966Y199226D01*
X389033Y199560D01*
Y202102D01*
X388966Y202435D01*
X388778Y202718D01*
X388495Y202907D01*
X388161Y202974D01*
X386288D01*
X385955Y202907D01*
X385672Y202718D01*
X385483Y202435D01*
X385417Y202102D01*
Y201688D01*
X384382D01*
Y203150D01*
X380248D01*
Y198622D01*
X384382D01*
Y199974D01*
X385417D01*
Y199560D01*
X385483Y199226D01*
X385672Y198943D01*
X385955Y198754D01*
X386288Y198688D01*
X386368D01*
Y196752D01*
X385858D01*
Y192421D01*
X386773D01*
Y191785D01*
X385934Y190946D01*
X373681D01*
Y182166D01*
X384752D01*
X384974Y182018D01*
X385301Y181953D01*
X388890D01*
Y181482D01*
X388955Y181154D01*
X389141Y180876D01*
X410386Y159630D01*
X410506Y159550D01*
X410515Y159508D01*
X410354Y159050D01*
X254889D01*
X233629Y180310D01*
X233821Y180772D01*
X236251D01*
X236579Y180837D01*
X236800Y180985D01*
X247871D01*
Y189765D01*
X236819D01*
X235728Y190856D01*
X235472Y191240D01*
X235472D01*
X235472Y191240D01*
Y195571D01*
X234704D01*
Y197507D01*
X234783D01*
X235117Y197573D01*
X235400Y197762D01*
X235589Y198045D01*
X235655Y198379D01*
Y198793D01*
X236949D01*
Y197441D01*
X241083D01*
Y201969D01*
X236949D01*
Y200507D01*
X235655D01*
Y200921D01*
X235589Y201254D01*
X235400Y201537D01*
X235117Y201726D01*
X234783Y201792D01*
X232910D01*
X232577Y201726D01*
X232294Y201537D01*
X232105Y201254D01*
X232039Y200921D01*
Y198379D01*
X232105Y198045D01*
X232294Y197762D01*
X232577Y197573D01*
X232910Y197507D01*
X232990D01*
Y195571D01*
X231929D01*
Y191240D01*
X233338D01*
Y191177D01*
X233403Y190849D01*
X233589Y190571D01*
X233933Y190227D01*
X233742Y189765D01*
X232123D01*
Y182486D01*
X232099D01*
X231770Y182421D01*
X231492Y182235D01*
X231387Y182130D01*
X231055Y181999D01*
X230724Y182130D01*
X230619Y182235D01*
X230341Y182421D01*
X230013Y182486D01*
X229989D01*
Y189765D01*
X229432D01*
X229046Y190249D01*
Y191240D01*
X229961D01*
Y195571D01*
X228641D01*
Y197507D01*
X228720D01*
X229054Y197573D01*
X229337Y197762D01*
X229526Y198045D01*
X229592Y198379D01*
Y200921D01*
X229526Y201254D01*
X229337Y201537D01*
X229054Y201726D01*
X228720Y201792D01*
X226847D01*
X226514Y201726D01*
X226231Y201537D01*
X226042Y201254D01*
X225976Y200921D01*
Y200507D01*
X224941D01*
Y201969D01*
X220807D01*
Y197441D01*
X224941D01*
Y198793D01*
X225976D01*
Y198379D01*
X226042Y198045D01*
X226231Y197762D01*
X226514Y197573D01*
X226847Y197507D01*
X226927D01*
Y195571D01*
X226417D01*
Y191240D01*
X227332D01*
Y190604D01*
X226493Y189765D01*
X214240D01*
Y180985D01*
X225311D01*
X225533Y180837D01*
X225861Y180772D01*
X229449D01*
Y180300D01*
X229514Y179973D01*
X229699Y179695D01*
X253307Y156087D01*
X253585Y155901D01*
X253913Y155836D01*
X543814D01*
X568685Y130965D01*
X568963Y130779D01*
X569291Y130714D01*
X573313D01*
X573520Y130214D01*
X573021Y129715D01*
X572554Y128907D01*
X572313Y128006D01*
Y127073D01*
X572554Y126172D01*
X573002Y125396D01*
X572933Y125134D01*
X572835Y124896D01*
X571198D01*
X541157Y154937D01*
X540879Y155122D01*
X540551Y155188D01*
X91373D01*
X76915Y169646D01*
Y177145D01*
X76915Y177145D01*
Y182642D01*
X80503D01*
X80831Y182707D01*
X81052Y182855D01*
X92123D01*
Y191635D01*
X79938D01*
Y194148D01*
X79873Y194476D01*
X79724Y194697D01*
Y197441D01*
X78956D01*
Y199377D01*
X79035D01*
X79369Y199443D01*
X79652Y199632D01*
X79840Y199915D01*
X79907Y200249D01*
Y200663D01*
X81201D01*
Y199311D01*
X85335D01*
Y203839D01*
D02*
G37*
G36*
X28091Y203531D02*
X26418D01*
Y201465D01*
X28091D01*
Y203531D01*
D02*
G37*
G36*
X25827D02*
X24154D01*
Y201465D01*
X25827D01*
Y203531D01*
D02*
G37*
G36*
X607382Y205118D02*
X599606D01*
Y200827D01*
X607382D01*
Y205118D01*
D02*
G37*
G36*
X599016D02*
X591240D01*
Y200827D01*
X599016D01*
Y205118D01*
D02*
G37*
G36*
X28091Y200874D02*
X26418D01*
Y198807D01*
X28091D01*
Y200874D01*
D02*
G37*
G36*
X25827D02*
X24154D01*
Y198807D01*
X25827D01*
Y200874D01*
D02*
G37*
G36*
X27919Y197706D02*
X26246D01*
Y195639D01*
X27919D01*
Y197706D01*
D02*
G37*
G36*
X25655D02*
X23982D01*
Y195639D01*
X25655D01*
Y197706D01*
D02*
G37*
G36*
X85433Y197638D02*
X83760D01*
Y195571D01*
X85433D01*
Y197638D01*
D02*
G37*
G36*
X68898D02*
X67224D01*
Y195571D01*
X68898D01*
Y197638D01*
D02*
G37*
G36*
X83169D02*
X81496D01*
Y195571D01*
X83169D01*
Y197638D01*
D02*
G37*
G36*
X66634D02*
X64961D01*
Y195571D01*
X66634D01*
Y197638D01*
D02*
G37*
G36*
X400622Y196949D02*
X398949D01*
Y194882D01*
X400622D01*
Y196949D01*
D02*
G37*
G36*
X398358D02*
X396685D01*
Y194882D01*
X398358D01*
Y196949D01*
D02*
G37*
G36*
X384087D02*
X382413D01*
Y194882D01*
X384087D01*
Y196949D01*
D02*
G37*
G36*
X381823D02*
X380150D01*
Y194882D01*
X381823D01*
Y196949D01*
D02*
G37*
G36*
X546405Y196948D02*
X544731D01*
Y194881D01*
X546405D01*
Y196948D01*
D02*
G37*
G36*
X544141D02*
X542467D01*
Y194881D01*
X544141D01*
Y196948D01*
D02*
G37*
G36*
X562940D02*
X561267D01*
Y194881D01*
X562940D01*
Y196948D01*
D02*
G37*
G36*
X560676D02*
X559003D01*
Y194881D01*
X560676D01*
Y196948D01*
D02*
G37*
G36*
X224646Y195768D02*
X222972D01*
Y193701D01*
X224646D01*
Y195768D01*
D02*
G37*
G36*
X222382D02*
X220709D01*
Y193701D01*
X222382D01*
Y195768D01*
D02*
G37*
G36*
X241181D02*
X239508D01*
Y193701D01*
X241181D01*
Y195768D01*
D02*
G37*
G36*
X238917D02*
X237244D01*
Y193701D01*
X238917D01*
Y195768D01*
D02*
G37*
G36*
X27919Y195049D02*
X26246D01*
Y192982D01*
X27919D01*
Y195049D01*
D02*
G37*
G36*
X25655D02*
X23982D01*
Y192982D01*
X25655D01*
Y195049D01*
D02*
G37*
G36*
X85433Y194980D02*
X83760D01*
Y192913D01*
X85433D01*
Y194980D01*
D02*
G37*
G36*
X83169D02*
X81496D01*
Y192913D01*
X83169D01*
Y194980D01*
D02*
G37*
G36*
X68898D02*
X67224D01*
Y192913D01*
X68898D01*
Y194980D01*
D02*
G37*
G36*
X66634D02*
X64961D01*
Y192913D01*
X66634D01*
Y194980D01*
D02*
G37*
G36*
X400622Y194291D02*
X398949D01*
Y192224D01*
X400622D01*
Y194291D01*
D02*
G37*
G36*
X398358D02*
X396685D01*
Y192224D01*
X398358D01*
Y194291D01*
D02*
G37*
G36*
X384087Y194291D02*
X382413D01*
Y192224D01*
X384087D01*
Y194291D01*
D02*
G37*
G36*
X381823D02*
X380150D01*
Y192224D01*
X381823D01*
Y194291D01*
D02*
G37*
G36*
X562940Y194291D02*
X561267D01*
Y192224D01*
X562940D01*
Y194291D01*
D02*
G37*
G36*
X560676D02*
X559003D01*
Y192224D01*
X560676D01*
Y194291D01*
D02*
G37*
G36*
X546405Y194291D02*
X544731D01*
Y192224D01*
X546405D01*
Y194291D01*
D02*
G37*
G36*
X544141D02*
X542467D01*
Y192224D01*
X544141D01*
Y194291D01*
D02*
G37*
G36*
X241181Y193110D02*
X239508D01*
Y191043D01*
X241181D01*
Y193110D01*
D02*
G37*
G36*
X238917D02*
X237244D01*
Y191043D01*
X238917D01*
Y193110D01*
D02*
G37*
G36*
X224646Y193110D02*
X222972D01*
Y191043D01*
X224646D01*
Y193110D01*
D02*
G37*
G36*
X222382D02*
X220709D01*
Y191043D01*
X222382D01*
Y193110D01*
D02*
G37*
G36*
X33406Y209240D02*
X29863D01*
Y204909D01*
X30209D01*
Y203334D01*
X29863D01*
Y199004D01*
X30209D01*
Y197509D01*
X29691D01*
Y193179D01*
X30209D01*
Y192639D01*
X29926Y192355D01*
X29626Y191632D01*
Y190849D01*
X29926Y190125D01*
X30479Y189571D01*
X31203Y189272D01*
X31986D01*
X32710Y189571D01*
X33263Y190125D01*
X33563Y190849D01*
Y191632D01*
X33263Y192355D01*
X33019Y192599D01*
Y193179D01*
X33234D01*
Y197509D01*
X33019D01*
Y199004D01*
X33406D01*
Y203334D01*
X33019D01*
Y204909D01*
X33406D01*
Y209240D01*
D02*
G37*
G36*
X55887Y191832D02*
X48112D01*
Y187540D01*
X55887D01*
Y191832D01*
D02*
G37*
G36*
X47521D02*
X39746D01*
Y187540D01*
X47521D01*
Y191832D01*
D02*
G37*
G36*
X110887Y191832D02*
X103111D01*
Y187540D01*
X110887D01*
Y191832D01*
D02*
G37*
G36*
X102521D02*
X94745D01*
Y187540D01*
X102521D01*
Y191832D01*
D02*
G37*
G36*
X371076Y191143D02*
X363301D01*
Y186851D01*
X371076D01*
Y191143D01*
D02*
G37*
G36*
X362710D02*
X354935D01*
Y186851D01*
X362710D01*
Y191143D01*
D02*
G37*
G36*
X426076Y191143D02*
X418300D01*
Y186851D01*
X426076D01*
Y191143D01*
D02*
G37*
G36*
X417710D02*
X409934D01*
Y186851D01*
X417710D01*
Y191143D01*
D02*
G37*
G36*
X533394Y191142D02*
X525619D01*
Y186851D01*
X533394D01*
Y191142D01*
D02*
G37*
G36*
X525028D02*
X517252D01*
Y186851D01*
X525028D01*
Y191142D01*
D02*
G37*
G36*
X588394Y191142D02*
X580618D01*
Y186851D01*
X588394D01*
Y191142D01*
D02*
G37*
G36*
X580027D02*
X572252D01*
Y186851D01*
X580027D01*
Y191142D01*
D02*
G37*
G36*
X211635Y189962D02*
X203860D01*
Y185670D01*
X211635D01*
Y189962D01*
D02*
G37*
G36*
X203269D02*
X195493D01*
Y185670D01*
X203269D01*
Y189962D01*
D02*
G37*
G36*
X266635Y189962D02*
X258859D01*
Y185670D01*
X266635D01*
Y189962D01*
D02*
G37*
G36*
X258269D02*
X250493D01*
Y185670D01*
X258269D01*
Y189962D01*
D02*
G37*
G36*
X55887Y186950D02*
X48112D01*
Y182659D01*
X55887D01*
Y186950D01*
D02*
G37*
G36*
X47521D02*
X39746D01*
Y182659D01*
X47521D01*
Y186950D01*
D02*
G37*
G36*
X110887Y186950D02*
X103111D01*
Y182658D01*
X110887D01*
Y186950D01*
D02*
G37*
G36*
X102521D02*
X94745D01*
Y182658D01*
X102521D01*
Y186950D01*
D02*
G37*
G36*
X371076Y186261D02*
X363301D01*
Y181969D01*
X371076D01*
Y186261D01*
D02*
G37*
G36*
X362710D02*
X354935D01*
Y181969D01*
X362710D01*
Y186261D01*
D02*
G37*
G36*
X426076Y186261D02*
X418300D01*
Y181969D01*
X426076D01*
Y186261D01*
D02*
G37*
G36*
X417710D02*
X409934D01*
Y181969D01*
X417710D01*
Y186261D01*
D02*
G37*
G36*
X533394Y186260D02*
X525619D01*
Y181969D01*
X533394D01*
Y186260D01*
D02*
G37*
G36*
X525028D02*
X517252D01*
Y181969D01*
X525028D01*
Y186260D01*
D02*
G37*
G36*
X588394Y186260D02*
X580618D01*
Y181969D01*
X588394D01*
Y186260D01*
D02*
G37*
G36*
X580027D02*
X572252D01*
Y181969D01*
X580027D01*
Y186260D01*
D02*
G37*
G36*
X211635Y185080D02*
X203860D01*
Y180788D01*
X211635D01*
Y185080D01*
D02*
G37*
G36*
X203269D02*
X195493D01*
Y180788D01*
X203269D01*
Y185080D01*
D02*
G37*
G36*
X266635Y185080D02*
X258859D01*
Y180788D01*
X266635D01*
Y185080D01*
D02*
G37*
G36*
X258269D02*
X250493D01*
Y180788D01*
X258269D01*
Y185080D01*
D02*
G37*
G36*
X623365Y176000D02*
X621910D01*
X620504Y175623D01*
X619244Y174896D01*
X619008Y174659D01*
X619803Y173864D01*
X619246Y173308D01*
X618451Y174103D01*
X618215Y173866D01*
X617487Y172606D01*
X617110Y171200D01*
Y169745D01*
X617487Y168339D01*
X618215Y167078D01*
X618451Y166842D01*
X619246Y167637D01*
X619803Y167081D01*
X619008Y166286D01*
X619244Y166049D01*
X620504Y165322D01*
X621910Y164945D01*
X623365D01*
X624771Y165322D01*
X626032Y166049D01*
X626268Y166286D01*
X625473Y167081D01*
X626030Y167637D01*
X626825Y166842D01*
X627061Y167078D01*
X627789Y168339D01*
X628165Y169745D01*
Y171200D01*
X627789Y172606D01*
X627061Y173866D01*
X626825Y174103D01*
X626030Y173308D01*
X625473Y173864D01*
X626268Y174659D01*
X626032Y174896D01*
X624771Y175623D01*
X623365Y176000D01*
D02*
G37*
G36*
X611564Y169744D02*
X610149D01*
X608760Y169468D01*
X607453Y168926D01*
X606276Y168140D01*
X605275Y167139D01*
X604489Y165962D01*
X603947Y164655D01*
X603671Y163267D01*
Y161851D01*
X603947Y160463D01*
X604489Y159156D01*
X605275Y157979D01*
X606276Y156978D01*
X607453Y156192D01*
X608760Y155650D01*
X610149Y155374D01*
X611564D01*
X612952Y155650D01*
X614260Y156192D01*
X615437Y156978D01*
X616437Y157979D01*
X617224Y159156D01*
X617765Y160463D01*
X618041Y161851D01*
Y163267D01*
X617765Y164655D01*
X617224Y165962D01*
X616437Y167139D01*
X615437Y168140D01*
X614260Y168926D01*
X612952Y169468D01*
X611564Y169744D01*
D02*
G37*
G36*
X623365Y115075D02*
X621910D01*
X620504Y114698D01*
X619244Y113970D01*
X619008Y113734D01*
X619803Y112939D01*
X619246Y112382D01*
X618451Y113177D01*
X618215Y112941D01*
X617487Y111681D01*
X617110Y110275D01*
Y108819D01*
X617487Y107414D01*
X618215Y106153D01*
X618451Y105917D01*
X619246Y106712D01*
X619803Y106156D01*
X619008Y105360D01*
X619244Y105124D01*
X620504Y104396D01*
X621910Y104020D01*
X623365D01*
X624771Y104396D01*
X626032Y105124D01*
X626268Y105360D01*
X625473Y106156D01*
X626030Y106712D01*
X626825Y105917D01*
X627061Y106153D01*
X627789Y107414D01*
X628165Y108819D01*
Y110275D01*
X627789Y111681D01*
X627061Y112941D01*
X626825Y113177D01*
X626030Y112382D01*
X625473Y112939D01*
X626268Y113734D01*
X626032Y113970D01*
X624771Y114698D01*
X623365Y115075D01*
D02*
G37*
G36*
X611564Y124744D02*
X610149D01*
X608760Y124468D01*
X607453Y123926D01*
X606276Y123140D01*
X605275Y122139D01*
X604489Y120962D01*
X603947Y119655D01*
X603671Y118267D01*
Y116851D01*
X603947Y115463D01*
X604489Y114156D01*
X605275Y112979D01*
X606276Y111978D01*
X607453Y111192D01*
X608760Y110650D01*
X610149Y110374D01*
X611564D01*
X612952Y110650D01*
X614260Y111192D01*
X615437Y111978D01*
X616437Y112979D01*
X617224Y114156D01*
X617765Y115463D01*
X618041Y116851D01*
Y118267D01*
X617765Y119655D01*
X617224Y120962D01*
X616437Y122139D01*
X615437Y123140D01*
X614260Y123926D01*
X612952Y124468D01*
X611564Y124744D01*
D02*
G37*
G36*
X157160Y106148D02*
X152854D01*
Y103543D01*
X158530D01*
Y104778D01*
X158426Y105302D01*
X158129Y105747D01*
X157684Y106044D01*
X157160Y106148D01*
D02*
G37*
G36*
X142396D02*
X138091D01*
Y103543D01*
X143766D01*
Y104778D01*
X143662Y105302D01*
X143365Y105747D01*
X142920Y106044D01*
X142396Y106148D01*
D02*
G37*
G36*
X152264D02*
X147958D01*
X147434Y106044D01*
X146989Y105747D01*
X146692Y105302D01*
X146588Y104778D01*
Y103543D01*
X152264D01*
Y106148D01*
D02*
G37*
G36*
X137500D02*
X133194D01*
X132670Y106044D01*
X132226Y105747D01*
X131928Y105302D01*
X131824Y104778D01*
Y103543D01*
X137500D01*
Y106148D01*
D02*
G37*
G36*
X379776Y102399D02*
X379775Y102399D01*
X379774Y102399D01*
X366450Y102329D01*
X366298Y102298D01*
X366147Y102268D01*
X366145Y102267D01*
X366143Y102266D01*
X366015Y102180D01*
X365886Y102094D01*
X365885Y102092D01*
X365883Y102091D01*
X365798Y101962D01*
X365712Y101833D01*
X365712Y101831D01*
X365711Y101830D01*
X365681Y101678D01*
X365651Y101526D01*
Y94828D01*
X365151Y94444D01*
X362418D01*
Y90803D01*
Y87161D01*
X365151D01*
X365370Y87161D01*
X365651Y86777D01*
Y86698D01*
X365675Y86578D01*
X365410Y86150D01*
X365319Y86078D01*
X364091D01*
Y84011D01*
X366059D01*
X368028D01*
Y85895D01*
X368712D01*
X368974Y85633D01*
Y74231D01*
X368599Y74086D01*
X368474Y74061D01*
X368234Y74221D01*
X367925Y74283D01*
X366453D01*
Y72496D01*
X366158D01*
Y72200D01*
X363583D01*
Y71515D01*
X363645Y71207D01*
X363819Y70945D01*
X363871Y70910D01*
Y70341D01*
X363819Y70306D01*
X363645Y70044D01*
X363583Y69736D01*
Y69051D01*
X366158D01*
Y68460D01*
X363583D01*
Y67775D01*
X363590Y67740D01*
X363240Y67240D01*
X359161D01*
X358854Y67179D01*
X358594Y67005D01*
X358420Y66744D01*
X358359Y66437D01*
Y56988D01*
X358420Y56681D01*
X358594Y56420D01*
X358854Y56247D01*
X359161Y56185D01*
X369902D01*
X370390Y56157D01*
X370390Y55685D01*
Y54484D01*
X372752D01*
Y54189D01*
X373047D01*
Y52220D01*
X375008D01*
X375114Y52220D01*
X375508D01*
X375614Y52220D01*
X377575D01*
Y54189D01*
X377870D01*
Y54484D01*
X380232D01*
Y55759D01*
X380327Y56207D01*
X380595Y56420D01*
X380613Y56446D01*
X380769Y56681D01*
X380830Y56988D01*
Y66437D01*
X380769Y66744D01*
X380698Y66851D01*
X380901Y67330D01*
X380920Y67351D01*
X382398D01*
Y66590D01*
X385941D01*
Y70921D01*
X382398D01*
Y70160D01*
X381067D01*
X380884Y70660D01*
X380888Y70668D01*
X380966Y70785D01*
X380970Y70802D01*
X380978Y70817D01*
X381000Y70955D01*
X381027Y71092D01*
X381027Y101152D01*
X381027Y101153D01*
X381027Y101154D01*
X380996Y101308D01*
X380966Y101459D01*
X380965Y101460D01*
X380965Y101461D01*
X380878Y101591D01*
X380792Y101720D01*
X380791Y101720D01*
X380791Y101721D01*
X380344Y102165D01*
X380343Y102166D01*
X380343Y102167D01*
X380212Y102253D01*
X380083Y102339D01*
X380082Y102339D01*
X380081Y102340D01*
X379928Y102369D01*
X379776Y102399D01*
D02*
G37*
G36*
X158530Y102953D02*
X152854D01*
Y100348D01*
X157160D01*
X157684Y100452D01*
X158129Y100749D01*
X158426Y101194D01*
X158530Y101718D01*
Y102953D01*
D02*
G37*
G36*
X152264D02*
X146588D01*
Y101718D01*
X146692Y101194D01*
X146989Y100749D01*
X147434Y100452D01*
X147958Y100348D01*
X152264D01*
Y102953D01*
D02*
G37*
G36*
X143766D02*
X138091D01*
Y100348D01*
X142396D01*
X142920Y100452D01*
X143365Y100749D01*
X143662Y101194D01*
X143766Y101718D01*
Y102953D01*
D02*
G37*
G36*
X137500D02*
X131824D01*
Y101718D01*
X131928Y101194D01*
X132226Y100749D01*
X132670Y100452D01*
X133194Y100348D01*
X137500D01*
Y102953D01*
D02*
G37*
G36*
X116043Y93898D02*
X114370D01*
Y91831D01*
X116043D01*
Y93898D01*
D02*
G37*
G36*
X317339Y93263D02*
X315370D01*
Y91098D01*
X317339D01*
Y93263D01*
D02*
G37*
G36*
X314780D02*
X312811D01*
Y91098D01*
X314780D01*
Y93263D01*
D02*
G37*
G36*
X361827Y94444D02*
X358874D01*
Y91098D01*
X361827D01*
Y94444D01*
D02*
G37*
G36*
X282890Y92476D02*
X280921D01*
Y90311D01*
X282890D01*
Y92476D01*
D02*
G37*
G36*
X298638Y92476D02*
X296670D01*
Y90311D01*
X298638D01*
Y92476D01*
D02*
G37*
G36*
X296079D02*
X294110D01*
Y90311D01*
X296079D01*
Y92476D01*
D02*
G37*
G36*
X280331Y92476D02*
X278362D01*
Y90311D01*
X280331D01*
Y92476D01*
D02*
G37*
G36*
X32155Y103100D02*
X30837D01*
X29544Y102843D01*
X28326Y102339D01*
X27230Y101606D01*
X26297Y100674D01*
X25565Y99578D01*
X25060Y98360D01*
X24803Y97066D01*
Y95748D01*
X25060Y94455D01*
X25565Y93237D01*
X26297Y92141D01*
X27230Y91209D01*
X28326Y90476D01*
X29544Y89972D01*
X30837Y89714D01*
X32155D01*
X33448Y89972D01*
X34666Y90476D01*
X35763Y91209D01*
X36695Y92141D01*
X37427Y93237D01*
X37932Y94455D01*
X38189Y95748D01*
Y97066D01*
X37932Y98360D01*
X37427Y99578D01*
X36695Y100674D01*
X35763Y101606D01*
X34666Y102339D01*
X33448Y102843D01*
X32155Y103100D01*
D02*
G37*
G36*
X116043Y91240D02*
X114370D01*
Y89173D01*
X116043D01*
Y91240D01*
D02*
G37*
G36*
X197851Y90901D02*
X195685D01*
Y88933D01*
X197851D01*
Y90901D01*
D02*
G37*
G36*
X195095D02*
X192929D01*
Y88933D01*
X195095D01*
Y90901D01*
D02*
G37*
G36*
X306212Y93286D02*
X305429D01*
X304706Y92986D01*
X304152Y92432D01*
X303852Y91709D01*
Y90926D01*
X304152Y90202D01*
X304706Y89648D01*
X305429Y89349D01*
X306212D01*
X306936Y89648D01*
X307390Y90102D01*
X307855Y89971D01*
X307890Y89949D01*
Y88539D01*
X312024D01*
Y93067D01*
X307890D01*
Y92686D01*
X307855Y92664D01*
X307390Y92532D01*
X306936Y92986D01*
X306212Y93286D01*
D02*
G37*
G36*
X293323Y92279D02*
X289189D01*
Y89324D01*
X288311Y88446D01*
X287811Y88653D01*
Y92279D01*
X283677D01*
Y87752D01*
X284632D01*
Y80171D01*
X284632Y80171D01*
X284717Y79746D01*
X284958Y79385D01*
X285025Y79318D01*
Y78401D01*
X285054Y78254D01*
Y76137D01*
X284267D01*
Y75350D01*
X283115D01*
X283115Y77615D01*
X283115Y77615D01*
X283030Y78040D01*
X282789Y78401D01*
X282789Y78401D01*
X277849Y83341D01*
X277488Y83582D01*
X277063Y83667D01*
X277063Y83667D01*
X276197D01*
Y85193D01*
X272063D01*
Y80665D01*
X276197D01*
Y81215D01*
X276697Y81348D01*
X280891Y77154D01*
X280891Y75350D01*
X279542D01*
Y73184D01*
X279115Y73009D01*
X278720D01*
X276197Y75532D01*
Y78500D01*
X272063D01*
Y73972D01*
X274612D01*
X275391Y73193D01*
X275184Y72693D01*
X274723D01*
X273999Y72393D01*
X273446Y71839D01*
X273146Y71115D01*
Y70332D01*
X273446Y69609D01*
X273999Y69055D01*
X274723Y68756D01*
X275506D01*
X275581Y68665D01*
X275346Y68165D01*
X273736D01*
Y63834D01*
X273736D01*
X273629Y63379D01*
X272358D01*
X271965Y63637D01*
X271965Y63879D01*
Y65704D01*
X269996D01*
X268028D01*
Y63879D01*
X268028Y63637D01*
X267635Y63379D01*
X250303D01*
X249996Y63318D01*
X249735Y63144D01*
X249561Y62883D01*
X249500Y62576D01*
Y52264D01*
X249561Y51957D01*
X249735Y51696D01*
X249996Y51522D01*
X250303Y51461D01*
X261236D01*
Y48578D01*
X264878D01*
X268520D01*
Y51461D01*
X269256D01*
Y48578D01*
X272898D01*
X276540D01*
Y51461D01*
X280996D01*
Y29035D01*
X281058Y28728D01*
X281231Y28468D01*
X281492Y28294D01*
X281799Y28233D01*
X288886D01*
X289193Y28294D01*
X289454Y28468D01*
X289628Y28728D01*
X289689Y29035D01*
Y52347D01*
X289628Y52654D01*
X289454Y52915D01*
X289193Y53088D01*
X288886Y53150D01*
X288038D01*
Y53229D01*
Y57239D01*
Y62684D01*
X284831D01*
X284831Y75558D01*
X293099D01*
X293096Y75561D01*
Y81058D01*
X293519D01*
Y81058D01*
X293097D01*
X292937Y81558D01*
X293378Y81999D01*
X293677Y82723D01*
Y83506D01*
X293378Y84229D01*
X292824Y84783D01*
X292101Y85083D01*
X291318D01*
X290594Y84783D01*
X290308Y84497D01*
X289808Y84704D01*
Y86798D01*
X290762Y87752D01*
X293323D01*
Y92279D01*
D02*
G37*
G36*
X317339Y90508D02*
X315370D01*
Y88342D01*
X317339D01*
Y90508D01*
D02*
G37*
G36*
X314780D02*
X312811D01*
Y88342D01*
X314780D01*
Y90508D01*
D02*
G37*
G36*
X211433Y92279D02*
X207299D01*
Y87752D01*
X211433D01*
Y88221D01*
X211933Y88467D01*
X212499Y88232D01*
X213282D01*
X214005Y88532D01*
X214559Y89086D01*
X214859Y89809D01*
Y90592D01*
X214559Y91316D01*
X214005Y91870D01*
X213282Y92169D01*
X212499D01*
X211933Y91935D01*
X211433Y92181D01*
Y92279D01*
D02*
G37*
G36*
X16562Y104675D02*
X14934D01*
X13336Y104357D01*
X11832Y103734D01*
X10478Y102829D01*
X9326Y101678D01*
X8421Y100323D01*
X7798Y98819D01*
X7480Y97222D01*
Y95593D01*
X7798Y93996D01*
X8421Y92491D01*
X9326Y91137D01*
X10478Y89985D01*
X11832Y89081D01*
X13336Y88457D01*
X14934Y88140D01*
X16562D01*
X18160Y88457D01*
X19664Y89081D01*
X21018Y89985D01*
X22170Y91137D01*
X23075Y92491D01*
X23698Y93996D01*
X24016Y95593D01*
Y97222D01*
X23698Y98819D01*
X23075Y100323D01*
X22170Y101678D01*
X21018Y102829D01*
X19664Y103734D01*
X18160Y104357D01*
X16562Y104675D01*
D02*
G37*
G36*
X81299Y91437D02*
X78642D01*
Y87894D01*
X81299D01*
Y91437D01*
D02*
G37*
G36*
X78051D02*
X75394D01*
Y87894D01*
X78051D01*
Y91437D01*
D02*
G37*
G36*
X298638Y89720D02*
X296670D01*
Y87555D01*
X298638D01*
Y89720D01*
D02*
G37*
G36*
X296079D02*
X294110D01*
Y87555D01*
X296079D01*
Y89720D01*
D02*
G37*
G36*
X282890D02*
X280921D01*
Y87555D01*
X282890D01*
Y89720D01*
D02*
G37*
G36*
X280331D02*
X278362D01*
Y87555D01*
X280331D01*
Y89720D01*
D02*
G37*
G36*
X361827Y90507D02*
X358874D01*
Y87161D01*
X361827D01*
Y90507D01*
D02*
G37*
G36*
X197851Y88342D02*
X195685D01*
Y86374D01*
X197851D01*
Y88342D01*
D02*
G37*
G36*
X195095D02*
X192929D01*
Y86374D01*
X195095D01*
Y88342D01*
D02*
G37*
G36*
X599084Y99213D02*
X597766D01*
X596473Y98955D01*
X595255Y98451D01*
X594159Y97718D01*
X593226Y96786D01*
X592494Y95690D01*
X591990Y94472D01*
X591732Y93179D01*
Y91861D01*
X591990Y90567D01*
X592494Y89349D01*
X593226Y88253D01*
X594159Y87321D01*
X595255Y86589D01*
X596473Y86084D01*
X597766Y85827D01*
X599084D01*
X600378Y86084D01*
X601595Y86589D01*
X602692Y87321D01*
X603624Y88253D01*
X604356Y89349D01*
X604861Y90567D01*
X605118Y91861D01*
Y93179D01*
X604861Y94472D01*
X604356Y95690D01*
X603624Y96786D01*
X602692Y97718D01*
X601595Y98451D01*
X600378Y98955D01*
X599084Y99213D01*
D02*
G37*
G36*
X317339Y87358D02*
X315370D01*
Y85193D01*
X317339D01*
Y87358D01*
D02*
G37*
G36*
X314780D02*
X312811D01*
Y85193D01*
X314780D01*
Y87358D01*
D02*
G37*
G36*
X116043Y87008D02*
X114370D01*
Y84941D01*
X116043D01*
Y87008D01*
D02*
G37*
G36*
X211925Y86472D02*
X210252D01*
Y84405D01*
X211925D01*
Y86472D01*
D02*
G37*
G36*
X209662D02*
X207988D01*
Y84405D01*
X209662D01*
Y86472D01*
D02*
G37*
G36*
X614988Y100787D02*
X613359D01*
X611762Y100470D01*
X610257Y99846D01*
X608903Y98942D01*
X607751Y97790D01*
X606847Y96436D01*
X606223Y94931D01*
X605905Y93334D01*
Y91705D01*
X606223Y90108D01*
X606847Y88604D01*
X607751Y87249D01*
X608903Y86098D01*
X610257Y85193D01*
X611762Y84570D01*
X613359Y84252D01*
X614988D01*
X616585Y84570D01*
X618089Y85193D01*
X619444Y86098D01*
X620595Y87249D01*
X621500Y88604D01*
X622123Y90108D01*
X622441Y91705D01*
Y93334D01*
X622123Y94931D01*
X621500Y96436D01*
X620595Y97790D01*
X619444Y98942D01*
X618089Y99846D01*
X616585Y100470D01*
X614988Y100787D01*
D02*
G37*
G36*
X70079Y91240D02*
X64567D01*
Y89806D01*
X38293D01*
X37449Y89638D01*
X36732Y89160D01*
X25609Y78036D01*
X25106Y78171D01*
X23965D01*
X22864Y77876D01*
X21876Y77306D01*
X21070Y76499D01*
X20809Y76048D01*
X14785D01*
X13940Y75880D01*
X13224Y75402D01*
X4344Y66522D01*
X3866Y65806D01*
X3698Y64961D01*
Y30315D01*
X3866Y29470D01*
X4344Y28754D01*
X10348Y22750D01*
X11065Y22271D01*
X11909Y22103D01*
X19952D01*
X38695Y3360D01*
X39411Y2882D01*
X40256Y2713D01*
X530949D01*
X531794Y2882D01*
X532510Y3360D01*
X573891Y44741D01*
X596303D01*
X597148Y44909D01*
X597864Y45388D01*
X604312Y51836D01*
X604816Y51701D01*
X605956D01*
X607057Y51996D01*
X608045Y52566D01*
X608851Y53372D01*
X609421Y54360D01*
X609717Y55461D01*
Y56602D01*
X609421Y57703D01*
X608851Y58691D01*
X608045Y59497D01*
X607057Y60067D01*
X605956Y60362D01*
X604816D01*
X603714Y60067D01*
X602727Y59497D01*
X601920Y58691D01*
X601350Y57703D01*
X601055Y56602D01*
Y55461D01*
X601190Y54958D01*
X595389Y49157D01*
X572976D01*
X572131Y48989D01*
X571415Y48510D01*
X530034Y7129D01*
X41170D01*
X22427Y25872D01*
X21711Y26351D01*
X20866Y26519D01*
X12824D01*
X8113Y31229D01*
Y32997D01*
X8613Y33149D01*
X9326Y32082D01*
X10478Y30930D01*
X11832Y30025D01*
X13336Y29402D01*
X14934Y29085D01*
X16562D01*
X18160Y29402D01*
X19664Y30025D01*
X21018Y30930D01*
X22170Y32082D01*
X23075Y33436D01*
X23698Y34941D01*
X24016Y36538D01*
Y38166D01*
X23698Y39764D01*
X23075Y41268D01*
X22170Y42623D01*
X21018Y43774D01*
X19664Y44679D01*
X18160Y45302D01*
X16562Y45620D01*
X14934D01*
X13336Y45302D01*
X11832Y44679D01*
X10478Y43774D01*
X9326Y42623D01*
X8613Y41556D01*
X8113Y41707D01*
Y64046D01*
X15700Y71633D01*
X20809D01*
X21070Y71181D01*
X21876Y70375D01*
X22409Y70067D01*
X22571Y69400D01*
X22529Y69334D01*
X18799D01*
X17954Y69166D01*
X17238Y68687D01*
X14384Y65833D01*
X13905Y65117D01*
X13737Y64272D01*
Y54232D01*
X13905Y53387D01*
X14384Y52671D01*
X21372Y45683D01*
X22088Y45204D01*
X22933Y45036D01*
X46330D01*
X81805Y9561D01*
X82521Y9082D01*
X83366Y8914D01*
X526870D01*
X527715Y9082D01*
X528431Y9561D01*
X572694Y53824D01*
X587739D01*
X587999Y53372D01*
X588805Y52566D01*
X589793Y51996D01*
X590894Y51701D01*
X592035D01*
X593136Y51996D01*
X594124Y52566D01*
X594930Y53372D01*
X595500Y54360D01*
X595795Y55461D01*
Y56602D01*
X595500Y57703D01*
X594930Y58691D01*
X594124Y59497D01*
X593136Y60067D01*
X592035Y60362D01*
X590894D01*
X589793Y60067D01*
X588805Y59497D01*
X587999Y58691D01*
X587739Y58239D01*
X571779D01*
X570935Y58071D01*
X570218Y57593D01*
X525956Y13330D01*
X84281D01*
X48805Y48805D01*
X48089Y49284D01*
X47244Y49452D01*
X23848D01*
X18153Y55147D01*
Y63357D01*
X19714Y64918D01*
X31742D01*
X32587Y65086D01*
X33303Y65565D01*
X37383Y69645D01*
X37887Y69510D01*
X39027D01*
X40128Y69805D01*
X41116Y70375D01*
X41922Y71181D01*
X42492Y72169D01*
X42787Y73270D01*
Y74410D01*
X42652Y74914D01*
X45944Y78206D01*
X51382D01*
X53159Y76429D01*
X53875Y75950D01*
X54720Y75782D01*
X64567D01*
Y74114D01*
X70079D01*
Y81398D01*
X64567D01*
Y80198D01*
X55635D01*
X53858Y81975D01*
X53142Y82453D01*
X52297Y82621D01*
X45030D01*
X44185Y82453D01*
X43469Y81975D01*
X39530Y78036D01*
X39027Y78171D01*
X37887D01*
X36785Y77876D01*
X35798Y77306D01*
X34991Y76499D01*
X34421Y75512D01*
X34126Y74410D01*
Y73270D01*
X34261Y72767D01*
X30828Y69334D01*
X26542D01*
X26500Y69400D01*
X26661Y70067D01*
X27194Y70375D01*
X28001Y71181D01*
X28571Y72169D01*
X28866Y73270D01*
Y74410D01*
X28731Y74914D01*
X39208Y85391D01*
X64567D01*
Y83957D01*
X70079D01*
Y91240D01*
D02*
G37*
G36*
X81299Y87303D02*
X78642D01*
Y83760D01*
X81299D01*
Y87303D01*
D02*
G37*
G36*
X78051D02*
X75394D01*
Y83760D01*
X78051D01*
Y87303D01*
D02*
G37*
G36*
X271276Y85389D02*
X269307D01*
Y83224D01*
X271276D01*
Y85389D01*
D02*
G37*
G36*
X268717D02*
X266748D01*
Y83224D01*
X268717D01*
Y85389D01*
D02*
G37*
G36*
X317339Y84602D02*
X315370D01*
Y82437D01*
X317339D01*
Y84602D01*
D02*
G37*
G36*
X314780D02*
X312811D01*
Y82437D01*
X314780D01*
Y84602D01*
D02*
G37*
G36*
X116043Y84350D02*
X114370D01*
Y82284D01*
X116043D01*
Y84350D01*
D02*
G37*
G36*
X271276Y82634D02*
X269307D01*
Y80468D01*
X271276D01*
Y82634D01*
D02*
G37*
G36*
X268717D02*
X266748D01*
Y80468D01*
X268717D01*
Y82634D01*
D02*
G37*
G36*
X312024Y87161D02*
X307890D01*
Y84206D01*
X303197Y79513D01*
X297456D01*
Y80862D01*
X295512D01*
X295093Y81058D01*
Y81058D01*
X295093Y81058D01*
X294109D01*
Y81058D01*
X294476D01*
X294552Y80983D01*
Y75558D01*
X297701D01*
Y67291D01*
X302548D01*
X302548Y65790D01*
X297701D01*
X297533Y65621D01*
Y62736D01*
X294783D01*
Y57239D01*
X294815D01*
X294827Y57209D01*
X294845Y57119D01*
X294881Y57064D01*
X294905Y57002D01*
X294968Y56935D01*
X295019Y56859D01*
X295074Y56822D01*
X295119Y56774D01*
X298482Y54367D01*
X298566Y54329D01*
X298642Y54278D01*
X298707Y54265D01*
X298768Y54238D01*
X298859Y54235D01*
X298949Y54217D01*
X305359D01*
X305725Y53893D01*
X305725Y53717D01*
Y50941D01*
X309366D01*
X313008D01*
Y53717D01*
X313008Y53893D01*
X313374Y54217D01*
X313626D01*
X313992Y53893D01*
X313992Y53717D01*
Y50941D01*
X317634D01*
Y50645D01*
D01*
Y50941D01*
X321276D01*
Y53717D01*
X321276Y53893D01*
X321642Y54217D01*
X321894D01*
X322260Y53893D01*
X322260Y53717D01*
Y50941D01*
X325902D01*
X329543D01*
Y53717D01*
X329543Y53893D01*
X329909Y54217D01*
X330162D01*
X330528Y53893D01*
X330528Y53717D01*
Y50941D01*
X334170D01*
X337811D01*
Y53717D01*
X337811Y53893D01*
X338177Y54217D01*
X338429D01*
X338795Y53893D01*
X338795Y53717D01*
Y50941D01*
X342437D01*
X346079D01*
Y53717D01*
X346079Y53893D01*
X346445Y54217D01*
X351621D01*
Y48990D01*
X351395Y48896D01*
X350730Y48232D01*
X350370Y47364D01*
Y46424D01*
X350730Y45556D01*
X351395Y44891D01*
X351621Y44798D01*
Y42465D01*
X347713D01*
Y38331D01*
X352240D01*
Y38331D01*
X352252Y38331D01*
X352740Y38331D01*
X356966D01*
Y42465D01*
X353845D01*
Y44798D01*
X354071Y44891D01*
X354735Y45556D01*
X355095Y46424D01*
Y47364D01*
X354735Y48232D01*
X354071Y48896D01*
X353845Y48990D01*
Y54217D01*
X356602D01*
X356910Y54278D01*
X357170Y54452D01*
X357344Y54712D01*
X357405Y55020D01*
Y65256D01*
X357344Y65563D01*
X357170Y65824D01*
X356910Y65998D01*
X356602Y66059D01*
X310498D01*
X310407Y66514D01*
X310124Y66938D01*
X306991Y70071D01*
X306954Y70096D01*
X307105Y70596D01*
X308382D01*
X308382Y70596D01*
X308807Y70681D01*
X309168Y70922D01*
X309462Y71216D01*
X312024D01*
Y75744D01*
X307890D01*
Y72820D01*
X304804D01*
X304667Y73320D01*
X304908Y73481D01*
X308030Y76603D01*
X308784D01*
X308784Y76603D01*
X309209Y76687D01*
X309270Y76728D01*
X312024D01*
Y81256D01*
X308738D01*
X308546Y81717D01*
X309462Y82633D01*
X312024D01*
Y87161D01*
D02*
G37*
G36*
X317339Y81452D02*
X315370D01*
Y79287D01*
X317339D01*
Y81452D01*
D02*
G37*
G36*
X314780D02*
X312811D01*
Y79287D01*
X314780D01*
Y81452D01*
D02*
G37*
G36*
X148872Y84711D02*
X147638D01*
Y79035D01*
X150243D01*
Y83341D01*
X150138Y83865D01*
X149841Y84310D01*
X149397Y84607D01*
X148872Y84711D01*
D02*
G37*
G36*
X178991D02*
X177756D01*
Y79035D01*
X180361D01*
Y83341D01*
X180257Y83865D01*
X179960Y84310D01*
X179515Y84607D01*
X178991Y84711D01*
D02*
G37*
G36*
X177165D02*
X175931D01*
X175406Y84607D01*
X174962Y84310D01*
X174665Y83865D01*
X174560Y83341D01*
Y79035D01*
X177165D01*
Y84711D01*
D02*
G37*
G36*
X147047D02*
X145813D01*
X145288Y84607D01*
X144844Y84310D01*
X144546Y83865D01*
X144442Y83341D01*
Y79035D01*
X147047D01*
Y84711D01*
D02*
G37*
G36*
X368028Y83421D02*
X366059D01*
X364091D01*
Y81460D01*
X364091Y81354D01*
Y80960D01*
X364091Y80854D01*
Y78893D01*
X366059D01*
X368028D01*
Y80854D01*
X368028Y80960D01*
Y81354D01*
X368028Y81460D01*
Y83421D01*
D02*
G37*
G36*
X81299Y81595D02*
X78642D01*
Y78051D01*
X81299D01*
Y81595D01*
D02*
G37*
G36*
X116043Y80118D02*
X114370D01*
Y78051D01*
X116043D01*
Y80118D01*
D02*
G37*
G36*
X78051Y81595D02*
X75394D01*
Y78051D01*
X78051D01*
Y81595D01*
D02*
G37*
G36*
X271276Y78696D02*
X269307D01*
Y76531D01*
X271276D01*
Y78696D01*
D02*
G37*
G36*
X317339Y78696D02*
X315370D01*
Y76531D01*
X317339D01*
Y78696D01*
D02*
G37*
G36*
X314780D02*
X312811D01*
Y76531D01*
X314780D01*
Y78696D01*
D02*
G37*
G36*
X268717Y78696D02*
X266748D01*
Y76531D01*
X268717D01*
Y78696D01*
D02*
G37*
G36*
X368028Y78303D02*
X366354D01*
Y76236D01*
X368028D01*
Y78303D01*
D02*
G37*
G36*
X365764D02*
X364091D01*
Y76236D01*
X365764D01*
Y78303D01*
D02*
G37*
G36*
X249229Y79090D02*
Y76137D01*
X252575D01*
Y79090D01*
X249229D01*
D02*
G37*
G36*
X241158D02*
X237811D01*
Y76137D01*
X241158D01*
Y79090D01*
D02*
G37*
G36*
X233874D02*
Y76137D01*
X237221D01*
Y79090D01*
X233874D01*
D02*
G37*
G36*
X225803D02*
X222457D01*
Y76137D01*
X225803D01*
Y79090D01*
D02*
G37*
G36*
X205815Y93421D02*
X201878D01*
X201571Y93360D01*
X201310Y93186D01*
X201136Y92925D01*
X201075Y92618D01*
Y75927D01*
X200772Y75727D01*
X200612Y75665D01*
X200605D01*
X197665Y78604D01*
Y78626D01*
X197589Y79010D01*
X197569Y79039D01*
Y79769D01*
X197514Y80050D01*
X197355Y80287D01*
X197117Y80446D01*
X196837Y80502D01*
X196393D01*
Y81452D01*
X197654D01*
Y85586D01*
X193126D01*
Y81452D01*
X194386D01*
Y80502D01*
X193943D01*
X193663Y80446D01*
X193425Y80287D01*
X193266Y80050D01*
X193210Y79769D01*
Y78450D01*
X193266Y78170D01*
X193425Y77932D01*
X193663Y77774D01*
X193943Y77718D01*
X195792D01*
X195952Y77479D01*
X199479Y73951D01*
X199805Y73734D01*
X200189Y73658D01*
X200791D01*
X201113Y73158D01*
X201079Y72989D01*
Y72988D01*
X201689D01*
Y73086D01*
Y73164D01*
X201749Y73309D01*
X201860Y73420D01*
X202005Y73480D01*
X202083D01*
X202083Y73480D01*
X205567Y73480D01*
X205598Y73483D01*
X205655Y73506D01*
X205668Y73520D01*
X205549Y73698D01*
X205580Y74058D01*
X205642Y74365D01*
Y74886D01*
X205815D01*
X206122Y74947D01*
X206383Y75121D01*
X206557Y75382D01*
X206572Y75460D01*
X206708Y75433D01*
X207119D01*
Y74598D01*
X207181Y74291D01*
X207355Y74030D01*
X207615Y73856D01*
X207922Y73795D01*
X218334Y73795D01*
X219148D01*
X219252Y73816D01*
X219359Y73823D01*
X219405Y73846D01*
X219455Y73856D01*
X219528Y73905D01*
X219605Y73920D01*
X219870Y74098D01*
X219932Y74189D01*
X220137Y74348D01*
X220214Y74437D01*
X220239Y74454D01*
X220257Y74481D01*
X220311Y74534D01*
X220337Y74572D01*
X220342Y74584D01*
X220343Y74585D01*
X220345Y74592D01*
X220368Y74647D01*
X220413Y74714D01*
X220475Y74863D01*
X220475Y74863D01*
X220475Y74864D01*
X220510Y75040D01*
X220536Y75171D01*
X220536Y75171D01*
X220536Y75171D01*
Y81004D01*
X220475Y81311D01*
X220301Y81572D01*
X220041Y81746D01*
X219733Y81807D01*
X211925D01*
Y83815D01*
X209957D01*
X207988D01*
Y81748D01*
X207711Y81363D01*
X207641Y81273D01*
X207609Y81208D01*
X207563Y81151D01*
X207455Y80945D01*
X207300Y80976D01*
X206708D01*
X206618Y81050D01*
Y92618D01*
X206557Y92925D01*
X206383Y93186D01*
X206122Y93360D01*
X205815Y93421D01*
D02*
G37*
G36*
X116043Y77461D02*
X114370D01*
Y75394D01*
X116043D01*
Y77461D01*
D02*
G37*
G36*
X317339Y75941D02*
X315370D01*
Y73775D01*
X317339D01*
Y75941D01*
D02*
G37*
G36*
X314780D02*
X312811D01*
Y73775D01*
X314780D01*
Y75941D01*
D02*
G37*
G36*
X271276Y75941D02*
X269307D01*
Y73775D01*
X271276D01*
Y75941D01*
D02*
G37*
G36*
X268717D02*
X266748D01*
Y73775D01*
X268717D01*
Y75941D01*
D02*
G37*
G36*
X365862Y74283D02*
X364390D01*
X364081Y74221D01*
X363819Y74046D01*
X363645Y73785D01*
X363583Y73476D01*
Y72791D01*
X365862D01*
Y74283D01*
D02*
G37*
G36*
X180361Y78445D02*
X177756D01*
Y72769D01*
X178991D01*
X179515Y72873D01*
X179960Y73170D01*
X180257Y73615D01*
X180361Y74139D01*
Y78445D01*
D02*
G37*
G36*
X177165D02*
X174560D01*
Y74139D01*
X174665Y73615D01*
X174962Y73170D01*
X175406Y72873D01*
X175931Y72769D01*
X177165D01*
Y78445D01*
D02*
G37*
G36*
X150243D02*
X147638D01*
Y72769D01*
X148872D01*
X149397Y72873D01*
X149841Y73170D01*
X150138Y73615D01*
X150243Y74139D01*
Y78445D01*
D02*
G37*
G36*
X147047D02*
X144442D01*
Y74139D01*
X144546Y73615D01*
X144844Y73170D01*
X145288Y72873D01*
X145813Y72769D01*
X147047D01*
Y78445D01*
D02*
G37*
G36*
X245291Y79090D02*
X244792Y79090D01*
X241748D01*
Y75842D01*
X241453D01*
Y75547D01*
X237811D01*
Y72630D01*
X237811Y72594D01*
X237770Y72372D01*
X237614D01*
X237221Y72855D01*
Y75547D01*
X233579D01*
Y75842D01*
X233284D01*
Y79090D01*
X230240D01*
X229937Y79090D01*
X229437Y79090D01*
X226394D01*
Y75842D01*
X226099D01*
Y75547D01*
X222457D01*
Y72630D01*
X222457Y72594D01*
X222371Y72130D01*
X220298D01*
X220220Y72114D01*
X220141D01*
X220068Y72084D01*
X219991Y72069D01*
X219925Y72025D01*
X219852Y71994D01*
X219796Y71939D01*
X219730Y71895D01*
X219686Y71829D01*
X219657Y71799D01*
X219641Y71761D01*
X219530Y71650D01*
X219386Y71590D01*
X211705D01*
X211672Y71584D01*
X211639Y71588D01*
X211519Y71553D01*
X211398Y71529D01*
X211370Y71510D01*
X211338Y71501D01*
X211240Y71424D01*
X211137Y71355D01*
X211119Y71327D01*
X211092Y71307D01*
X211088Y71302D01*
X211067Y71287D01*
X211032Y71235D01*
X210933Y71119D01*
X210893Y71046D01*
X210839Y70981D01*
X210714Y70749D01*
X210539Y70783D01*
X208449D01*
X208400Y70773D01*
X208350Y70777D01*
X208248Y70743D01*
X208142Y70722D01*
X208100Y70694D01*
X208053Y70679D01*
X207971Y70608D01*
X207881Y70548D01*
X207854Y70507D01*
X207816Y70474D01*
X207641Y70250D01*
X207608Y70185D01*
X207563Y70128D01*
X207455Y69921D01*
X207300Y69952D01*
X206708D01*
X206401Y69891D01*
X206141Y69717D01*
X205967Y69457D01*
X205906Y69150D01*
Y67250D01*
X205892Y67181D01*
Y66064D01*
X205647Y65869D01*
X205151Y66091D01*
Y69150D01*
X205146Y69177D01*
X205147Y69687D01*
X205407Y69861D01*
X205580Y70121D01*
X205642Y70428D01*
Y71020D01*
X205580Y71327D01*
X205549Y71687D01*
X205668Y71865D01*
X205655Y71879D01*
X205598Y71902D01*
X205567Y71905D01*
X205567Y71905D01*
X202083Y71905D01*
X202005D01*
X201860Y71965D01*
X201749Y72076D01*
X201689Y72221D01*
Y72299D01*
X201689D01*
Y72397D01*
X201079D01*
Y72396D01*
X201156Y72013D01*
X201373Y71687D01*
X201341Y71327D01*
X201290Y71071D01*
X200175Y69956D01*
X197654D01*
Y71019D01*
X193126D01*
Y70621D01*
X192626Y70414D01*
X192430Y70610D01*
X191707Y70910D01*
X191669D01*
X191570Y71409D01*
X192037Y71603D01*
X192590Y72157D01*
X192610Y72205D01*
X193411D01*
X193425Y72184D01*
X193663Y72026D01*
X193943Y71970D01*
X196837D01*
X197117Y72026D01*
X197355Y72184D01*
X197514Y72422D01*
X197569Y72702D01*
Y74021D01*
X197514Y74302D01*
X197355Y74539D01*
X197117Y74698D01*
X196837Y74754D01*
X193943D01*
X193663Y74698D01*
X193425Y74539D01*
X193351Y74429D01*
X192549D01*
X192037Y74941D01*
X191313Y75240D01*
X190530D01*
X189806Y74941D01*
X189253Y74387D01*
X188953Y73663D01*
Y72880D01*
X189253Y72157D01*
X189806Y71603D01*
X190530Y71303D01*
X190568D01*
X190667Y70803D01*
X190200Y70610D01*
X189646Y70056D01*
X189347Y69333D01*
Y68550D01*
X189646Y67826D01*
X190200Y67272D01*
X190924Y66973D01*
X191707D01*
X192430Y67272D01*
X192626Y67468D01*
X193126Y67261D01*
Y66885D01*
X197654D01*
Y67949D01*
X200591D01*
X200975Y68025D01*
X201301Y68243D01*
X201963Y68905D01*
X202463Y68698D01*
Y66413D01*
X202123Y66346D01*
X201762Y66105D01*
X201762Y66105D01*
X198312Y62655D01*
X197851Y62847D01*
Y63539D01*
X195685D01*
Y61571D01*
X196096D01*
X196370Y61071D01*
X196291Y60947D01*
X196138Y60917D01*
X195938Y60783D01*
X193126D01*
Y59029D01*
X190656D01*
X190562Y59255D01*
X189898Y59920D01*
X189029Y60280D01*
X188090D01*
X187221Y59920D01*
X186557Y59255D01*
X186197Y58387D01*
Y57447D01*
X186557Y56579D01*
X187221Y55915D01*
X188090Y55555D01*
X189029D01*
X189898Y55915D01*
X190562Y56579D01*
X190656Y56805D01*
X193126D01*
Y56649D01*
X197654D01*
Y58935D01*
X197905Y59103D01*
X202977Y64175D01*
X203404Y64143D01*
X203622Y63698D01*
X203128Y63203D01*
X202887Y62843D01*
X202802Y62417D01*
X202802Y62417D01*
Y54068D01*
X202339Y53978D01*
X202039Y54702D01*
X201485Y55256D01*
X200762Y55555D01*
X199979D01*
X199255Y55256D01*
X198702Y54702D01*
X198700Y54699D01*
X197654D01*
Y55665D01*
X193126D01*
Y51531D01*
X197654D01*
Y52475D01*
X198700D01*
X198702Y52472D01*
X199255Y51918D01*
X199979Y51618D01*
X200762D01*
X201485Y51918D01*
X202039Y52472D01*
X202339Y53195D01*
X202802Y53105D01*
Y50575D01*
X201735Y49508D01*
X197843D01*
Y44980D01*
X199593D01*
Y42913D01*
X198327D01*
Y38893D01*
X194882D01*
X194575Y38832D01*
X194314Y38658D01*
X194140Y38398D01*
X194079Y38091D01*
Y22933D01*
X194140Y22626D01*
X194314Y22365D01*
X194575Y22191D01*
X194882Y22130D01*
X212508D01*
X212815Y22191D01*
X213076Y22365D01*
X213250Y22626D01*
X213311Y22933D01*
Y59307D01*
X214780D01*
Y61669D01*
X215075D01*
Y61964D01*
X217043D01*
Y64031D01*
X217532Y64059D01*
X239756D01*
Y56201D01*
X239817Y55894D01*
X239980Y55500D01*
X240154Y55239D01*
X240415Y55065D01*
X240722Y55004D01*
X242900D01*
Y52740D01*
X239069Y48909D01*
X234650D01*
X234581Y49074D01*
X233917Y49739D01*
X233049Y50098D01*
X232109D01*
X231241Y49739D01*
X230576Y49074D01*
X230217Y48206D01*
Y47266D01*
X230576Y46398D01*
X231241Y45734D01*
X232109Y45374D01*
X233049D01*
X233917Y45734D01*
X234581Y46398D01*
X234700Y46685D01*
X238418D01*
Y43252D01*
X237083D01*
Y39118D01*
X241309D01*
X241611Y39118D01*
Y39118D01*
X241809Y39118D01*
Y39118D01*
X246337D01*
Y43252D01*
X242110D01*
X241809Y43252D01*
Y43252D01*
X241611Y43252D01*
Y43252D01*
X240641D01*
Y47337D01*
X244798Y51493D01*
X244798Y51493D01*
X245039Y51854D01*
X245124Y52280D01*
X245124Y52280D01*
Y55004D01*
X247547D01*
X247854Y55065D01*
X248115Y55239D01*
X248289Y55500D01*
X248350Y55807D01*
Y64059D01*
X253453D01*
X253760Y64121D01*
X254020Y64294D01*
X254194Y64555D01*
X254256Y64862D01*
Y71327D01*
X254194Y71634D01*
X254020Y71895D01*
X253760Y72069D01*
X253453Y72130D01*
X252661D01*
X252575Y72594D01*
X252575Y72630D01*
Y75547D01*
X248933D01*
Y75842D01*
X248638D01*
Y79090D01*
X245595D01*
X245291Y79090D01*
D02*
G37*
G36*
X317339Y73185D02*
X315370D01*
Y71019D01*
X317339D01*
Y73185D01*
D02*
G37*
G36*
X314780D02*
X312811D01*
Y71019D01*
X314780D01*
Y73185D01*
D02*
G37*
G36*
X391650Y71118D02*
X389977D01*
Y69051D01*
X391650D01*
Y71118D01*
D02*
G37*
G36*
X389386D02*
X387713D01*
Y69051D01*
X389386D01*
Y71118D01*
D02*
G37*
G36*
X391650Y68460D02*
X389977D01*
Y66393D01*
X391650D01*
Y68460D01*
D02*
G37*
G36*
X389386D02*
X387713D01*
Y66393D01*
X389386D01*
Y68460D01*
D02*
G37*
G36*
X271965Y68362D02*
X270291D01*
Y66295D01*
X271965D01*
Y68362D01*
D02*
G37*
G36*
X269701D02*
X268028D01*
Y66295D01*
X269701D01*
Y68362D01*
D02*
G37*
G36*
X178991Y71719D02*
X177756D01*
Y66043D01*
X180361D01*
Y70349D01*
X180257Y70873D01*
X179960Y71318D01*
X179515Y71615D01*
X178991Y71719D01*
D02*
G37*
G36*
X177165D02*
X175931D01*
X175406Y71615D01*
X174962Y71318D01*
X174665Y70873D01*
X174560Y70349D01*
Y66043D01*
X177165D01*
Y71719D01*
D02*
G37*
G36*
X148872D02*
X147638D01*
Y66043D01*
X150243D01*
Y70349D01*
X150138Y70873D01*
X149841Y71318D01*
X149397Y71615D01*
X148872Y71719D01*
D02*
G37*
G36*
X147047D02*
X145813D01*
X145288Y71615D01*
X144844Y71318D01*
X144546Y70873D01*
X144442Y70349D01*
Y66043D01*
X147047D01*
Y71719D01*
D02*
G37*
G36*
X478642Y124944D02*
X65650D01*
X64805Y124776D01*
X64088Y124297D01*
X58236Y118445D01*
X57638D01*
X56802Y118221D01*
X56052Y117788D01*
X55440Y117176D01*
X55007Y116426D01*
X54783Y115590D01*
Y114725D01*
X55007Y113889D01*
X55440Y113139D01*
X56052Y112527D01*
X56802Y112094D01*
X57638Y111870D01*
X58504D01*
X59340Y112094D01*
X60089Y112527D01*
X60701Y113139D01*
X61134Y113889D01*
X61358Y114725D01*
Y115323D01*
X66564Y120528D01*
X477727D01*
X522061Y76195D01*
X522777Y75716D01*
X523622Y75548D01*
X599282D01*
X602070Y72761D01*
X601920Y72612D01*
X601350Y71624D01*
X601055Y70523D01*
Y69383D01*
X601350Y68281D01*
X601920Y67294D01*
X602727Y66487D01*
X603714Y65917D01*
X604816Y65622D01*
X605956D01*
X607057Y65917D01*
X608045Y66487D01*
X608851Y67294D01*
X609421Y68281D01*
X609717Y69383D01*
Y70523D01*
X609421Y71624D01*
X608851Y72612D01*
X608045Y73418D01*
X607057Y73988D01*
X606688Y74087D01*
X606672Y74165D01*
X606194Y74881D01*
X601758Y79317D01*
X601042Y79796D01*
X600197Y79964D01*
X524537D01*
X480203Y124297D01*
X479487Y124776D01*
X478642Y124944D01*
D02*
G37*
G36*
X474508Y119235D02*
X72236D01*
X71391Y119067D01*
X70674Y118589D01*
X65609Y113524D01*
X65512D01*
X64676Y113300D01*
X63926Y112867D01*
X63314Y112255D01*
X62881Y111505D01*
X62657Y110669D01*
Y109803D01*
X62881Y108967D01*
X63314Y108218D01*
X63926Y107606D01*
X64676Y107173D01*
X65512Y106949D01*
X66378D01*
X67214Y107173D01*
X67963Y107606D01*
X68576Y108218D01*
X69008Y108967D01*
X69232Y109803D01*
Y110669D01*
X69183Y110853D01*
X73150Y114820D01*
X473593D01*
X520022Y68392D01*
X520738Y67913D01*
X521583Y67745D01*
X587739D01*
X587999Y67294D01*
X588805Y66487D01*
X589793Y65917D01*
X590894Y65622D01*
X592035D01*
X593136Y65917D01*
X594124Y66487D01*
X594930Y67294D01*
X595500Y68281D01*
X595795Y69383D01*
Y70523D01*
X595500Y71624D01*
X594930Y72612D01*
X594124Y73418D01*
X593136Y73988D01*
X592035Y74283D01*
X590894D01*
X589793Y73988D01*
X588805Y73418D01*
X587999Y72612D01*
X587739Y72161D01*
X522497D01*
X476069Y118589D01*
X475353Y119067D01*
X474508Y119235D01*
D02*
G37*
G36*
X70079Y71555D02*
X64567D01*
Y69235D01*
X45565D01*
X44720Y69067D01*
X44004Y68589D01*
X39530Y64115D01*
X39027Y64250D01*
X37887D01*
X36785Y63955D01*
X35798Y63384D01*
X34991Y62578D01*
X34421Y61591D01*
X34126Y60489D01*
Y59349D01*
X34421Y58248D01*
X34991Y57260D01*
X35798Y56454D01*
X36785Y55884D01*
X37887Y55588D01*
X39027D01*
X40128Y55884D01*
X41116Y56454D01*
X41922Y57260D01*
X42492Y58248D01*
X42787Y59349D01*
Y60489D01*
X42652Y60993D01*
X46480Y64820D01*
X64567D01*
Y64272D01*
X70079D01*
Y71555D01*
D02*
G37*
G36*
X197851Y66098D02*
X195685D01*
Y64130D01*
X197851D01*
Y66098D01*
D02*
G37*
G36*
X195095D02*
X192929D01*
Y64130D01*
X195095D01*
Y66098D01*
D02*
G37*
G36*
Y63539D02*
X192929D01*
Y61571D01*
X195095D01*
Y63539D01*
D02*
G37*
G36*
X180361Y65453D02*
X177756D01*
Y59777D01*
X178991D01*
X179515Y59881D01*
X179960Y60178D01*
X180257Y60623D01*
X180361Y61147D01*
Y65453D01*
D02*
G37*
G36*
X177165D02*
X174560D01*
Y61147D01*
X174665Y60623D01*
X174962Y60178D01*
X175406Y59881D01*
X175931Y59777D01*
X177165D01*
Y65453D01*
D02*
G37*
G36*
X150243Y65453D02*
X147638D01*
Y59777D01*
X148872D01*
X149397Y59881D01*
X149841Y60178D01*
X150138Y60623D01*
X150243Y61147D01*
Y65453D01*
D02*
G37*
G36*
X147047D02*
X144442D01*
Y61147D01*
X144546Y60623D01*
X144844Y60178D01*
X145288Y59881D01*
X145813Y59777D01*
X147047D01*
Y65453D01*
D02*
G37*
G36*
X217043Y61374D02*
X215370D01*
Y59307D01*
X217043D01*
Y61374D01*
D02*
G37*
G36*
X25106Y64250D02*
X23965D01*
X22864Y63955D01*
X21876Y63384D01*
X21070Y62578D01*
X20500Y61591D01*
X20205Y60489D01*
Y59349D01*
X20500Y58248D01*
X21070Y57260D01*
X21876Y56454D01*
X22864Y55884D01*
X23965Y55588D01*
X25106D01*
X25609Y55723D01*
X30138Y51195D01*
X30854Y50716D01*
X31699Y50548D01*
X54724D01*
X55569Y50716D01*
X56286Y51195D01*
X60954Y55863D01*
X64567D01*
Y54429D01*
X70079D01*
Y61713D01*
X64567D01*
Y60279D01*
X60039D01*
X59194Y60111D01*
X58478Y59632D01*
X53810Y54964D01*
X32613D01*
X28731Y58846D01*
X28866Y59349D01*
Y60489D01*
X28571Y61591D01*
X28001Y62578D01*
X27194Y63384D01*
X26207Y63955D01*
X25106Y64250D01*
D02*
G37*
G36*
X222018Y59372D02*
X220784D01*
Y53696D01*
X223389D01*
Y58002D01*
X223284Y58526D01*
X222987Y58971D01*
X222543Y59268D01*
X222018Y59372D01*
D02*
G37*
G36*
X220193D02*
X218958D01*
X218434Y59268D01*
X217989Y58971D01*
X217692Y58526D01*
X217588Y58002D01*
Y53696D01*
X220193D01*
Y59372D01*
D02*
G37*
G36*
X148872Y58727D02*
X147638D01*
Y53051D01*
X150243D01*
Y57357D01*
X150138Y57881D01*
X149841Y58326D01*
X149397Y58623D01*
X148872Y58727D01*
D02*
G37*
G36*
X178991D02*
X177756D01*
Y53051D01*
X180361D01*
Y57357D01*
X180257Y57881D01*
X179960Y58326D01*
X179515Y58623D01*
X178991Y58727D01*
D02*
G37*
G36*
X177165D02*
X175931D01*
X175406Y58623D01*
X174962Y58326D01*
X174665Y57881D01*
X174560Y57357D01*
Y53051D01*
X177165D01*
Y58727D01*
D02*
G37*
G36*
X147047D02*
X145813D01*
X145288Y58623D01*
X144844Y58326D01*
X144546Y57881D01*
X144442Y57357D01*
Y53051D01*
X147047D01*
Y58727D01*
D02*
G37*
G36*
X380232Y53893D02*
X378166D01*
Y52220D01*
X380232D01*
Y53893D01*
D02*
G37*
G36*
X372457D02*
X370390D01*
Y52220D01*
X372457D01*
Y53893D01*
D02*
G37*
G36*
X81299Y77461D02*
X78347D01*
X75394D01*
Y73917D01*
X76075D01*
X76226Y73417D01*
X76204Y73402D01*
X74235Y71434D01*
X74061Y71173D01*
X74000Y70866D01*
Y53150D01*
X74000Y53150D01*
X74061Y52842D01*
X74235Y52582D01*
X75220Y51598D01*
X75480Y51424D01*
X75787Y51363D01*
X109252D01*
X109252Y51363D01*
X109559Y51424D01*
X109820Y51598D01*
X109820Y51598D01*
X110804Y52582D01*
X110978Y52842D01*
X111039Y53150D01*
X111039Y69882D01*
X110978Y70189D01*
X110804Y70450D01*
X110804Y70450D01*
X107851Y73402D01*
X107591Y73576D01*
X107283Y73637D01*
X81683D01*
X81299Y73917D01*
X81299Y74138D01*
Y77461D01*
D02*
G37*
G36*
X197055Y49705D02*
X195087D01*
Y47539D01*
X197055D01*
Y49705D01*
D02*
G37*
G36*
X194496D02*
X192527D01*
Y47539D01*
X194496D01*
Y49705D01*
D02*
G37*
G36*
X346079Y50350D02*
X342733D01*
Y47397D01*
X346079D01*
Y50350D01*
D02*
G37*
G36*
X342142D02*
X338795D01*
Y47397D01*
X342142D01*
Y50350D01*
D02*
G37*
G36*
X337811D02*
X334465D01*
Y47397D01*
X337811D01*
Y50350D01*
D02*
G37*
G36*
X333874D02*
X330528D01*
Y47397D01*
X333874D01*
Y50350D01*
D02*
G37*
G36*
X329543D02*
X326197D01*
Y47397D01*
X329543D01*
Y50350D01*
D02*
G37*
G36*
X325606D02*
X322260D01*
Y47397D01*
X325606D01*
Y50350D01*
D02*
G37*
G36*
X321276D02*
X317929D01*
Y47397D01*
X321276D01*
Y50350D01*
D02*
G37*
G36*
X317339D02*
X313992D01*
Y47397D01*
X317339D01*
Y50350D01*
D02*
G37*
G36*
X313008D02*
X309662D01*
Y47397D01*
X313008D01*
Y50350D01*
D02*
G37*
G36*
X309071D02*
X305725D01*
Y47397D01*
X309071D01*
Y50350D01*
D02*
G37*
G36*
X180361Y52461D02*
X177756D01*
Y46785D01*
X178991D01*
X179515Y46889D01*
X179960Y47186D01*
X180257Y47631D01*
X180361Y48155D01*
Y52461D01*
D02*
G37*
G36*
X177165D02*
X174560D01*
Y48155D01*
X174665Y47631D01*
X174962Y47186D01*
X175406Y46889D01*
X175931Y46785D01*
X177165D01*
Y52461D01*
D02*
G37*
G36*
X150243D02*
X147638D01*
Y46785D01*
X148872D01*
X149397Y46889D01*
X149841Y47186D01*
X150138Y47631D01*
X150243Y48155D01*
Y52461D01*
D02*
G37*
G36*
X147047D02*
X144442D01*
Y48155D01*
X144546Y47631D01*
X144844Y47186D01*
X145288Y46889D01*
X145813Y46785D01*
X147047D01*
Y52461D01*
D02*
G37*
G36*
X276540Y47988D02*
X273193D01*
Y45035D01*
X276540D01*
Y47988D01*
D02*
G37*
G36*
X272603D02*
X269256D01*
Y45035D01*
X272603D01*
Y47988D01*
D02*
G37*
G36*
X268520D02*
X265173D01*
Y45035D01*
X268520D01*
Y47988D01*
D02*
G37*
G36*
X264583D02*
X261236D01*
Y45035D01*
X264583D01*
Y47988D01*
D02*
G37*
G36*
X197055Y46949D02*
X195087D01*
Y44783D01*
X197055D01*
Y46949D01*
D02*
G37*
G36*
X194496D02*
X192527D01*
Y44783D01*
X194496D01*
Y46949D01*
D02*
G37*
G36*
X223389Y53106D02*
X217588D01*
Y48800D01*
X217692Y48276D01*
X217967Y47865D01*
X217692Y47454D01*
X217588Y46929D01*
Y42624D01*
X223389D01*
Y46929D01*
X223284Y47454D01*
X223010Y47865D01*
X223284Y48276D01*
X223389Y48800D01*
Y53106D01*
D02*
G37*
G36*
X148872Y45735D02*
X147638D01*
Y40059D01*
X150243D01*
Y44365D01*
X150138Y44889D01*
X149841Y45334D01*
X149397Y45631D01*
X148872Y45735D01*
D02*
G37*
G36*
X178991D02*
X177756D01*
Y40059D01*
X180361D01*
Y44365D01*
X180257Y44889D01*
X179960Y45334D01*
X179515Y45631D01*
X178991Y45735D01*
D02*
G37*
G36*
X177165D02*
X175931D01*
X175406Y45631D01*
X174962Y45334D01*
X174665Y44889D01*
X174560Y44365D01*
Y40059D01*
X177165D01*
Y45735D01*
D02*
G37*
G36*
X147047D02*
X145813D01*
X145288Y45631D01*
X144844Y45334D01*
X144546Y44889D01*
X144442Y44365D01*
Y40059D01*
X147047D01*
Y45735D01*
D02*
G37*
G36*
X277339Y40988D02*
X273894D01*
Y35378D01*
X277339D01*
Y40988D01*
D02*
G37*
G36*
X273304D02*
X269859D01*
Y35378D01*
X273304D01*
Y40988D01*
D02*
G37*
G36*
X180361Y39469D02*
X177756D01*
Y33793D01*
X178991D01*
X179515Y33897D01*
X179960Y34194D01*
X180257Y34639D01*
X180361Y35163D01*
Y39469D01*
D02*
G37*
G36*
X177165D02*
X174560D01*
Y35163D01*
X174665Y34639D01*
X174962Y34194D01*
X175406Y33897D01*
X175931Y33793D01*
X177165D01*
Y39469D01*
D02*
G37*
G36*
X150243D02*
X147638D01*
Y33793D01*
X148872D01*
X149397Y33897D01*
X149841Y34194D01*
X150138Y34639D01*
X150243Y35163D01*
Y39469D01*
D02*
G37*
G36*
X147047D02*
X144442D01*
Y35163D01*
X144546Y34639D01*
X144844Y34194D01*
X145288Y33897D01*
X145813Y33793D01*
X147047D01*
Y39469D01*
D02*
G37*
G36*
X223389Y42033D02*
X217588D01*
Y37727D01*
X217692Y37203D01*
X217967Y36792D01*
X217692Y36381D01*
X217588Y35856D01*
Y31551D01*
X223389D01*
Y35856D01*
X223284Y36381D01*
X223010Y36792D01*
X223284Y37203D01*
X223389Y37727D01*
Y42033D01*
D02*
G37*
G36*
X32155Y44045D02*
X30837D01*
X29544Y43788D01*
X28326Y43283D01*
X27230Y42551D01*
X26297Y41619D01*
X25565Y40523D01*
X25060Y39304D01*
X24803Y38011D01*
Y36693D01*
X25060Y35400D01*
X25565Y34182D01*
X26297Y33086D01*
X27230Y32153D01*
X28326Y31421D01*
X29544Y30917D01*
X30837Y30659D01*
X32155D01*
X33448Y30917D01*
X34666Y31421D01*
X35763Y32153D01*
X36695Y33086D01*
X37427Y34182D01*
X37932Y35400D01*
X38189Y36693D01*
Y38011D01*
X37932Y39304D01*
X37427Y40523D01*
X36695Y41619D01*
X35763Y42551D01*
X34666Y43283D01*
X33448Y43788D01*
X32155Y44045D01*
D02*
G37*
G36*
X277339Y34787D02*
X273894D01*
Y29177D01*
X277339D01*
Y34787D01*
D02*
G37*
G36*
X273304D02*
X269859D01*
Y29177D01*
X273304D01*
Y34787D01*
D02*
G37*
G36*
X599084Y40157D02*
X597766D01*
X596473Y39900D01*
X595255Y39396D01*
X594159Y38663D01*
X593226Y37731D01*
X592494Y36635D01*
X591990Y35417D01*
X591732Y34124D01*
Y32805D01*
X591990Y31512D01*
X592494Y30294D01*
X593226Y29198D01*
X594159Y28266D01*
X595255Y27533D01*
X596473Y27029D01*
X597766Y26772D01*
X599084D01*
X600378Y27029D01*
X601595Y27533D01*
X602692Y28266D01*
X603624Y29198D01*
X604356Y30294D01*
X604861Y31512D01*
X605118Y32805D01*
Y34124D01*
X604861Y35417D01*
X604356Y36635D01*
X603624Y37731D01*
X602692Y38663D01*
X601595Y39396D01*
X600378Y39900D01*
X599084Y40157D01*
D02*
G37*
G36*
X241809Y38134D02*
X241611Y38134D01*
X241611Y38134D01*
X237083D01*
Y34000D01*
X240972D01*
Y30566D01*
X240116D01*
Y26629D01*
X244053D01*
Y30566D01*
X243196D01*
Y34000D01*
X246337D01*
Y38134D01*
X242096D01*
X241809Y38134D01*
D02*
G37*
G36*
X352439Y37347D02*
X352416Y37347D01*
X351953Y37347D01*
X347713D01*
Y33213D01*
X351502D01*
Y30358D01*
X350646D01*
Y26421D01*
X354583D01*
Y30358D01*
X353726D01*
Y33213D01*
X356966D01*
Y37347D01*
X352726D01*
X352439Y37347D01*
Y37347D01*
D02*
G37*
G36*
X223389Y30960D02*
X220784D01*
Y25284D01*
X222018D01*
X222543Y25389D01*
X222987Y25686D01*
X223284Y26130D01*
X223389Y26655D01*
Y30960D01*
D02*
G37*
G36*
X220193D02*
X217588D01*
Y26655D01*
X217692Y26130D01*
X217989Y25686D01*
X218434Y25389D01*
X218958Y25284D01*
X220193D01*
Y30960D01*
D02*
G37*
G36*
X614988Y41732D02*
X613359D01*
X611762Y41415D01*
X610257Y40791D01*
X608903Y39887D01*
X607751Y38735D01*
X606847Y37381D01*
X606223Y35876D01*
X605905Y34279D01*
Y32650D01*
X606223Y31053D01*
X606847Y29548D01*
X607751Y28194D01*
X608903Y27043D01*
X610257Y26138D01*
X611762Y25515D01*
X613359Y25197D01*
X614988D01*
X616585Y25515D01*
X618089Y26138D01*
X619444Y27043D01*
X620595Y28194D01*
X621500Y29548D01*
X622123Y31053D01*
X622441Y32650D01*
Y34279D01*
X622123Y35876D01*
X621500Y37381D01*
X620595Y38735D01*
X619444Y39887D01*
X618089Y40791D01*
X616585Y41415D01*
X614988Y41732D01*
D02*
G37*
G36*
X249353Y25197D02*
X249311D01*
Y22933D01*
X251575D01*
Y22975D01*
X251400Y23626D01*
X251063Y24209D01*
X250587Y24686D01*
X250004Y25023D01*
X249353Y25197D01*
D02*
G37*
G36*
X248721D02*
X248679D01*
X248028Y25023D01*
X247445Y24686D01*
X246968Y24209D01*
X246631Y23626D01*
X246457Y22975D01*
Y22933D01*
X248721D01*
Y25197D01*
D02*
G37*
G36*
X244250Y24464D02*
X242380D01*
Y22594D01*
X244250D01*
Y24464D01*
D02*
G37*
G36*
X241789D02*
X239919D01*
Y22594D01*
X241789D01*
Y24464D01*
D02*
G37*
G36*
X354780Y24256D02*
X352909D01*
Y22386D01*
X354780D01*
Y24256D01*
D02*
G37*
G36*
X352319D02*
X350449D01*
Y22386D01*
X352319D01*
Y24256D01*
D02*
G37*
G36*
X244250Y22004D02*
X242380D01*
Y20133D01*
X244250D01*
Y22004D01*
D02*
G37*
G36*
X241789D02*
X239919D01*
Y20133D01*
X241789D01*
Y22004D01*
D02*
G37*
G36*
X251575Y22343D02*
X249311D01*
Y20079D01*
X249353D01*
X250004Y20253D01*
X250587Y20590D01*
X251063Y21067D01*
X251400Y21650D01*
X251575Y22301D01*
Y22343D01*
D02*
G37*
G36*
X248721D02*
X246457D01*
Y22301D01*
X246631Y21650D01*
X246968Y21067D01*
X247445Y20590D01*
X248028Y20253D01*
X248679Y20079D01*
X248721D01*
Y22343D01*
D02*
G37*
G36*
X354780Y21795D02*
X352909D01*
Y19925D01*
X354780D01*
Y21795D01*
D02*
G37*
G36*
X352319D02*
X350449D01*
Y19925D01*
X352319D01*
Y21795D01*
D02*
G37*
G36*
X194685Y21161D02*
X192815D01*
Y19291D01*
X194685D01*
Y21161D01*
D02*
G37*
G36*
X192224D02*
X190354D01*
Y19291D01*
X192224D01*
Y21161D01*
D02*
G37*
G36*
X181004Y21555D02*
X176870D01*
Y17028D01*
X181004D01*
Y18368D01*
X184252D01*
Y17028D01*
X188189D01*
Y20965D01*
X184252D01*
Y20215D01*
X181004D01*
Y21555D01*
D02*
G37*
G36*
X169291Y96275D02*
X119095Y96275D01*
X118787Y96214D01*
X118527Y96040D01*
X118353Y95780D01*
X118292Y95472D01*
Y93898D01*
X116634D01*
Y91535D01*
Y89173D01*
X118292D01*
Y87008D01*
X116634D01*
Y84646D01*
Y82284D01*
X118292D01*
Y80118D01*
X116634D01*
Y77756D01*
Y75394D01*
X117843D01*
X118050Y74894D01*
X114590Y71434D01*
X114416Y71173D01*
X114355Y70866D01*
Y51181D01*
X114416Y50874D01*
X114590Y50613D01*
X114850Y50439D01*
X115157Y50378D01*
X133465D01*
X133465Y50378D01*
X133772Y50439D01*
X134032Y50613D01*
X134032Y50613D01*
X136788Y53369D01*
X136962Y53630D01*
X137023Y53937D01*
Y79195D01*
X143640Y85811D01*
X154225Y85811D01*
Y30996D01*
X154225Y30996D01*
X154286Y30689D01*
X154460Y30428D01*
X162129Y22759D01*
X162390Y22585D01*
X162697Y22524D01*
X164708D01*
X164764Y22047D01*
X164764Y22024D01*
Y17913D01*
X169291D01*
Y18868D01*
X171752D01*
Y17028D01*
X175886D01*
Y21555D01*
X171752D01*
Y21092D01*
X169291D01*
Y22024D01*
X169291Y22047D01*
X169348Y22524D01*
X191535D01*
X191843Y22585D01*
X192103Y22759D01*
X192277Y23020D01*
X192338Y23327D01*
Y31890D01*
X192277Y32197D01*
X192103Y32458D01*
X191843Y32631D01*
X191535Y32693D01*
X173758Y32693D01*
X170094Y36356D01*
Y95472D01*
X170033Y95780D01*
X169859Y96040D01*
X169599Y96214D01*
X169291Y96275D01*
D02*
G37*
G36*
X194685Y18701D02*
X192815D01*
Y16831D01*
X194685D01*
Y18701D01*
D02*
G37*
G36*
X192224D02*
X190354D01*
Y16831D01*
X192224D01*
Y18701D01*
D02*
G37*
G36*
X616879Y21260D02*
X615405D01*
X613960Y20972D01*
X612599Y20409D01*
X611373Y19590D01*
X610331Y18548D01*
X609513Y17323D01*
X608949Y15961D01*
X608661Y14516D01*
Y13043D01*
X608949Y11598D01*
X609513Y10236D01*
X610331Y9011D01*
X611373Y7969D01*
X612599Y7151D01*
X613960Y6587D01*
X615405Y6299D01*
X616879D01*
X618324Y6587D01*
X619685Y7151D01*
X620910Y7969D01*
X621952Y9011D01*
X622771Y10236D01*
X623335Y11598D01*
X623622Y13043D01*
Y14516D01*
X623335Y15961D01*
X622771Y17323D01*
X621952Y18548D01*
X620910Y19590D01*
X619685Y20409D01*
X618324Y20972D01*
X616879Y21260D01*
D02*
G37*
G36*
X14516D02*
X13043D01*
X11598Y20972D01*
X10236Y20409D01*
X9011Y19590D01*
X7969Y18548D01*
X7151Y17323D01*
X6587Y15961D01*
X6299Y14516D01*
Y13043D01*
X6587Y11598D01*
X7151Y10236D01*
X7969Y9011D01*
X9011Y7969D01*
X10236Y7151D01*
X11598Y6587D01*
X13043Y6299D01*
X14516D01*
X15961Y6587D01*
X17323Y7151D01*
X18548Y7969D01*
X19590Y9011D01*
X20409Y10236D01*
X20972Y11598D01*
X21260Y13043D01*
Y14516D01*
X20972Y15961D01*
X20409Y17323D01*
X19590Y18548D01*
X18548Y19590D01*
X17323Y20409D01*
X15961Y20972D01*
X14516Y21260D01*
D02*
G37*
%LPD*%
G36*
X551378Y258583D02*
X562578D01*
X562795Y258583D01*
X563078Y258200D01*
Y248917D01*
X562697D01*
Y244587D01*
X563128D01*
Y242249D01*
X562286D01*
Y238295D01*
X562286Y238115D01*
X561918Y237795D01*
X560792D01*
Y230315D01*
X548588D01*
Y231299D01*
X548917D01*
Y235630D01*
X548600D01*
Y236761D01*
X548913Y237074D01*
X549213Y237797D01*
Y238580D01*
X548913Y239304D01*
X548359Y239858D01*
X547636Y240158D01*
X546852D01*
X546129Y239858D01*
X545575Y239304D01*
X545276Y238580D01*
Y237797D01*
X545575Y237074D01*
X545790Y236859D01*
Y235630D01*
X545374D01*
Y231299D01*
X545778D01*
Y230315D01*
X543666D01*
Y237795D01*
X541815D01*
X541796Y238287D01*
X541796Y238295D01*
Y242421D01*
X541577D01*
Y244882D01*
X541929D01*
Y249213D01*
X541577D01*
Y254157D01*
X543267Y255847D01*
X548338Y260918D01*
X551378D01*
Y258583D01*
D02*
G37*
%LPC*%
G36*
X547638Y249409D02*
X545965D01*
Y247342D01*
X547638D01*
Y249409D01*
D02*
G37*
G36*
X545374D02*
X543701D01*
Y247342D01*
X545374D01*
Y249409D01*
D02*
G37*
G36*
X560925Y249114D02*
X559252D01*
Y247047D01*
X560925D01*
Y249114D01*
D02*
G37*
G36*
X558661D02*
X556988D01*
Y247047D01*
X558661D01*
Y249114D01*
D02*
G37*
G36*
X547638Y246752D02*
X545965D01*
Y244685D01*
X547638D01*
Y246752D01*
D02*
G37*
G36*
X545374D02*
X543701D01*
Y244685D01*
X545374D01*
Y246752D01*
D02*
G37*
G36*
X560925Y246457D02*
X559252D01*
Y244390D01*
X560925D01*
Y246457D01*
D02*
G37*
G36*
X558661D02*
X556988D01*
Y244390D01*
X558661D01*
Y246457D01*
D02*
G37*
G36*
X554626Y235827D02*
X552953D01*
Y233760D01*
X554626D01*
Y235827D01*
D02*
G37*
G36*
X552362D02*
X550689D01*
Y233760D01*
X552362D01*
Y235827D01*
D02*
G37*
G36*
X554626Y233169D02*
X552953D01*
Y231102D01*
X554626D01*
Y233169D01*
D02*
G37*
G36*
X552362D02*
X550689D01*
Y231102D01*
X552362D01*
Y233169D01*
D02*
G37*
%LPD*%
G36*
X380224Y101152D02*
X380224Y71092D01*
X379646Y70462D01*
X369777D01*
Y85965D01*
X369044Y86698D01*
X366454D01*
X366454Y101526D01*
X379778Y101596D01*
X380224Y101152D01*
D02*
G37*
G36*
X380028Y56988D02*
X359161D01*
Y66437D01*
X380028D01*
Y56988D01*
D02*
G37*
G36*
X284028Y62684D02*
X284089Y62377D01*
X284263Y62116D01*
X284524Y61942D01*
X284831Y61881D01*
X287236D01*
Y53150D01*
X287297Y52842D01*
X287471Y52582D01*
X287731Y52408D01*
X288038Y52347D01*
X288886D01*
Y29035D01*
X281799D01*
Y52264D01*
X250303D01*
Y62576D01*
X279262D01*
Y64862D01*
X284028D01*
Y62684D01*
D02*
G37*
G36*
X356602Y55020D02*
X298949D01*
X295586Y57426D01*
Y61934D01*
X297533D01*
X297840Y61995D01*
X298100Y62169D01*
X298221Y62349D01*
X298335Y62463D01*
Y62733D01*
X298335Y62736D01*
Y64987D01*
X302548D01*
X302548D01*
D01*
X302855Y65048D01*
X303029Y65164D01*
X303115Y65222D01*
Y65222D01*
X303115D01*
X303138Y65256D01*
X356602D01*
Y55020D01*
D02*
G37*
G36*
X205815Y75689D02*
X205160D01*
X205147Y75698D01*
X204840Y75759D01*
X202082D01*
X201878Y75927D01*
Y92618D01*
X205815D01*
Y75689D01*
D02*
G37*
G36*
X219733Y75171D02*
X219671Y75021D01*
X219646Y74983D01*
X219148Y74598D01*
X207922Y74598D01*
Y75750D01*
X208041Y75928D01*
X208102Y76235D01*
Y80174D01*
X208062Y80374D01*
X208274Y80780D01*
X208449Y81004D01*
X219733D01*
Y75171D01*
D02*
G37*
G36*
X253453Y64862D02*
X247547D01*
Y55807D01*
X240722D01*
X240559Y56201D01*
Y64862D01*
X211342D01*
Y69980D01*
X211307Y70157D01*
X211546Y70600D01*
X211705Y70787D01*
X219386D01*
X219693Y70849D01*
X219837Y70908D01*
X219837Y70908D01*
X220098Y71082D01*
X220098Y71083D01*
X220209Y71193D01*
X220298Y71327D01*
X253453D01*
Y64862D01*
D02*
G37*
G36*
X210539Y63681D02*
X212508D01*
Y59350D01*
Y22933D01*
X194882D01*
Y38091D01*
X205028D01*
X205815Y38878D01*
Y62746D01*
X206750Y63681D01*
X207784D01*
Y64588D01*
X207867Y64644D01*
X208041Y64904D01*
X208102Y65211D01*
Y65438D01*
X208116Y65508D01*
Y67181D01*
X208102Y67250D01*
Y69150D01*
X208062Y69350D01*
X208274Y69756D01*
X208449Y69980D01*
X210539D01*
Y63681D01*
D02*
G37*
G36*
X110236Y69882D02*
X110236Y53150D01*
X109252Y52165D01*
X75787D01*
X74803Y53150D01*
Y70866D01*
X76772Y72835D01*
X107283D01*
X110236Y69882D01*
D02*
G37*
G36*
X169291Y36024D02*
X173425Y31890D01*
X191535Y31890D01*
Y23327D01*
X162697D01*
X155027Y30996D01*
Y86614D01*
X143307Y86614D01*
X136221Y79528D01*
Y53937D01*
X133465Y51181D01*
X115157D01*
Y70866D01*
X119095Y74803D01*
Y95472D01*
X169291Y95472D01*
Y36024D01*
D02*
G37*
D10*
X567010Y226363D02*
X569090Y224283D01*
Y223614D02*
X569761Y222942D01*
X564549Y226363D02*
X567010D01*
X569090Y223614D02*
Y224283D01*
X569761Y222942D02*
X570430D01*
X563770Y227142D02*
X564549Y226363D01*
X563219Y227142D02*
X563770D01*
X564549Y227922D02*
Y235064D01*
X563770Y227142D02*
X564549Y227922D01*
X540312Y227142D02*
X541865D01*
X540143D02*
X540312D01*
X536516Y223515D02*
X540143Y227142D01*
X535688Y223515D02*
X536516D01*
X534790Y222618D02*
X535688Y223515D01*
X539532Y227922D02*
Y235236D01*
Y227922D02*
X540312Y227142D01*
X402748Y212922D02*
X404273D01*
X406772Y215421D01*
X402000Y212174D02*
X402748Y212922D01*
X406772Y215421D02*
Y215756D01*
X407669Y216653D01*
X413437D01*
X401968Y212143D02*
X402000Y212174D01*
X403404Y210770D01*
X400902Y212143D02*
X401968D01*
X377045Y212922D02*
X377825Y212143D01*
X376105Y212922D02*
X377045D01*
X373705Y215323D02*
X376105Y212922D01*
X372807Y216555D02*
X373705Y215657D01*
X367138Y216555D02*
X372807D01*
X377825Y212143D02*
X379547D01*
X373705Y215323D02*
Y215657D01*
X373273Y223419D02*
Y224799D01*
X372472Y222618D02*
X373273Y223419D01*
Y224799D02*
X375617Y227143D01*
X378669D02*
X379547D01*
X375617D02*
X378669D01*
X366547Y222618D02*
X372472D01*
X377889Y227922D02*
X378669Y227143D01*
X377889Y227922D02*
Y235493D01*
X401452Y227143D02*
X402232Y227922D01*
X400902Y227143D02*
X401452D01*
X402232Y227922D02*
Y235064D01*
X243618Y210527D02*
Y211396D01*
X244832Y211741D02*
X247331Y214240D01*
X243618Y211396D02*
X243963Y211741D01*
X244832D01*
X243183Y210962D02*
X243618Y210527D01*
X247331Y214240D02*
Y214575D01*
X248228Y215473D01*
X253996D01*
X241461Y210962D02*
X243183D01*
X254193Y221535D02*
X254567Y221161D01*
X248563Y221535D02*
X254193D01*
X241826Y225962D02*
X243183D01*
X241461D02*
X241826D01*
X243183D02*
X246712Y222433D01*
X247665D01*
X248563Y221535D01*
X241826Y225962D02*
X242791Y226926D01*
Y233883D01*
X214000Y223449D02*
X216190Y225639D01*
X219090D02*
X219413Y225962D01*
X213103Y221437D02*
X214000Y222335D01*
X216190Y225639D02*
X219090D01*
X214000Y222335D02*
Y223449D01*
X207106Y221437D02*
X213103D01*
X219413Y225962D02*
X220106D01*
X218448Y226926D02*
Y234312D01*
Y226926D02*
X219413Y225962D01*
X570322Y222716D02*
X575952D01*
X528865Y222618D02*
X534790D01*
X408004Y222717D02*
X413634D01*
X404692Y226363D02*
X408112Y222943D01*
X401681Y226363D02*
X404692D01*
X207697Y215374D02*
X213366D01*
X215689Y201969D02*
X217756Y199902D01*
X215689Y201969D02*
Y208267D01*
X218384Y210962D01*
X216664Y211741D02*
X219327D01*
X214264Y214142D02*
X216664Y211741D01*
X244134Y199902D02*
X246213Y201980D01*
X246299D01*
Y205610D01*
X243963Y207947D02*
X246299Y205610D01*
X243963Y207947D02*
Y210182D01*
X375130Y203150D02*
X377197Y201083D01*
X375130Y203150D02*
Y209448D01*
X377825Y212143D01*
X403575Y201083D02*
X405654Y203161D01*
X405740D01*
Y206791D01*
X403404Y209128D02*
X405740Y206791D01*
X403404Y209128D02*
Y210770D01*
X529456Y216555D02*
X535125D01*
X537448Y203149D02*
X539515Y201082D01*
X537448Y203149D02*
Y209448D01*
X540143Y212142D01*
X538423Y212922D02*
X541086D01*
X536023Y215322D02*
X538423Y212922D01*
X565893Y201082D02*
X567972Y203161D01*
X568058D01*
Y206791D01*
X565721Y209128D02*
X568058Y206791D01*
X565721Y209128D02*
Y211363D01*
X563999Y212922D02*
X566590D01*
X569090Y215421D01*
X569987Y216653D02*
X575755D01*
X59941Y203839D02*
Y210137D01*
Y203839D02*
X62008Y201772D01*
X59941Y210137D02*
X62636Y212832D01*
X62008Y201575D02*
Y201772D01*
X62636Y212832D02*
X64358D01*
X90465Y203850D02*
X90551D01*
X88386Y201575D02*
Y201772D01*
X90465Y203850D01*
X90551D02*
Y207480D01*
X88214Y209817D02*
X90551Y207480D01*
X85713Y212832D02*
X87435D01*
X88214Y212052D01*
Y209817D02*
Y212052D01*
X62700Y236182D02*
X63480Y235402D01*
Y227832D02*
Y235402D01*
X86492Y213611D02*
X89084D01*
X92480Y217342D02*
X98248D01*
X85713Y212832D02*
X86492Y213611D01*
X91583Y216110D02*
Y216445D01*
X92480Y217342D01*
X89084Y213611D02*
X91583Y216110D01*
X92815Y223406D02*
X98445D01*
X92480D02*
X92815D01*
X89503Y227052D02*
X92923Y223632D01*
X86492Y227052D02*
X89503D01*
X85713Y227832D02*
X86492Y227052D01*
X98445Y223406D02*
X98819Y223031D01*
X98248Y217342D02*
X98819Y217913D01*
X60916Y213611D02*
X63579D01*
X51949Y217244D02*
X57618D01*
X58516Y216012D02*
X60916Y213611D01*
X57618Y217244D02*
X58516Y216347D01*
Y216012D02*
Y216347D01*
X63579Y213611D02*
X64358Y212832D01*
X51181Y218012D02*
X51949Y217244D01*
X51358Y223307D02*
X57283D01*
X51181Y223130D02*
X51358Y223307D01*
X63480Y227832D02*
X64358D01*
X62636D02*
X63480D01*
X58181Y224205D02*
X59009D01*
X62636Y227832D01*
X57283Y223307D02*
X58181Y224205D01*
X85943Y231046D02*
X87043Y232145D01*
X85713Y227832D02*
X85943Y228062D01*
X87043Y232145D02*
Y235753D01*
X85943Y228062D02*
Y231046D01*
X173917Y18701D02*
Y18807D01*
X167028Y19980D02*
X172744D01*
X173917Y18807D01*
X197119Y59889D02*
X202548Y65319D01*
X203372D02*
X203807Y65754D01*
X202548Y65319D02*
X203372D01*
X203807Y65754D02*
Y67181D01*
X196563Y59889D02*
X197119D01*
X239529Y41185D02*
Y47797D01*
X232640D02*
X239529D01*
X232579Y47736D02*
X232640Y47797D01*
X239529Y41185D02*
X244073D01*
X239347D02*
X239529D01*
Y47797D02*
X244012Y52280D01*
Y58913D01*
X207004Y65508D02*
Y67181D01*
X203914Y62417D02*
X207004Y65508D01*
X203914Y50114D02*
Y62417D01*
X194591Y57917D02*
X196563Y59889D01*
X309957Y78888D02*
Y78992D01*
X307569Y77715D02*
X308784D01*
X300507Y74267D02*
X304121D01*
X308784Y77715D02*
X309957Y78888D01*
X304121Y74267D02*
X307569Y77715D01*
X244073Y41185D02*
X244073Y41185D01*
X352280Y58913D02*
X352733Y58460D01*
Y46894D02*
Y58460D01*
X200705Y41590D02*
X200902Y41393D01*
X200705Y41590D02*
Y46708D01*
Y46905D01*
X203914Y50114D01*
X209552Y90201D02*
X212890D01*
X209366Y90015D02*
X209552Y90201D01*
X188559Y57917D02*
X194591D01*
X195390Y53598D02*
X195401Y53587D01*
X200370D01*
X190922Y73272D02*
X190967Y73317D01*
X195345D01*
X195390Y73362D01*
X288696Y78401D02*
Y87258D01*
X291256Y89819D01*
X291709Y82746D02*
Y83114D01*
X291255Y78401D02*
Y82292D01*
X291709Y82746D01*
X285744Y80171D02*
Y90015D01*
Y80171D02*
X286137Y79779D01*
Y78401D02*
Y79779D01*
X291256Y89819D02*
Y90015D01*
X309442Y91317D02*
X309957Y90803D01*
X305821Y91317D02*
X309442D01*
X309957Y73283D02*
Y73480D01*
X308382Y71708D02*
X309957Y73283D01*
X300507Y71708D02*
X308382D01*
X309957Y84700D02*
Y84897D01*
X303657Y78401D02*
X309957Y84700D01*
X296373Y78401D02*
X303657D01*
X241710Y35144D02*
Y36067D01*
Y35144D02*
X242084Y34769D01*
X239347Y36067D02*
X244073D01*
X244073Y36067D01*
X239347Y36067D02*
X239347Y36067D01*
X352733Y40457D02*
Y46894D01*
X352673Y40398D02*
X354702D01*
X349977Y40398D02*
X350036Y40457D01*
X352733D01*
X354702Y40398D02*
X354703Y40398D01*
X349977Y35280D02*
X349977Y35280D01*
X354702D01*
X354703Y35280D01*
X352614Y28390D02*
Y35181D01*
X275508Y66000D02*
X276098Y66590D01*
X282003D01*
X277058Y69149D02*
X282003D01*
X275483Y70724D02*
X277058Y69149D01*
X275114Y70724D02*
X275483D01*
X278259Y71897D02*
X281814D01*
X282003Y71708D01*
X275303Y74853D02*
X278259Y71897D01*
X273622Y76547D02*
X275303Y74866D01*
Y74853D02*
Y74866D01*
X273229Y76547D02*
X273622D01*
X274130Y82929D02*
X274504Y82555D01*
X282003Y77615D02*
X282003Y74267D01*
X274504Y82555D02*
X277063D01*
X282003Y77615D01*
X242084Y28598D02*
Y34769D01*
X241464Y35389D02*
X242084Y34769D01*
D16*
X552064Y164865D02*
X565127Y151802D01*
X552064Y164865D02*
Y182517D01*
X565749Y153302D02*
X579094D01*
X553564Y165486D02*
Y182517D01*
X565127Y151802D02*
X579715D01*
X553564Y165486D02*
X565749Y153302D01*
X549047Y161736D02*
X567806Y142977D01*
X579839D01*
X548425Y160236D02*
X567185Y141477D01*
X410992Y160236D02*
X548425D01*
X567185Y141477D02*
X579218D01*
X411613Y161736D02*
X549047D01*
X391247Y182103D02*
X411613Y161736D01*
X389746Y181482D02*
X410992Y160236D01*
X254535Y158193D02*
X544791D01*
X231805Y180922D02*
X254535Y158193D01*
X544169Y156693D02*
X569291Y131571D01*
X544791Y158193D02*
X569913Y133071D01*
X230306Y180300D02*
X253913Y156693D01*
X544169D01*
X590551Y140157D02*
Y144488D01*
X587413Y137020D02*
X590551Y140157D01*
X587500Y147539D02*
X590551Y144488D01*
X575856Y147539D02*
X587500D01*
X583870Y137020D02*
X587413D01*
X579921Y133071D02*
X583870Y137020D01*
X569291Y131571D02*
X581726D01*
X585512Y132195D02*
X585856Y132539D01*
X582350Y132195D02*
X585512D01*
X581726Y131571D02*
X582350Y132195D01*
X569913Y133071D02*
X579921D01*
X581597Y140770D02*
X582730D01*
X579094Y153302D02*
X579387Y153595D01*
X581011Y141355D02*
Y141805D01*
X579839Y142977D02*
X581011Y141805D01*
Y141355D02*
X581597Y140770D01*
X579387Y153595D02*
Y154009D01*
X575856Y157539D02*
X579387Y154009D01*
X579715Y151802D02*
X580452Y152539D01*
X582730Y140770D02*
X584500Y142539D01*
X580452Y152539D02*
X585856D01*
X584500Y142539D02*
X585856D01*
X576281Y137539D02*
X579511Y140770D01*
X579218Y141477D02*
X579511Y141184D01*
Y140770D02*
Y141184D01*
X575856Y137539D02*
X576281D01*
X230306Y180300D02*
Y181336D01*
X231805Y180922D02*
Y181336D01*
X222114Y185375D02*
X225861Y181629D01*
X230013D02*
X230306Y181336D01*
X232099Y181629D02*
X236251D01*
X231805Y181336D02*
X232099Y181629D01*
X236251D02*
X239997Y185375D01*
X225861Y181629D02*
X230013D01*
X540551Y154331D02*
X570843Y124039D01*
X91018Y154331D02*
X540551D01*
X90397Y152831D02*
X539930D01*
X74558Y168670D02*
X90397Y152831D01*
X76057Y169291D02*
X91018Y154331D01*
X539930Y152831D02*
X570221Y122539D01*
X389746Y181482D02*
Y182517D01*
X391247D02*
X391539Y182810D01*
X391247Y182103D02*
Y182517D01*
X389454Y182810D02*
X389746Y182517D01*
X385301Y182810D02*
X389454D01*
X391539D02*
X395692D01*
X399438Y186556D01*
X381555D02*
X385301Y182810D01*
X551771Y182810D02*
X552064Y182517D01*
X547619Y182810D02*
X551771D01*
X558009D02*
X561756Y186556D01*
X553857Y182810D02*
X558009D01*
X543873Y186556D02*
X547619Y182810D01*
X553564Y182517D02*
X553857Y182810D01*
X393636Y192358D02*
Y194093D01*
X393142Y194587D02*
X393636Y194093D01*
Y192358D02*
X399438Y186556D01*
X234195Y191177D02*
Y192911D01*
X233701Y193405D02*
X234195Y192911D01*
Y191177D02*
X239997Y185375D01*
X222929Y199650D02*
X227784D01*
X223315Y185375D02*
X228189Y190249D01*
Y193405D01*
X227784Y193811D02*
Y199650D01*
X233847D02*
X238961D01*
X233847Y193552D02*
Y199650D01*
X382370Y200831D02*
X387225D01*
X382756Y186556D02*
X387630Y191430D01*
Y194587D01*
X387225Y194992D02*
Y200831D01*
X393288D02*
X398402D01*
X393288Y194733D02*
Y200831D01*
X544688Y200830D02*
X549543D01*
X545074Y186556D02*
X549948Y191430D01*
Y194586D01*
X549543Y194991D02*
Y200830D01*
X555606D02*
X560719D01*
X556588Y190302D02*
Y193458D01*
X555606Y194732D02*
Y200830D01*
X570221Y122539D02*
X585856D01*
X570843Y124039D02*
X574812D01*
X575105Y126788D02*
X575856Y127539D01*
X574812Y124039D02*
X575105Y124332D01*
Y126788D01*
X74558Y168670D02*
Y176524D01*
X74558Y176524D02*
X74558Y176524D01*
X76057Y183206D02*
X76350Y183499D01*
X76057Y177145D02*
X76057Y177145D01*
X76057Y177145D02*
Y183206D01*
X76057Y169291D02*
Y177145D01*
X70113Y183499D02*
X74265D01*
X74558Y176524D02*
Y183206D01*
X74265Y183499D02*
X74558Y183206D01*
X80503Y183499D02*
X84249Y187245D01*
X76350Y183499D02*
X80503D01*
X66366Y187245D02*
X70113Y183499D01*
X72441Y192119D02*
Y195276D01*
X67567Y187245D02*
X72441Y192119D01*
X77953Y195276D02*
X79081Y194148D01*
X82827Y187245D02*
X84249D01*
X79081Y190991D02*
Y194148D01*
Y190991D02*
X82827Y187245D01*
X66366D02*
X67567D01*
X77953Y195276D02*
X78099Y195422D01*
Y201520D01*
X72036Y195681D02*
Y201520D01*
Y195681D02*
X72441Y195276D01*
X67126Y201575D02*
X67181Y201520D01*
X72036D01*
X78099D02*
X83213D01*
X83268Y201575D01*
D18*
X196662Y78189D02*
X200189Y74661D01*
X203461D01*
X195390Y68952D02*
X200591D01*
X202363Y70724D02*
X203461D01*
X200591Y68952D02*
X202363Y70724D01*
X195390Y79110D02*
Y83519D01*
Y79110D02*
X196177D01*
X196662Y78626D01*
Y78189D02*
Y78626D01*
X191315Y68941D02*
X195379D01*
X195390Y68952D01*
D24*
X539532Y240354D02*
D03*
Y235236D02*
D03*
X377889Y240611D02*
D03*
Y235493D02*
D03*
X218448Y234312D02*
D03*
Y239430D02*
D03*
X242791Y233883D02*
D03*
Y239001D02*
D03*
X254567Y216043D02*
D03*
Y221161D02*
D03*
X206929Y216142D02*
D03*
Y221260D02*
D03*
X98819Y223031D02*
D03*
Y217913D02*
D03*
X576326Y222342D02*
D03*
Y217224D02*
D03*
X564549Y235064D02*
D03*
Y240182D02*
D03*
X528688Y217322D02*
D03*
Y222441D02*
D03*
X354703Y35280D02*
D03*
Y40398D02*
D03*
X349977Y35280D02*
D03*
Y40398D02*
D03*
X244073Y41185D02*
D03*
Y36067D02*
D03*
X239347Y41185D02*
D03*
Y36067D02*
D03*
X167028Y25098D02*
D03*
Y19980D02*
D03*
X195390Y58716D02*
D03*
Y53598D02*
D03*
Y63834D02*
D03*
Y68952D02*
D03*
X200591Y40846D02*
D03*
Y35728D02*
D03*
X366370Y217323D02*
D03*
Y222441D02*
D03*
X414008Y217224D02*
D03*
Y222342D02*
D03*
X402232Y235064D02*
D03*
Y240182D02*
D03*
X195390Y83519D02*
D03*
Y88637D02*
D03*
X51181Y218012D02*
D03*
Y223130D02*
D03*
X62700Y236182D02*
D03*
Y241300D02*
D03*
X87043Y240871D02*
D03*
Y235753D02*
D03*
D25*
X248563Y215473D02*
D03*
Y221535D02*
D03*
X213031Y215374D02*
D03*
Y221437D02*
D03*
X570322Y222716D02*
D03*
Y216653D02*
D03*
X534790Y216555D02*
D03*
Y222618D02*
D03*
X372472Y216555D02*
D03*
Y222618D02*
D03*
X408004Y216653D02*
D03*
Y222717D02*
D03*
X57283Y217244D02*
D03*
Y223307D02*
D03*
X92815Y217342D02*
D03*
Y223406D02*
D03*
D26*
X85713Y227832D02*
D03*
Y222832D02*
D03*
Y217832D02*
D03*
Y212832D02*
D03*
X64358D02*
D03*
Y217832D02*
D03*
Y222832D02*
D03*
Y227832D02*
D03*
X241461Y225962D02*
D03*
Y220962D02*
D03*
Y215962D02*
D03*
Y210962D02*
D03*
X220106D02*
D03*
Y215962D02*
D03*
Y220962D02*
D03*
Y225962D02*
D03*
X400902Y227143D02*
D03*
Y222143D02*
D03*
Y217143D02*
D03*
Y212143D02*
D03*
X379547D02*
D03*
Y217143D02*
D03*
Y222143D02*
D03*
Y227143D02*
D03*
X563219Y227142D02*
D03*
Y222142D02*
D03*
Y217142D02*
D03*
Y212142D02*
D03*
X541865D02*
D03*
Y217142D02*
D03*
Y222142D02*
D03*
Y227142D02*
D03*
D27*
X402362Y246654D02*
D03*
X396850D02*
D03*
X377756Y246850D02*
D03*
X383268D02*
D03*
X242913Y245669D02*
D03*
X237402D02*
D03*
X218307Y245669D02*
D03*
X223819D02*
D03*
X62598Y247835D02*
D03*
X68110D02*
D03*
X87303Y247736D02*
D03*
X81791D02*
D03*
X564468Y246752D02*
D03*
X558957D02*
D03*
X540158Y247047D02*
D03*
X545669D02*
D03*
X121850Y91535D02*
D03*
X116339D02*
D03*
X121850Y84646D02*
D03*
X116339D02*
D03*
X121850Y77756D02*
D03*
X116339D02*
D03*
X511528Y219163D02*
D03*
X506016D02*
D03*
X511700Y230893D02*
D03*
X506188D02*
D03*
X511700Y224988D02*
D03*
X506188D02*
D03*
X547146Y233465D02*
D03*
X552658D02*
D03*
X520472Y247835D02*
D03*
X525984D02*
D03*
X549948Y194586D02*
D03*
X544436D02*
D03*
X550812Y206427D02*
D03*
X545300D02*
D03*
X559891D02*
D03*
X554380D02*
D03*
X555460Y194586D02*
D03*
X560971D02*
D03*
X343871Y224988D02*
D03*
X349382D02*
D03*
X343698Y219163D02*
D03*
X349210D02*
D03*
X343871Y230894D02*
D03*
X349382D02*
D03*
X43669Y248524D02*
D03*
X49181D02*
D03*
X200492Y247441D02*
D03*
X206004D02*
D03*
X359744Y248425D02*
D03*
X365256D02*
D03*
X209957Y84110D02*
D03*
X204445D02*
D03*
X31634Y201169D02*
D03*
X26122D02*
D03*
X189941Y223807D02*
D03*
X184430D02*
D03*
X230807Y232185D02*
D03*
X225295D02*
D03*
X233701Y193405D02*
D03*
X239213D02*
D03*
X222677D02*
D03*
X228189D02*
D03*
X184430Y229713D02*
D03*
X189941D02*
D03*
X189769Y217982D02*
D03*
X184257D02*
D03*
X223542Y205246D02*
D03*
X229053D02*
D03*
X232621D02*
D03*
X238133D02*
D03*
X67794Y207117D02*
D03*
X73305D02*
D03*
X384169Y68756D02*
D03*
X389681D02*
D03*
X371571Y83716D02*
D03*
X366059D02*
D03*
X371571Y78598D02*
D03*
X366059D02*
D03*
X269996Y66000D02*
D03*
X275508D02*
D03*
X397573Y206428D02*
D03*
X392062D02*
D03*
X388494D02*
D03*
X382983D02*
D03*
X384941Y233465D02*
D03*
X390453D02*
D03*
X398654Y194587D02*
D03*
X393142D02*
D03*
X387630D02*
D03*
X382118D02*
D03*
X209563Y61669D02*
D03*
X215075D02*
D03*
X69685Y234055D02*
D03*
X75197D02*
D03*
X72441Y195276D02*
D03*
X66929D02*
D03*
X83465D02*
D03*
X77953D02*
D03*
X31634Y207075D02*
D03*
X26122D02*
D03*
X82385Y207117D02*
D03*
X76873D02*
D03*
X25950Y195344D02*
D03*
X31462D02*
D03*
D28*
X99646Y62008D02*
D03*
X124764D02*
D03*
D29*
X78347Y58071D02*
D03*
X67323D02*
D03*
Y67913D02*
D03*
X78347D02*
D03*
X67323Y77756D02*
D03*
X78347D02*
D03*
X67323Y87598D02*
D03*
X78347D02*
D03*
D30*
X26740Y245472D02*
D03*
X504247Y244783D02*
D03*
X599311Y205413D02*
D03*
X525323Y186556D02*
D03*
X580323Y186556D02*
D03*
X613287Y244882D02*
D03*
X561756Y186556D02*
D03*
X543873D02*
D03*
X137173Y245472D02*
D03*
X292921Y243602D02*
D03*
X452362Y244783D02*
D03*
X341929D02*
D03*
X258564Y185375D02*
D03*
X203564Y185375D02*
D03*
X222114D02*
D03*
X239997D02*
D03*
X286327Y218701D02*
D03*
X182488Y243602D02*
D03*
X102816Y187245D02*
D03*
X418005Y186556D02*
D03*
X130579Y220571D02*
D03*
X445768Y219882D02*
D03*
X47816Y187245D02*
D03*
X363005Y186556D02*
D03*
X66366Y187245D02*
D03*
X381555Y186556D02*
D03*
X84249Y187245D02*
D03*
X399438Y186556D02*
D03*
D31*
X596668Y246456D02*
D03*
Y238582D02*
D03*
X588243Y246453D02*
D03*
Y238579D02*
D03*
X264878Y56157D02*
D03*
Y48283D02*
D03*
X272898Y56157D02*
D03*
Y48283D02*
D03*
X119161Y247146D02*
D03*
Y239272D02*
D03*
X274909Y245276D02*
D03*
Y237402D02*
D03*
X434350Y246457D02*
D03*
Y238583D02*
D03*
X110736Y247143D02*
D03*
Y239269D02*
D03*
X266484Y245273D02*
D03*
Y237399D02*
D03*
X425925Y246454D02*
D03*
Y238580D02*
D03*
X241453Y67968D02*
D03*
Y75842D02*
D03*
X248933Y67968D02*
D03*
Y75842D02*
D03*
X233579Y67968D02*
D03*
Y75842D02*
D03*
X226099Y67968D02*
D03*
Y75842D02*
D03*
X334170Y58519D02*
D03*
Y50645D02*
D03*
X342437Y58519D02*
D03*
Y50645D02*
D03*
X317634Y58519D02*
D03*
Y50645D02*
D03*
X325902Y58519D02*
D03*
Y50645D02*
D03*
X309366Y58519D02*
D03*
Y50645D02*
D03*
D32*
X544633Y200885D02*
D03*
X539515D02*
D03*
X560775D02*
D03*
X565893D02*
D03*
X217756Y199705D02*
D03*
X222874D02*
D03*
X244134D02*
D03*
X239016D02*
D03*
X173819Y19291D02*
D03*
X178937D02*
D03*
X315075Y90803D02*
D03*
X309957D02*
D03*
X315075Y73480D02*
D03*
X309957D02*
D03*
X315075Y78992D02*
D03*
X309957D02*
D03*
X309957Y84897D02*
D03*
X315075D02*
D03*
X296374Y90015D02*
D03*
X291256D02*
D03*
X199909Y47244D02*
D03*
X194791D02*
D03*
X209366Y90015D02*
D03*
X204248D02*
D03*
X274130Y76236D02*
D03*
X269012D02*
D03*
X280626Y90015D02*
D03*
X285744D02*
D03*
X269012Y82929D02*
D03*
X274130D02*
D03*
X382315Y200886D02*
D03*
X377197D02*
D03*
X398457D02*
D03*
X403575D02*
D03*
X67126Y201575D02*
D03*
X62008D02*
D03*
X83268D02*
D03*
X88386D02*
D03*
D33*
X555606Y200830D02*
D03*
X549543D02*
D03*
X227784Y199650D02*
D03*
X233847D02*
D03*
X393288Y200831D02*
D03*
X387225D02*
D03*
X78099Y201520D02*
D03*
X72036D02*
D03*
D34*
X300507Y64031D02*
D03*
Y66590D02*
D03*
Y69149D02*
D03*
Y71708D02*
D03*
Y74267D02*
D03*
X282003D02*
D03*
Y71708D02*
D03*
Y69149D02*
D03*
Y66590D02*
D03*
Y64031D02*
D03*
D35*
X296373Y78401D02*
D03*
X293814D02*
D03*
X291255D02*
D03*
X288696D02*
D03*
X286137D02*
D03*
Y59897D02*
D03*
X288696D02*
D03*
X291255D02*
D03*
X293814D02*
D03*
X296373D02*
D03*
D36*
X291255Y69149D02*
D03*
D37*
X273599Y35083D02*
D03*
X285410D02*
D03*
D38*
X152559Y91634D02*
D03*
Y103248D02*
D03*
X137795Y91634D02*
D03*
Y103248D02*
D03*
D39*
X147343Y65748D02*
D03*
X158957D02*
D03*
X177461Y39764D02*
D03*
X165847D02*
D03*
X147343Y78740D02*
D03*
X158957D02*
D03*
X147343Y52756D02*
D03*
X158957D02*
D03*
X177461D02*
D03*
X165847D02*
D03*
X177461Y65748D02*
D03*
X165847D02*
D03*
X177461Y78740D02*
D03*
X165847D02*
D03*
X147343Y39764D02*
D03*
X158957D02*
D03*
X220488Y42328D02*
D03*
X208874D02*
D03*
X220488Y31255D02*
D03*
X208874D02*
D03*
X220488Y53401D02*
D03*
X208874D02*
D03*
D40*
X195390Y79110D02*
D03*
Y73362D02*
D03*
D41*
X192520Y18996D02*
D03*
X186221D02*
D03*
D42*
X372752Y59700D02*
D03*
Y54189D02*
D03*
X377870Y59700D02*
D03*
Y54189D02*
D03*
D43*
X376984Y72496D02*
D03*
Y68756D02*
D03*
Y65015D02*
D03*
X366158D02*
D03*
Y68756D02*
D03*
Y72496D02*
D03*
D44*
X352280Y58913D02*
D03*
X362516D02*
D03*
X244012Y58913D02*
D03*
X254248D02*
D03*
X188189Y28346D02*
D03*
X198425D02*
D03*
D45*
X369996Y90803D02*
D03*
X362122D02*
D03*
D46*
X352614Y22091D02*
D03*
Y28390D02*
D03*
X242084Y22299D02*
D03*
Y28598D02*
D03*
D83*
X203807Y67181D02*
D03*
Y78204D02*
D03*
D84*
X207004Y67181D02*
D03*
Y78204D02*
D03*
X208973D02*
D03*
Y67181D02*
D03*
D85*
X203461Y70724D02*
D03*
Y74661D02*
D03*
Y72693D02*
D03*
D86*
X215469Y67968D02*
D03*
Y77417D02*
D03*
D87*
X188559Y57917D02*
D03*
X377056Y83716D02*
D03*
X232579Y47736D02*
D03*
X352733Y46894D02*
D03*
X249016Y22638D02*
D03*
X369662Y98862D02*
D03*
X376748Y92957D02*
D03*
X376355Y98862D02*
D03*
D88*
X22933Y47244D02*
X47244D01*
X83366Y11122D01*
X15945Y54232D02*
X22933Y47244D01*
X24535Y59919D02*
X31699Y52756D01*
X54724D02*
X60039Y58071D01*
X31699Y52756D02*
X54724D01*
X478642Y122736D02*
X523622Y77756D01*
X65650Y122736D02*
X478642D01*
X58071Y115157D02*
X65650Y122736D01*
X474508Y117028D02*
X521583Y69953D01*
X72236Y117028D02*
X474508D01*
X65945Y110737D02*
X72236Y117028D01*
X526870Y11122D02*
X571779Y56032D01*
X83366Y11122D02*
X526870D01*
X18799Y67126D02*
X31742D01*
X38457Y73840D01*
X15945Y64272D02*
X18799Y67126D01*
X15945Y54232D02*
Y64272D01*
X38457Y59919D02*
X45565Y67028D01*
X66535D02*
X67323Y67815D01*
Y67913D01*
X45565Y67028D02*
X66535D01*
X38457Y73840D02*
X45030Y80413D01*
X52297D02*
X54720Y77990D01*
X45030Y80413D02*
X52297D01*
X5906Y30315D02*
Y64961D01*
Y30315D02*
X11909Y24311D01*
X20866D01*
X5906Y64961D02*
X14785Y73840D01*
X66535Y77990D02*
X66769Y77756D01*
X54720Y77990D02*
X66535D01*
X66769Y77756D02*
X67323D01*
X14785Y73840D02*
X24535D01*
X38293Y87598D01*
X40256Y4921D02*
X530949D01*
X20866Y24311D02*
X40256Y4921D01*
X38293Y87598D02*
X67323D01*
X596303Y46949D02*
X605386Y56032D01*
X571779D02*
X591465D01*
X572976Y46949D02*
X596303D01*
X600197Y77756D02*
X604633Y73320D01*
Y70706D02*
X605386Y69953D01*
X604633Y70706D02*
Y73320D01*
X523622Y77756D02*
X600197D01*
X521583Y69953D02*
X591465D01*
X65945Y110236D02*
Y110737D01*
X530949Y4921D02*
X572976Y46949D01*
X60039Y58071D02*
X67323D01*
D89*
X31614Y191260D02*
Y207055D01*
X592717Y271654D02*
X613287Y251083D01*
X562992Y271654D02*
X592717D01*
X557756D02*
X562992D01*
X557087Y272323D02*
X557756Y271654D01*
X562992D02*
X564483Y270162D01*
Y246752D02*
Y270162D01*
X564533Y240447D02*
Y246702D01*
X613287Y244882D02*
Y251083D01*
X542274Y256841D02*
X547756Y262323D01*
X540172Y254739D02*
X542274Y256841D01*
X547756Y262323D02*
X557087D01*
X540172Y246948D02*
Y254739D01*
X534768Y240397D02*
X540173D01*
X531378Y237007D02*
X534768Y240397D01*
X507731Y244783D02*
X515507Y237007D01*
X531378D01*
X540172Y240398D02*
Y246948D01*
X452362Y244783D02*
Y250984D01*
X402522Y270422D02*
X432925D01*
X452362Y250984D01*
X402165Y246752D02*
Y250492D01*
X403445Y251772D02*
Y269499D01*
X402165Y250492D02*
X403445Y251772D01*
X397570Y270422D02*
X402522D01*
X403445Y269499D01*
X402215Y240447D02*
X402264Y240398D01*
X402165Y246752D02*
X402215Y246703D01*
Y240447D02*
Y246703D01*
X395669Y272323D02*
X397570Y270422D01*
X341929Y244783D02*
X345413D01*
X353189Y237008D01*
X372450Y240398D02*
X377855D01*
X369060Y237008D02*
X372450Y240398D01*
X353189Y237008D02*
X369060D01*
X377854Y240398D02*
Y246949D01*
X377854Y246949D02*
X377854Y246949D01*
Y240398D02*
X377855Y240398D01*
X377854Y246949D02*
Y253642D01*
X386535Y262323D01*
X395669D01*
X242724Y249311D02*
X244094Y250681D01*
Y269685D01*
X242126Y271654D02*
X244094Y269685D01*
X234252Y272323D02*
X234921Y271654D01*
X242126D01*
X273622D01*
X292921Y252354D01*
Y243602D02*
Y252354D01*
X242724Y245571D02*
Y249311D01*
X242774Y239266D02*
Y245521D01*
X223937Y262323D02*
X234252D01*
X218413Y256799D02*
X223937Y262323D01*
X218413Y245768D02*
Y256799D01*
X185972Y243602D02*
X193748Y235827D01*
X209619D01*
X213009Y239217D01*
X218414D01*
X218414Y239217D02*
Y245767D01*
X547146Y233465D02*
X547195Y233514D01*
Y238140D02*
X547244Y238189D01*
X547195Y233514D02*
Y238140D01*
X547183Y224644D02*
Y233499D01*
X542311Y222733D02*
X545273D01*
X541819Y222241D02*
X542311Y222733D01*
X545273D02*
X547183Y224644D01*
X384978D02*
Y233499D01*
X380106Y222733D02*
X383068D01*
X379614Y222241D02*
X380106Y222733D01*
X383068D02*
X384978Y224644D01*
X384941Y233465D02*
Y238386D01*
X225332Y223364D02*
Y232219D01*
X220461Y221454D02*
X223422D01*
X219969Y220962D02*
X220461Y221454D01*
X223422D02*
X225332Y223364D01*
X225295Y232185D02*
Y237106D01*
X556693Y216535D02*
X556906D01*
X557513Y217142D01*
X563219D01*
X395309Y217143D02*
X400902D01*
X394701Y216535D02*
X395309Y217143D01*
X394488Y216535D02*
X394701D01*
X241354Y215855D02*
X241461Y215962D01*
X235146Y215855D02*
X241354D01*
X235039Y215748D02*
X235146Y215855D01*
X80091Y217774D02*
X86675D01*
X79642Y217325D02*
X80091Y217774D01*
X79429Y217325D02*
X79642D01*
X551157Y206315D02*
X554725D01*
X554764Y206354D01*
X564698Y222031D02*
X564797Y221932D01*
X557007Y221932D02*
X564289D01*
X564387Y221834D01*
X541865Y217142D02*
X550754D01*
X552217D02*
X557007Y221932D01*
X550754Y217142D02*
X552217D01*
X541753Y217031D02*
X541865Y217142D01*
X550754Y212472D02*
Y217142D01*
X550751Y206722D02*
X551157Y206315D01*
X550751Y212302D02*
X550837Y212388D01*
X550751Y206722D02*
Y212302D01*
X550754Y212472D02*
X550837Y212388D01*
X388839Y206316D02*
X392407D01*
X392446Y206355D01*
X402380Y222031D02*
X402479Y221933D01*
X394689Y221933D02*
X401971D01*
X402069Y221834D01*
X379547Y217143D02*
X388436D01*
X389899D02*
X394689Y221933D01*
X388436Y217143D02*
X389899D01*
X379435Y217031D02*
X379547Y217143D01*
X388436Y212472D02*
Y217143D01*
X388433Y206722D02*
X388839Y206316D01*
X388433Y212303D02*
X388519Y212389D01*
X388433Y206722D02*
Y212303D01*
X388436Y212472D02*
X388519Y212389D01*
X229398Y205135D02*
X232966D01*
X233005Y205174D01*
X242939Y220850D02*
X243038Y220752D01*
X235248Y220752D02*
X242530D01*
X242628Y220653D01*
X220106Y215962D02*
X228995D01*
X230458D02*
X235248Y220752D01*
X228995Y215962D02*
X230458D01*
X219994Y215850D02*
X220106Y215962D01*
X228995Y211291D02*
Y215962D01*
X228992Y205541D02*
X229398Y205135D01*
X228992Y211122D02*
X229078Y211208D01*
X228992Y205541D02*
Y211122D01*
X228995Y211291D02*
X229078Y211208D01*
X69685Y234055D02*
Y238976D01*
X67812Y223324D02*
X69722Y225234D01*
X64358Y222832D02*
X64850Y223324D01*
X67812D01*
X69722Y225234D02*
Y234089D01*
X365305Y248376D02*
X369144D01*
X369193Y248327D01*
X365256Y248425D02*
X365305Y248376D01*
X73394Y213273D02*
X73477Y213189D01*
X73391Y207523D02*
Y213103D01*
X73477Y213189D01*
X73391Y207523D02*
X73798Y207117D01*
X73394Y213273D02*
Y217943D01*
X64394Y217832D02*
X64505Y217943D01*
X73394D02*
X74857D01*
X79647Y222733D01*
X64505Y217943D02*
X73394D01*
X86929Y222733D02*
X87028Y222635D01*
X79647Y222733D02*
X86929D01*
X87339Y222832D02*
X87437Y222733D01*
X77365Y207117D02*
X77404Y207156D01*
X73798Y207117D02*
X77365D01*
X31614Y207055D02*
X31634Y207075D01*
X31594Y191240D02*
X31614Y191260D01*
X582234Y246014D02*
X602313D01*
X602362Y246063D01*
X582185Y245965D02*
X582234Y246014D01*
X62665Y247638D02*
Y259516D01*
X65472Y262323D02*
X72835D01*
X62665Y259516D02*
X65472Y262323D01*
X81693Y271654D02*
X117193D01*
X137173Y251673D01*
X73504Y271654D02*
X81693D01*
X72835Y272323D02*
X73504Y271654D01*
X81693D02*
X88256Y265091D01*
Y252461D02*
Y265091D01*
X511527Y219446D02*
X511530Y219442D01*
X511527Y215153D02*
X511530Y215157D01*
X511527Y219446D02*
X511621Y219540D01*
Y224965D01*
X511707Y225051D01*
X511530Y215157D02*
Y219442D01*
X511707Y225051D02*
Y230893D01*
X189862Y218269D02*
X189866Y218266D01*
X189862Y213976D02*
X189866Y213980D01*
X189862Y218269D02*
X189956Y218363D01*
Y223788D01*
X190042Y223875D01*
X189866Y213980D02*
Y218266D01*
X190042Y223875D02*
Y229780D01*
X526132Y247983D02*
X529168D01*
X525984Y247835D02*
X526132Y247983D01*
X529168D02*
X529316Y248130D01*
X206102Y247539D02*
X209441D01*
X206004Y247441D02*
X206102Y247539D01*
X209441D02*
X209539Y247638D01*
X52854Y248524D02*
X52854Y248524D01*
X49181Y248524D02*
X52854D01*
X105331Y247047D02*
X125000D01*
X104724Y247441D02*
X104938D01*
X105331Y247047D01*
X281086Y245571D02*
X281299D01*
X280791Y245276D02*
X281086Y245571D01*
X266487Y245276D02*
X280791D01*
X266484Y245273D02*
X266487Y245276D01*
X260343Y245079D02*
X266484D01*
X30224Y245472D02*
X38000Y237697D01*
X53871D01*
X57261Y241087D01*
X62666D01*
X62665Y241087D02*
Y247638D01*
X137173Y245472D02*
Y251673D01*
X86976Y251181D02*
X88256Y252461D01*
X86976Y247441D02*
Y251181D01*
X87026Y241136D02*
Y247392D01*
X349389Y225052D02*
Y230957D01*
X349213Y215158D02*
Y219443D01*
X349303Y224966D02*
X349389Y225052D01*
X349303Y219541D02*
Y224966D01*
X349209Y219447D02*
X349303Y219541D01*
X349209Y215154D02*
X349213Y215158D01*
X349209Y219447D02*
X349213Y219443D01*
X435138Y246457D02*
X440354D01*
X434941Y246260D02*
X435138Y246457D01*
X419783Y246260D02*
X434941D01*
X376729Y68756D02*
X384169D01*
D90*
X185531Y19291D02*
X186221Y18602D01*
X178937Y19291D02*
X185531D01*
D91*
X306068Y69149D02*
X309202Y66015D01*
Y62993D02*
Y66015D01*
X300507Y69149D02*
X306068D01*
D92*
X622638Y170472D02*
D03*
Y109547D02*
D03*
D93*
X610856Y162559D02*
D03*
Y117559D02*
D03*
D94*
X575856Y157539D02*
D03*
X585856Y152539D02*
D03*
X575856Y147539D02*
D03*
X585856Y142539D02*
D03*
X575856Y137539D02*
D03*
X585856Y132539D02*
D03*
X575856Y127539D02*
D03*
X585856Y122539D02*
D03*
D95*
X557087Y262323D02*
D03*
Y272323D02*
D03*
Y282323D02*
D03*
Y292323D02*
D03*
X395669Y262323D02*
D03*
Y272323D02*
D03*
Y282323D02*
D03*
Y292323D02*
D03*
X234252Y262323D02*
D03*
Y272323D02*
D03*
Y282323D02*
D03*
Y292323D02*
D03*
X72835Y262323D02*
D03*
Y272323D02*
D03*
Y282323D02*
D03*
Y292323D02*
D03*
D96*
X514370D02*
D03*
Y369094D02*
D03*
X599803D02*
D03*
Y292323D02*
D03*
X352953D02*
D03*
Y369094D02*
D03*
X438386D02*
D03*
Y292323D02*
D03*
X191535D02*
D03*
Y369094D02*
D03*
X276969D02*
D03*
Y292323D02*
D03*
X30118D02*
D03*
Y369094D02*
D03*
X115551D02*
D03*
Y292323D02*
D03*
D97*
X557087Y330709D02*
D03*
X395669D02*
D03*
X234252D02*
D03*
X72835D02*
D03*
D98*
X616142Y218504D02*
D03*
X13780Y218504D02*
D03*
X616142Y13780D02*
D03*
X13780D02*
D03*
D99*
X591465Y56032D02*
D03*
X605386Y69953D02*
D03*
X591465D02*
D03*
X605386Y56032D02*
D03*
X24535Y73840D02*
D03*
X38457Y59919D02*
D03*
X24535D02*
D03*
X38457Y73840D02*
D03*
D100*
X614173Y33465D02*
D03*
Y92520D02*
D03*
X15748Y37352D02*
D03*
Y96407D02*
D03*
D101*
X598425Y92520D02*
D03*
Y33465D02*
D03*
X31496Y96407D02*
D03*
Y37352D02*
D03*
D102*
X177559Y87402D02*
D03*
X141370Y67563D02*
D03*
X147244Y31102D02*
D03*
X547244Y238189D02*
D03*
X384941Y238386D02*
D03*
X225295Y237106D02*
D03*
X556693Y216535D02*
D03*
X394488D02*
D03*
X235039Y215748D02*
D03*
X79429Y217325D02*
D03*
X552217Y217142D02*
D03*
X550751Y212302D02*
D03*
X389899Y217143D02*
D03*
X388433Y212303D02*
D03*
X230458Y215962D02*
D03*
X228992Y211122D02*
D03*
X69685Y238976D02*
D03*
X63386Y207087D02*
D03*
X219587Y205217D02*
D03*
X73325Y213037D02*
D03*
X74791Y217877D02*
D03*
X541870Y206518D02*
D03*
X379528Y206398D02*
D03*
X154528Y108268D02*
D03*
X149606D02*
D03*
X139764D02*
D03*
X134843D02*
D03*
X347184Y21928D02*
D03*
X198425Y18799D02*
D03*
X83661Y77756D02*
D03*
Y87598D02*
D03*
X113189Y77756D02*
D03*
Y84646D02*
D03*
Y91535D02*
D03*
X511527Y215153D02*
D03*
X31594Y191240D02*
D03*
X189862Y213976D02*
D03*
X369193Y248327D02*
D03*
X52854Y248524D02*
D03*
X209539Y247638D02*
D03*
X529316Y248130D02*
D03*
X125000Y247047D02*
D03*
X281299Y245571D02*
D03*
X260343Y245079D02*
D03*
X136386Y213484D02*
D03*
X126346Y227362D02*
D03*
X292134Y211614D02*
D03*
X282095Y225492D02*
D03*
X605118Y198327D02*
D03*
X595079Y212205D02*
D03*
X22736Y195669D02*
D03*
Y201378D02*
D03*
Y207087D02*
D03*
X590756Y186851D02*
D03*
X562879Y206342D02*
D03*
X516157Y186263D02*
D03*
X540484Y194504D02*
D03*
X564893D02*
D03*
X556496Y233366D02*
D03*
X502854Y219291D02*
D03*
Y225000D02*
D03*
Y230709D02*
D03*
X602362Y246063D02*
D03*
X582185Y245965D02*
D03*
X349209Y215154D02*
D03*
X340453Y219193D02*
D03*
Y224902D02*
D03*
Y230610D02*
D03*
X440354Y246457D02*
D03*
X419783Y246260D02*
D03*
X285410Y54374D02*
D03*
X291304Y69118D02*
D03*
X295717Y65484D02*
D03*
X287056D02*
D03*
Y73161D02*
D03*
X295717D02*
D03*
X293371Y54768D02*
D03*
X289827D02*
D03*
X113249Y187540D02*
D03*
X221237Y66185D02*
D03*
X309202Y62993D02*
D03*
X361958Y68898D02*
D03*
X264764Y42618D02*
D03*
X279504Y47681D02*
D03*
X272638Y26575D02*
D03*
X268012Y34646D02*
D03*
X278717Y33508D02*
D03*
Y38626D02*
D03*
X317863Y62993D02*
D03*
X352339Y63036D02*
D03*
X325652Y62993D02*
D03*
X334159D02*
D03*
X342666D02*
D03*
X247221Y81146D02*
D03*
X250370D02*
D03*
X239740D02*
D03*
X242890D02*
D03*
X231867D02*
D03*
X235016D02*
D03*
X212890Y90201D02*
D03*
X191315Y68941D02*
D03*
X190922Y73272D02*
D03*
X200370Y53587D02*
D03*
X183071Y68110D02*
D03*
Y63779D02*
D03*
Y54724D02*
D03*
Y50394D02*
D03*
Y37402D02*
D03*
Y41732D02*
D03*
Y76378D02*
D03*
Y80709D02*
D03*
X141370Y37248D02*
D03*
Y41579D02*
D03*
Y75830D02*
D03*
Y80161D02*
D03*
Y63232D02*
D03*
Y54571D02*
D03*
Y50240D02*
D03*
X216119Y29473D02*
D03*
Y33803D02*
D03*
Y40545D02*
D03*
Y44876D02*
D03*
X189764Y47244D02*
D03*
X191315Y63823D02*
D03*
X195252Y92957D02*
D03*
X213756Y84295D02*
D03*
X227536Y81146D02*
D03*
X224386D02*
D03*
X270019Y70354D02*
D03*
X296397Y95157D02*
D03*
X249016Y17717D02*
D03*
X237342Y21928D02*
D03*
X218838Y61692D02*
D03*
X216119Y55949D02*
D03*
Y51618D02*
D03*
X220843Y23665D02*
D03*
X318874Y79046D02*
D03*
Y73272D02*
D03*
Y90595D02*
D03*
Y84820D02*
D03*
X276748Y89807D02*
D03*
X291709Y83114D02*
D03*
X305821Y91317D02*
D03*
X378099Y50788D02*
D03*
X372981D02*
D03*
X317913Y45276D02*
D03*
X309055D02*
D03*
X325787D02*
D03*
X353839Y186264D02*
D03*
X441535Y226673D02*
D03*
X451575Y212795D02*
D03*
X402575Y194504D02*
D03*
X378166D02*
D03*
X394094Y233563D02*
D03*
X428438Y186851D02*
D03*
X400787Y206398D02*
D03*
X194398Y185083D02*
D03*
X180807Y223917D02*
D03*
Y229626D02*
D03*
X243134Y193323D02*
D03*
X180807Y218209D02*
D03*
X218307Y193307D02*
D03*
X234449Y232283D02*
D03*
X268997Y185670D02*
D03*
X241929Y205217D02*
D03*
X79134Y233858D02*
D03*
X86614Y207087D02*
D03*
X38650Y186953D02*
D03*
X104724Y247441D02*
D03*
X259032Y47681D02*
D03*
X301945Y50437D02*
D03*
X334646Y45276D02*
D03*
X342520D02*
D03*
X265331Y76028D02*
D03*
X268874Y87839D02*
D03*
X296433Y85083D02*
D03*
X275114Y70724D02*
D03*
X87386Y195193D02*
D03*
X62977D02*
D03*
X361958Y72441D02*
D03*
X376969Y77756D02*
D03*
X393060Y68898D02*
D03*
X357233Y90945D02*
D03*
X362351Y83465D02*
D03*
X273524Y42913D02*
D03*
X362351Y78347D02*
D03*
D103*
X65945Y110236D02*
D03*
X58071Y115157D02*
D03*
D104*
X209011Y72693D02*
D03*
X206756D02*
D03*
M02*
