G04*
G04 #@! TF.GenerationSoftware,Altium Limited,Altium Designer,24.3.1 (35)*
G04*
G04 Layer_Physical_Order=2*
G04 Layer_Color=36540*
%FSLAX25Y25*%
%MOIN*%
G70*
G04*
G04 #@! TF.SameCoordinates,4C3539F3-5CB9-4789-9EF3-9A9D2157AC9C*
G04*
G04*
G04 #@! TF.FilePolarity,Positive*
G04*
G01*
G75*
%ADD10C,0.01000*%
%ADD89C,0.09055*%
%ADD92R,0.09843X0.05906*%
%ADD93R,0.19685X0.11811*%
%ADD95C,0.07087*%
%ADD98C,0.02362*%
%ADD99C,0.01772*%
G36*
X628900Y1020D02*
X1020Y1020D01*
X1020Y392681D01*
X628900D01*
Y1020D01*
D02*
G37*
%LPC*%
G36*
X610646Y376000D02*
X600197D01*
Y374892D01*
X599409D01*
Y376000D01*
X588961D01*
Y369488D01*
X590068D01*
Y368701D01*
X588961D01*
Y362189D01*
X599409D01*
Y363297D01*
X600197D01*
Y362189D01*
X610646D01*
Y368701D01*
X609538D01*
Y369488D01*
X610646D01*
Y376000D01*
D02*
G37*
G36*
X525213D02*
X514764D01*
Y374892D01*
X513976D01*
Y376000D01*
X503527D01*
Y369488D01*
X504635D01*
Y368701D01*
X503527D01*
Y362189D01*
X513976D01*
Y363297D01*
X514764D01*
Y362189D01*
X525213D01*
Y368701D01*
X524105D01*
Y369488D01*
X525213D01*
Y376000D01*
D02*
G37*
G36*
X449228D02*
X438779D01*
Y374892D01*
X437992D01*
Y376000D01*
X427543D01*
Y369488D01*
X428651D01*
Y368701D01*
X427543D01*
Y362189D01*
X437992D01*
Y363297D01*
X438779D01*
Y362189D01*
X449228D01*
Y368701D01*
X448121D01*
Y369488D01*
X449228D01*
Y376000D01*
D02*
G37*
G36*
X363795D02*
X353346D01*
Y374892D01*
X352559D01*
Y376000D01*
X342110D01*
Y369488D01*
X343218D01*
Y368701D01*
X342110D01*
Y362189D01*
X352559D01*
Y363297D01*
X353346D01*
Y362189D01*
X363795D01*
Y368701D01*
X362688D01*
Y369488D01*
X363795D01*
Y376000D01*
D02*
G37*
G36*
X287811D02*
X277362D01*
Y374892D01*
X276575D01*
Y376000D01*
X266126D01*
Y369488D01*
X267234D01*
Y368701D01*
X266126D01*
Y362189D01*
X276575D01*
Y363297D01*
X277362D01*
Y362189D01*
X287811D01*
Y368701D01*
X286703D01*
Y369488D01*
X287811D01*
Y376000D01*
D02*
G37*
G36*
X202378D02*
X191929D01*
Y374892D01*
X191142D01*
Y376000D01*
X180693D01*
Y369488D01*
X181800D01*
Y368701D01*
X180693D01*
Y362189D01*
X191142D01*
Y363297D01*
X191929D01*
Y362189D01*
X202378D01*
Y368701D01*
X201270D01*
Y369488D01*
X202378D01*
Y376000D01*
D02*
G37*
G36*
X126394D02*
X115945D01*
Y374892D01*
X115157D01*
Y376000D01*
X104709D01*
Y369488D01*
X105816D01*
Y368701D01*
X104709D01*
Y362189D01*
X115157D01*
Y363297D01*
X115945D01*
Y362189D01*
X126394D01*
Y368701D01*
X125286D01*
Y369488D01*
X126394D01*
Y376000D01*
D02*
G37*
G36*
X40961D02*
X30512D01*
Y374892D01*
X29724D01*
Y376000D01*
X19276D01*
Y369488D01*
X20383D01*
Y368701D01*
X19276D01*
Y362189D01*
X29724D01*
Y363297D01*
X30512D01*
Y362189D01*
X40961D01*
Y368701D01*
X39853D01*
Y369488D01*
X40961D01*
Y376000D01*
D02*
G37*
G36*
X315697Y387402D02*
X314224D01*
X312779Y387114D01*
X311417Y386550D01*
X310192Y385732D01*
X309150Y384690D01*
X308332Y383465D01*
X307768Y382103D01*
X307480Y380658D01*
Y379185D01*
X307768Y377739D01*
X308332Y376378D01*
X309150Y375153D01*
X310192Y374111D01*
X311417Y373292D01*
X312779Y372728D01*
X314224Y372441D01*
X315697D01*
X317143Y372728D01*
X318504Y373292D01*
X319729Y374111D01*
X320771Y375153D01*
X321590Y376378D01*
X322153Y377739D01*
X322441Y379185D01*
Y380658D01*
X322153Y382103D01*
X321590Y383465D01*
X320771Y384690D01*
X319729Y385732D01*
X318504Y386550D01*
X317143Y387114D01*
X315697Y387402D01*
D02*
G37*
G36*
X558673Y362992D02*
X555501D01*
X552344Y362681D01*
X549233Y362062D01*
X546198Y361142D01*
X543267Y359928D01*
X540470Y358433D01*
X537832Y356670D01*
X535380Y354658D01*
X533137Y352415D01*
X531125Y349963D01*
X529363Y347326D01*
X527868Y344528D01*
X526654Y341598D01*
X525733Y338562D01*
X525114Y335451D01*
X524803Y332295D01*
Y329123D01*
X525114Y325966D01*
X525733Y322855D01*
X526654Y319820D01*
X527868Y316889D01*
X529363Y314092D01*
X531125Y311454D01*
X533137Y309002D01*
X535380Y306759D01*
X537832Y304747D01*
X540470Y302985D01*
X543267Y301490D01*
X546198Y300276D01*
X549233Y299355D01*
X552344Y298736D01*
X555501Y298425D01*
X558673D01*
X561829Y298736D01*
X564940Y299355D01*
X567976Y300276D01*
X570906Y301490D01*
X573704Y302985D01*
X576341Y304747D01*
X578793Y306759D01*
X581036Y309002D01*
X583048Y311454D01*
X584810Y314092D01*
X586306Y316889D01*
X587520Y319820D01*
X588440Y322855D01*
X589059Y325966D01*
X589370Y329123D01*
Y332295D01*
X589059Y335451D01*
X588440Y338562D01*
X587520Y341598D01*
X586306Y344528D01*
X584810Y347326D01*
X583048Y349963D01*
X581036Y352415D01*
X578793Y354658D01*
X576341Y356670D01*
X573704Y358433D01*
X570906Y359928D01*
X567976Y361142D01*
X564940Y362062D01*
X561829Y362681D01*
X558673Y362992D01*
D02*
G37*
G36*
X397255D02*
X394083D01*
X390927Y362681D01*
X387816Y362062D01*
X384780Y361142D01*
X381850Y359928D01*
X379052Y358433D01*
X376415Y356670D01*
X373963Y354658D01*
X371720Y352415D01*
X369708Y349963D01*
X367945Y347326D01*
X366450Y344528D01*
X365236Y341598D01*
X364316Y338562D01*
X363697Y335451D01*
X363386Y332295D01*
Y329123D01*
X363697Y325966D01*
X364316Y322855D01*
X365236Y319820D01*
X366450Y316889D01*
X367945Y314092D01*
X369708Y311454D01*
X371720Y309002D01*
X373963Y306759D01*
X376415Y304747D01*
X379052Y302985D01*
X381850Y301490D01*
X384780Y300276D01*
X387816Y299355D01*
X390927Y298736D01*
X394083Y298425D01*
X397255D01*
X400412Y298736D01*
X403523Y299355D01*
X406558Y300276D01*
X409489Y301490D01*
X412286Y302985D01*
X414924Y304747D01*
X417376Y306759D01*
X419619Y309002D01*
X421631Y311454D01*
X423393Y314092D01*
X424888Y316889D01*
X426102Y319820D01*
X427023Y322855D01*
X427642Y325966D01*
X427953Y329123D01*
Y332295D01*
X427642Y335451D01*
X427023Y338562D01*
X426102Y341598D01*
X424888Y344528D01*
X423393Y347326D01*
X421631Y349963D01*
X419619Y352415D01*
X417376Y354658D01*
X414924Y356670D01*
X412286Y358433D01*
X409489Y359928D01*
X406558Y361142D01*
X403523Y362062D01*
X400412Y362681D01*
X397255Y362992D01*
D02*
G37*
G36*
X235838D02*
X232666D01*
X229509Y362681D01*
X226398Y362062D01*
X223363Y361142D01*
X220432Y359928D01*
X217635Y358433D01*
X214998Y356670D01*
X212546Y354658D01*
X210303Y352415D01*
X208290Y349963D01*
X206528Y347326D01*
X205033Y344528D01*
X203819Y341598D01*
X202898Y338562D01*
X202279Y335451D01*
X201969Y332295D01*
Y329123D01*
X202279Y325966D01*
X202898Y322855D01*
X203819Y319820D01*
X205033Y316889D01*
X206528Y314092D01*
X208290Y311454D01*
X210303Y309002D01*
X212546Y306759D01*
X214998Y304747D01*
X217635Y302985D01*
X220432Y301490D01*
X223363Y300276D01*
X226398Y299355D01*
X229509Y298736D01*
X232666Y298425D01*
X235838D01*
X238995Y298736D01*
X242106Y299355D01*
X245141Y300276D01*
X248072Y301490D01*
X250869Y302985D01*
X253506Y304747D01*
X255958Y306759D01*
X258201Y309002D01*
X260213Y311454D01*
X261976Y314092D01*
X263471Y316889D01*
X264685Y319820D01*
X265606Y322855D01*
X266225Y325966D01*
X266535Y329123D01*
Y332295D01*
X266225Y335451D01*
X265606Y338562D01*
X264685Y341598D01*
X263471Y344528D01*
X261976Y347326D01*
X260213Y349963D01*
X258201Y352415D01*
X255958Y354658D01*
X253506Y356670D01*
X250869Y358433D01*
X248072Y359928D01*
X245141Y361142D01*
X242106Y362062D01*
X238995Y362681D01*
X235838Y362992D01*
D02*
G37*
G36*
X74421D02*
X71249D01*
X68092Y362681D01*
X64981Y362062D01*
X61946Y361142D01*
X59015Y359928D01*
X56218Y358433D01*
X53580Y356670D01*
X51128Y354658D01*
X48885Y352415D01*
X46873Y349963D01*
X45111Y347326D01*
X43616Y344528D01*
X42402Y341598D01*
X41481Y338562D01*
X40862Y335451D01*
X40551Y332295D01*
Y329123D01*
X40862Y325966D01*
X41481Y322855D01*
X42402Y319820D01*
X43616Y316889D01*
X45111Y314092D01*
X46873Y311454D01*
X48885Y309002D01*
X51128Y306759D01*
X53580Y304747D01*
X56218Y302985D01*
X59015Y301490D01*
X61946Y300276D01*
X64981Y299355D01*
X68092Y298736D01*
X71249Y298425D01*
X74421D01*
X77577Y298736D01*
X80688Y299355D01*
X83724Y300276D01*
X86654Y301490D01*
X89452Y302985D01*
X92089Y304747D01*
X94541Y306759D01*
X96784Y309002D01*
X98796Y311454D01*
X100558Y314092D01*
X102054Y316889D01*
X103268Y319820D01*
X104188Y322855D01*
X104807Y325966D01*
X105118Y329123D01*
Y332295D01*
X104807Y335451D01*
X104188Y338562D01*
X103268Y341598D01*
X102054Y344528D01*
X100558Y347326D01*
X98796Y349963D01*
X96784Y352415D01*
X94541Y354658D01*
X92089Y356670D01*
X89452Y358433D01*
X86654Y359928D01*
X83724Y361142D01*
X80688Y362062D01*
X77577Y362681D01*
X74421Y362992D01*
D02*
G37*
G36*
X610646Y299228D02*
X600197D01*
Y298121D01*
X599409D01*
Y299228D01*
X588961D01*
Y292717D01*
X590068D01*
Y291929D01*
X588961D01*
Y285417D01*
X599409D01*
Y286525D01*
X600197D01*
Y285417D01*
X610646D01*
Y291929D01*
X609538D01*
Y292717D01*
X610646D01*
Y299228D01*
D02*
G37*
G36*
X525213D02*
X514764D01*
Y298121D01*
X513976D01*
Y299228D01*
X503527D01*
Y292717D01*
X504635D01*
Y291929D01*
X503527D01*
Y285417D01*
X513976D01*
Y286525D01*
X514764D01*
Y285417D01*
X525213D01*
Y291929D01*
X524105D01*
Y292717D01*
X525213D01*
Y299228D01*
D02*
G37*
G36*
X449228D02*
X438779D01*
Y298121D01*
X437992D01*
Y299228D01*
X427543D01*
Y292717D01*
X428651D01*
Y291929D01*
X427543D01*
Y285417D01*
X437992D01*
Y286525D01*
X438779D01*
Y285417D01*
X449228D01*
Y291929D01*
X448121D01*
Y292717D01*
X449228D01*
Y299228D01*
D02*
G37*
G36*
X363795D02*
X353346D01*
Y298121D01*
X352559D01*
Y299228D01*
X342110D01*
Y292717D01*
X343218D01*
Y291929D01*
X342110D01*
Y285417D01*
X352559D01*
Y286525D01*
X353346D01*
Y285417D01*
X363795D01*
Y291929D01*
X362688D01*
Y292717D01*
X363795D01*
Y299228D01*
D02*
G37*
G36*
X287811D02*
X277362D01*
Y298121D01*
X276575D01*
Y299228D01*
X266126D01*
Y292717D01*
X267234D01*
Y291929D01*
X266126D01*
Y285417D01*
X276575D01*
Y286525D01*
X277362D01*
Y285417D01*
X287811D01*
Y291929D01*
X286703D01*
Y292717D01*
X287811D01*
Y299228D01*
D02*
G37*
G36*
X202378D02*
X191929D01*
Y298121D01*
X191142D01*
Y299228D01*
X180693D01*
Y292717D01*
X181800D01*
Y291929D01*
X180693D01*
Y285417D01*
X191142D01*
Y286525D01*
X191929D01*
Y285417D01*
X202378D01*
Y291929D01*
X201270D01*
Y292717D01*
X202378D01*
Y299228D01*
D02*
G37*
G36*
X126394D02*
X115945D01*
Y298121D01*
X115157D01*
Y299228D01*
X104709D01*
Y292717D01*
X105816D01*
Y291929D01*
X104709D01*
Y285417D01*
X115157D01*
Y286525D01*
X115945D01*
Y285417D01*
X126394D01*
Y291929D01*
X125286D01*
Y292717D01*
X126394D01*
Y299228D01*
D02*
G37*
G36*
X40961D02*
X30512D01*
Y298121D01*
X29724D01*
Y299228D01*
X19276D01*
Y292717D01*
X20383D01*
Y291929D01*
X19276D01*
Y285417D01*
X29724D01*
Y286525D01*
X30512D01*
Y285417D01*
X40961D01*
Y291929D01*
X39853D01*
Y292717D01*
X40961D01*
Y299228D01*
D02*
G37*
G36*
X562795Y296063D02*
X551378D01*
Y288583D01*
X562795D01*
Y296063D01*
D02*
G37*
G36*
X401378D02*
X389961D01*
Y288583D01*
X401378D01*
Y296063D01*
D02*
G37*
G36*
X239961D02*
X228543D01*
Y288583D01*
X239961D01*
Y296063D01*
D02*
G37*
G36*
X78543D02*
X67126D01*
Y288583D01*
X78543D01*
Y296063D01*
D02*
G37*
G36*
X563008Y286276D02*
X557480D01*
Y285168D01*
X556693D01*
Y286276D01*
X551165D01*
Y282716D01*
X552273D01*
Y281929D01*
X551165D01*
Y278370D01*
X556693D01*
Y279478D01*
X557480D01*
Y278370D01*
X563008D01*
Y281929D01*
X561900D01*
Y282716D01*
X563008D01*
Y286276D01*
D02*
G37*
G36*
X401590D02*
X396063D01*
Y285168D01*
X395276D01*
Y286276D01*
X389748D01*
Y282716D01*
X390856D01*
Y281929D01*
X389748D01*
Y278370D01*
X395276D01*
Y279478D01*
X396063D01*
Y278370D01*
X401590D01*
Y281929D01*
X400483D01*
Y282716D01*
X401590D01*
Y286276D01*
D02*
G37*
G36*
X240173D02*
X234646D01*
Y285168D01*
X233858D01*
Y286276D01*
X228331D01*
Y282716D01*
X229438D01*
Y281929D01*
X228331D01*
Y278370D01*
X233858D01*
Y279478D01*
X234646D01*
Y278370D01*
X240173D01*
Y281929D01*
X239066D01*
Y282716D01*
X240173D01*
Y286276D01*
D02*
G37*
G36*
X78756D02*
X73228D01*
Y285168D01*
X72441D01*
Y286276D01*
X66913D01*
Y282716D01*
X68021D01*
Y281929D01*
X66913D01*
Y278370D01*
X72441D01*
Y279478D01*
X73228D01*
Y278370D01*
X78756D01*
Y281929D01*
X77648D01*
Y282716D01*
X78756D01*
Y286276D01*
D02*
G37*
G36*
X562795Y276063D02*
X551378D01*
Y268583D01*
X562795D01*
Y276063D01*
D02*
G37*
G36*
X401378D02*
X389961D01*
Y268583D01*
X401378D01*
Y276063D01*
D02*
G37*
G36*
X239961D02*
X228543D01*
Y268583D01*
X239961D01*
Y276063D01*
D02*
G37*
G36*
X78543D02*
X67126D01*
Y268583D01*
X78543D01*
Y276063D01*
D02*
G37*
G36*
X562795Y266063D02*
X551378D01*
Y258583D01*
X562795D01*
Y266063D01*
D02*
G37*
G36*
X401378D02*
X389961D01*
Y258583D01*
X401378D01*
Y266063D01*
D02*
G37*
G36*
X239961D02*
X228543D01*
Y258583D01*
X239961D01*
Y266063D01*
D02*
G37*
G36*
X78543D02*
X67126D01*
Y258583D01*
X78543D01*
Y266063D01*
D02*
G37*
G36*
X476379Y367161D02*
X468511D01*
X468120Y367084D01*
X467790Y366863D01*
X467569Y366532D01*
X467491Y366142D01*
Y253780D01*
X467569Y253390D01*
X467790Y253059D01*
X468120Y252838D01*
X468511Y252761D01*
X476379D01*
X476769Y252838D01*
X477100Y253059D01*
X477321Y253390D01*
X477398Y253780D01*
Y366142D01*
X477321Y366532D01*
X477100Y366863D01*
X476769Y367084D01*
X476379Y367161D01*
D02*
G37*
G36*
X318893D02*
X311024D01*
X310634Y367084D01*
X310303Y366863D01*
X310082Y366532D01*
X310005Y366142D01*
Y253780D01*
X310082Y253390D01*
X310303Y253059D01*
X310634Y252838D01*
X311024Y252761D01*
X318893D01*
X319283Y252838D01*
X319614Y253059D01*
X319835Y253390D01*
X319912Y253780D01*
Y366142D01*
X319835Y366532D01*
X319614Y366863D01*
X319283Y367084D01*
X318893Y367161D01*
D02*
G37*
G36*
X161412D02*
X153544D01*
X153154Y367084D01*
X152823Y366863D01*
X152602Y366532D01*
X152524Y366142D01*
Y253780D01*
X152602Y253390D01*
X152823Y253059D01*
X153154Y252838D01*
X153544Y252761D01*
X161412D01*
X161802Y252838D01*
X162133Y253059D01*
X162354Y253390D01*
X162432Y253780D01*
Y366142D01*
X162354Y366532D01*
X162133Y366863D01*
X161802Y367084D01*
X161412Y367161D01*
D02*
G37*
G36*
X53246Y250492D02*
X52463D01*
X51739Y250192D01*
X51186Y249639D01*
X50886Y248915D01*
Y248132D01*
X51186Y247409D01*
X51739Y246855D01*
X52463Y246555D01*
X53246D01*
X53969Y246855D01*
X54523Y247409D01*
X54823Y248132D01*
Y248915D01*
X54523Y249639D01*
X53969Y250192D01*
X53246Y250492D01*
D02*
G37*
G36*
X369584Y250295D02*
X368801D01*
X368078Y249996D01*
X367524Y249442D01*
X367224Y248718D01*
Y247935D01*
X367524Y247212D01*
X368078Y246658D01*
X368801Y246358D01*
X369584D01*
X370308Y246658D01*
X370862Y247212D01*
X371161Y247935D01*
Y248718D01*
X370862Y249442D01*
X370308Y249996D01*
X369584Y250295D01*
D02*
G37*
G36*
X529707Y250099D02*
X528924D01*
X528201Y249799D01*
X527647Y249245D01*
X527348Y248522D01*
Y247739D01*
X527647Y247015D01*
X528201Y246462D01*
X528924Y246162D01*
X529707D01*
X530431Y246462D01*
X530985Y247015D01*
X531285Y247739D01*
Y248522D01*
X530985Y249245D01*
X530431Y249799D01*
X529707Y250099D01*
D02*
G37*
G36*
X209931Y249606D02*
X209148D01*
X208424Y249307D01*
X207871Y248753D01*
X207571Y248029D01*
Y247246D01*
X207871Y246523D01*
X208424Y245969D01*
X209148Y245669D01*
X209931D01*
X210654Y245969D01*
X211208Y246523D01*
X211508Y247246D01*
Y248029D01*
X211208Y248753D01*
X210654Y249307D01*
X209931Y249606D01*
D02*
G37*
G36*
X105116Y249409D02*
X104333D01*
X103609Y249110D01*
X103056Y248556D01*
X102756Y247832D01*
Y247049D01*
X103056Y246326D01*
X103609Y245772D01*
X104333Y245472D01*
X105116D01*
X105840Y245772D01*
X106393Y246326D01*
X106693Y247049D01*
Y247832D01*
X106393Y248556D01*
X105840Y249110D01*
X105116Y249409D01*
D02*
G37*
G36*
X125392Y249016D02*
X124608D01*
X123885Y248716D01*
X123331Y248162D01*
X123031Y247439D01*
Y246656D01*
X123331Y245932D01*
X123885Y245378D01*
X124608Y245079D01*
X125392D01*
X126115Y245378D01*
X126669Y245932D01*
X126969Y246656D01*
Y247439D01*
X126669Y248162D01*
X126115Y248716D01*
X125392Y249016D01*
D02*
G37*
G36*
X440746Y248425D02*
X439963D01*
X439239Y248126D01*
X438686Y247572D01*
X438386Y246848D01*
Y246065D01*
X438686Y245342D01*
X439239Y244788D01*
X439963Y244488D01*
X440746D01*
X441469Y244788D01*
X442023Y245342D01*
X442323Y246065D01*
Y246848D01*
X442023Y247572D01*
X441469Y248126D01*
X440746Y248425D01*
D02*
G37*
G36*
X420175Y248228D02*
X419392D01*
X418668Y247929D01*
X418115Y247375D01*
X417815Y246651D01*
Y245868D01*
X418115Y245145D01*
X418668Y244591D01*
X419392Y244291D01*
X420175D01*
X420898Y244591D01*
X421452Y245145D01*
X421752Y245868D01*
Y246651D01*
X421452Y247375D01*
X420898Y247929D01*
X420175Y248228D01*
D02*
G37*
G36*
X602754Y248031D02*
X601971D01*
X601247Y247732D01*
X600693Y247178D01*
X600394Y246455D01*
Y245671D01*
X600693Y244948D01*
X601247Y244394D01*
X601971Y244094D01*
X602754D01*
X603477Y244394D01*
X604031Y244948D01*
X604331Y245671D01*
Y246455D01*
X604031Y247178D01*
X603477Y247732D01*
X602754Y248031D01*
D02*
G37*
G36*
X582577Y247933D02*
X581793D01*
X581070Y247633D01*
X580516Y247080D01*
X580217Y246356D01*
Y245573D01*
X580516Y244849D01*
X581070Y244296D01*
X581793Y243996D01*
X582577D01*
X583300Y244296D01*
X583854Y244849D01*
X584154Y245573D01*
Y246356D01*
X583854Y247080D01*
X583300Y247633D01*
X582577Y247933D01*
D02*
G37*
G36*
X281691Y247539D02*
X280908D01*
X280184Y247240D01*
X279630Y246686D01*
X279331Y245962D01*
Y245179D01*
X279630Y244456D01*
X280184Y243902D01*
X280908Y243602D01*
X281691D01*
X282414Y243902D01*
X282968Y244456D01*
X283268Y245179D01*
Y245962D01*
X282968Y246686D01*
X282414Y247240D01*
X281691Y247539D01*
D02*
G37*
G36*
X260734Y247047D02*
X259951D01*
X259227Y246748D01*
X258674Y246194D01*
X258374Y245470D01*
Y244687D01*
X258674Y243964D01*
X259227Y243410D01*
X259951Y243110D01*
X260734D01*
X261458Y243410D01*
X262011Y243964D01*
X262311Y244687D01*
Y245470D01*
X262011Y246194D01*
X261458Y246748D01*
X260734Y247047D01*
D02*
G37*
G36*
X70077Y240945D02*
X69293D01*
X68570Y240645D01*
X68016Y240091D01*
X67716Y239368D01*
Y238585D01*
X68016Y237861D01*
X68570Y237308D01*
X69293Y237008D01*
X70077D01*
X70800Y237308D01*
X71354Y237861D01*
X71653Y238585D01*
Y239368D01*
X71354Y240091D01*
X70800Y240645D01*
X70077Y240945D01*
D02*
G37*
G36*
X385332Y240354D02*
X384549D01*
X383826Y240055D01*
X383272Y239501D01*
X382972Y238777D01*
Y237994D01*
X383272Y237271D01*
X383826Y236717D01*
X384549Y236417D01*
X385332D01*
X386056Y236717D01*
X386610Y237271D01*
X386910Y237994D01*
Y238777D01*
X386610Y239501D01*
X386056Y240055D01*
X385332Y240354D01*
D02*
G37*
G36*
X547636Y240158D02*
X546852D01*
X546129Y239858D01*
X545575Y239304D01*
X545276Y238580D01*
Y237797D01*
X545575Y237074D01*
X546129Y236520D01*
X546852Y236221D01*
X547636D01*
X548359Y236520D01*
X548913Y237074D01*
X549213Y237797D01*
Y238580D01*
X548913Y239304D01*
X548359Y239858D01*
X547636Y240158D01*
D02*
G37*
G36*
X225687Y239075D02*
X224904D01*
X224180Y238775D01*
X223626Y238221D01*
X223327Y237498D01*
Y236715D01*
X223626Y235991D01*
X224180Y235437D01*
X224904Y235138D01*
X225687D01*
X226410Y235437D01*
X226964Y235991D01*
X227264Y236715D01*
Y237498D01*
X226964Y238221D01*
X226410Y238775D01*
X225687Y239075D01*
D02*
G37*
G36*
X75182Y219845D02*
X74399D01*
X73676Y219546D01*
X73122Y218992D01*
X72822Y218268D01*
Y217485D01*
X73122Y216762D01*
X73676Y216208D01*
X74399Y215908D01*
X75182D01*
X75906Y216208D01*
X76459Y216762D01*
X76759Y217485D01*
Y218268D01*
X76459Y218992D01*
X75906Y219546D01*
X75182Y219845D01*
D02*
G37*
G36*
X390290Y219111D02*
X389507D01*
X388784Y218811D01*
X388230Y218258D01*
X387930Y217534D01*
Y216751D01*
X388230Y216028D01*
X388784Y215474D01*
X389507Y215174D01*
X390290D01*
X391014Y215474D01*
X391568Y216028D01*
X391867Y216751D01*
Y217534D01*
X391568Y218258D01*
X391014Y218811D01*
X390290Y219111D01*
D02*
G37*
G36*
X552608Y219111D02*
X551825D01*
X551102Y218811D01*
X550548Y218257D01*
X550248Y217534D01*
Y216751D01*
X550548Y216027D01*
X551102Y215474D01*
X551825Y215174D01*
X552608D01*
X553332Y215474D01*
X553886Y216027D01*
X554185Y216751D01*
Y217534D01*
X553886Y218257D01*
X553332Y218811D01*
X552608Y219111D01*
D02*
G37*
G36*
X616879Y229921D02*
X615405D01*
X613960Y229634D01*
X612599Y229070D01*
X611373Y228251D01*
X610331Y227209D01*
X609513Y225984D01*
X608949Y224623D01*
X608661Y223178D01*
Y221704D01*
X608949Y220259D01*
X609513Y218898D01*
X610331Y217672D01*
X611373Y216631D01*
X612599Y215812D01*
X613960Y215248D01*
X615405Y214961D01*
X616879D01*
X618324Y215248D01*
X619685Y215812D01*
X620910Y216631D01*
X621952Y217672D01*
X622771Y218898D01*
X623335Y220259D01*
X623622Y221704D01*
Y223178D01*
X623335Y224623D01*
X622771Y225984D01*
X621952Y227209D01*
X620910Y228251D01*
X619685Y229070D01*
X618324Y229634D01*
X616879Y229921D01*
D02*
G37*
G36*
X14516D02*
X13043D01*
X11598Y229634D01*
X10236Y229070D01*
X9011Y228251D01*
X7969Y227209D01*
X7151Y225984D01*
X6587Y224623D01*
X6299Y223178D01*
Y221704D01*
X6587Y220259D01*
X7151Y218898D01*
X7969Y217672D01*
X9011Y216631D01*
X10236Y215812D01*
X11598Y215248D01*
X13043Y214961D01*
X14516D01*
X15961Y215248D01*
X17323Y215812D01*
X18548Y216631D01*
X19590Y217672D01*
X20409Y218898D01*
X20972Y220259D01*
X21260Y221704D01*
Y223178D01*
X20972Y224623D01*
X20409Y225984D01*
X19590Y227209D01*
X18548Y228251D01*
X17323Y229070D01*
X15961Y229634D01*
X14516Y229921D01*
D02*
G37*
G36*
X90649Y238312D02*
X83436Y238312D01*
Y210359D01*
X90090D01*
X94421Y214690D01*
X101849D01*
X101937Y214602D01*
Y225949D01*
X94459Y225949D01*
X90649Y229759D01*
X90649Y238312D01*
D02*
G37*
G36*
X230850Y217930D02*
X230066D01*
X229343Y217631D01*
X228789Y217077D01*
X228489Y216353D01*
Y215570D01*
X228789Y214847D01*
X229343Y214293D01*
X230066Y213993D01*
X230850D01*
X231573Y214293D01*
X232127Y214847D01*
X232427Y215570D01*
Y216353D01*
X232127Y217077D01*
X231573Y217631D01*
X230850Y217930D01*
D02*
G37*
G36*
X405838Y237623D02*
X398625Y237623D01*
Y209670D01*
X405279D01*
X409610Y214001D01*
X417038D01*
X417126Y213913D01*
Y225260D01*
X409648Y225260D01*
X405838Y229070D01*
X405838Y237623D01*
D02*
G37*
G36*
X568156Y237623D02*
X560943Y237623D01*
Y209670D01*
X567597D01*
X571928Y214001D01*
X579356D01*
X579444Y213913D01*
Y225260D01*
X571966Y225260D01*
X568156Y229070D01*
X568156Y237623D01*
D02*
G37*
G36*
X511918Y217122D02*
X511135D01*
X510412Y216822D01*
X509858Y216268D01*
X509558Y215545D01*
Y214762D01*
X509858Y214038D01*
X510412Y213484D01*
X511135Y213185D01*
X511918D01*
X512642Y213484D01*
X513195Y214038D01*
X513495Y214762D01*
Y215545D01*
X513195Y216268D01*
X512642Y216822D01*
X511918Y217122D01*
D02*
G37*
G36*
X246397Y236442D02*
X239184Y236442D01*
Y208489D01*
X245838D01*
X250169Y212820D01*
X257597D01*
X257685Y212732D01*
Y224079D01*
X250207Y224079D01*
X246397Y227889D01*
X246397Y236442D01*
D02*
G37*
G36*
X349604Y216535D02*
X348821D01*
X348097Y216236D01*
X347544Y215682D01*
X347244Y214959D01*
Y214175D01*
X347544Y213452D01*
X348097Y212898D01*
X348821Y212598D01*
X349604D01*
X350328Y212898D01*
X350881Y213452D01*
X351181Y214175D01*
Y214959D01*
X350881Y215682D01*
X350328Y216236D01*
X349604Y216535D01*
D02*
G37*
G36*
X190254Y215945D02*
X189471D01*
X188747Y215645D01*
X188193Y215091D01*
X187894Y214368D01*
Y213585D01*
X188193Y212861D01*
X188747Y212308D01*
X189471Y212008D01*
X190254D01*
X190977Y212308D01*
X191531Y212861D01*
X191831Y213585D01*
Y214368D01*
X191531Y215091D01*
X190977Y215645D01*
X190254Y215945D01*
D02*
G37*
G36*
X73716Y215005D02*
X72933D01*
X72210Y214706D01*
X71656Y214152D01*
X71356Y213428D01*
Y212645D01*
X71656Y211922D01*
X72210Y211368D01*
X72933Y211068D01*
X73716D01*
X74440Y211368D01*
X74994Y211922D01*
X75293Y212645D01*
Y213428D01*
X74994Y214152D01*
X74440Y214706D01*
X73716Y215005D01*
D02*
G37*
G36*
X59270Y238741D02*
Y228642D01*
X57301Y226673D01*
X47360D01*
Y216390D01*
Y214469D01*
X55333D01*
X59270Y210531D01*
X66131D01*
Y238741D01*
X59270Y238741D01*
D02*
G37*
G36*
X388825Y214271D02*
X388042D01*
X387318Y213971D01*
X386764Y213418D01*
X386465Y212694D01*
Y211911D01*
X386764Y211188D01*
X387318Y210634D01*
X388042Y210334D01*
X388825D01*
X389548Y210634D01*
X390102Y211188D01*
X390402Y211911D01*
Y212694D01*
X390102Y213418D01*
X389548Y213971D01*
X388825Y214271D01*
D02*
G37*
G36*
X551143Y214271D02*
X550360D01*
X549636Y213971D01*
X549082Y213417D01*
X548783Y212694D01*
Y211911D01*
X549082Y211187D01*
X549636Y210633D01*
X550360Y210334D01*
X551143D01*
X551866Y210633D01*
X552420Y211187D01*
X552720Y211911D01*
Y212694D01*
X552420Y213417D01*
X551866Y213971D01*
X551143Y214271D01*
D02*
G37*
G36*
X374459Y238052D02*
Y227953D01*
X372490Y225984D01*
X362549D01*
Y215702D01*
Y213779D01*
X370522D01*
X374459Y209842D01*
X381320D01*
Y238052D01*
X374459Y238052D01*
D02*
G37*
G36*
X536776Y238052D02*
Y227952D01*
X534808Y225984D01*
X524867D01*
Y215701D01*
Y213779D01*
X532839D01*
X536776Y209842D01*
X543638D01*
Y238052D01*
X536776Y238052D01*
D02*
G37*
G36*
X229384Y213090D02*
X228601D01*
X227877Y212790D01*
X227323Y212237D01*
X227024Y211513D01*
Y210730D01*
X227323Y210006D01*
X227877Y209453D01*
X228601Y209153D01*
X229384D01*
X230107Y209453D01*
X230661Y210006D01*
X230961Y210730D01*
Y211513D01*
X230661Y212237D01*
X230107Y212790D01*
X229384Y213090D01*
D02*
G37*
G36*
X215018Y236871D02*
Y226772D01*
X213049Y224803D01*
X203108D01*
Y214520D01*
Y212598D01*
X211081D01*
X215018Y208661D01*
X221879D01*
Y236871D01*
X215018Y236871D01*
D02*
G37*
G36*
X31986Y193209D02*
X31203D01*
X30479Y192909D01*
X29926Y192355D01*
X29626Y191632D01*
Y190849D01*
X29926Y190125D01*
X30479Y189571D01*
X31203Y189272D01*
X31986D01*
X32710Y189571D01*
X33263Y190125D01*
X33563Y190849D01*
Y191632D01*
X33263Y192355D01*
X32710Y192909D01*
X31986Y193209D01*
D02*
G37*
G36*
X623365Y176000D02*
X621910D01*
X620504Y175623D01*
X619244Y174896D01*
X619008Y174659D01*
X619803Y173864D01*
X619246Y173308D01*
X618451Y174103D01*
X618215Y173866D01*
X617487Y172606D01*
X617110Y171200D01*
Y169745D01*
X617487Y168339D01*
X618215Y167078D01*
X618451Y166842D01*
X619246Y167637D01*
X619803Y167081D01*
X619008Y166286D01*
X619244Y166049D01*
X620504Y165322D01*
X621910Y164945D01*
X623365D01*
X624771Y165322D01*
X626032Y166049D01*
X626268Y166286D01*
X625473Y167081D01*
X626030Y167637D01*
X626825Y166842D01*
X627061Y167078D01*
X627789Y168339D01*
X628165Y169745D01*
Y171200D01*
X627789Y172606D01*
X627061Y173866D01*
X626825Y174103D01*
X626030Y173308D01*
X625473Y173864D01*
X626268Y174659D01*
X626032Y174896D01*
X624771Y175623D01*
X623365Y176000D01*
D02*
G37*
G36*
X611564Y169744D02*
X610149D01*
X608760Y169468D01*
X607453Y168926D01*
X606276Y168140D01*
X605275Y167139D01*
X604489Y165962D01*
X603947Y164655D01*
X603671Y163267D01*
Y161851D01*
X603947Y160463D01*
X604489Y159156D01*
X605275Y157979D01*
X606276Y156978D01*
X607453Y156192D01*
X608760Y155650D01*
X610149Y155374D01*
X611564D01*
X612952Y155650D01*
X614260Y156192D01*
X615437Y156978D01*
X616437Y157979D01*
X617224Y159156D01*
X617765Y160463D01*
X618041Y161851D01*
Y163267D01*
X617765Y164655D01*
X617224Y165962D01*
X616437Y167139D01*
X615437Y168140D01*
X614260Y168926D01*
X612952Y169468D01*
X611564Y169744D01*
D02*
G37*
G36*
X576323Y161083D02*
X575390D01*
X574489Y160841D01*
X573681Y160375D01*
X573021Y159715D01*
X572554Y158907D01*
X572313Y158006D01*
Y157073D01*
X572554Y156172D01*
X573021Y155364D01*
X573681Y154704D01*
X574489Y154238D01*
X575390Y153996D01*
X576323D01*
X577224Y154238D01*
X578032Y154704D01*
X578692Y155364D01*
X579158Y156172D01*
X579400Y157073D01*
Y158006D01*
X579158Y158907D01*
X578692Y159715D01*
X578032Y160375D01*
X577224Y160841D01*
X576323Y161083D01*
D02*
G37*
G36*
X586323Y156083D02*
X585390D01*
X584489Y155841D01*
X583681Y155375D01*
X583021Y154715D01*
X582554Y153907D01*
X582313Y153006D01*
Y152073D01*
X582554Y151172D01*
X583021Y150364D01*
X583681Y149704D01*
X584489Y149238D01*
X585390Y148996D01*
X586323D01*
X587224Y149238D01*
X588032Y149704D01*
X588692Y150364D01*
X589158Y151172D01*
X589400Y152073D01*
Y153006D01*
X589158Y153907D01*
X588692Y154715D01*
X588032Y155375D01*
X587224Y155841D01*
X586323Y156083D01*
D02*
G37*
G36*
X576323Y151083D02*
X575390D01*
X574489Y150841D01*
X573681Y150375D01*
X573021Y149715D01*
X572554Y148907D01*
X572313Y148006D01*
Y147073D01*
X572554Y146172D01*
X573021Y145364D01*
X573681Y144704D01*
X574489Y144238D01*
X575390Y143996D01*
X576323D01*
X577224Y144238D01*
X578032Y144704D01*
X578692Y145364D01*
X579158Y146172D01*
X579400Y147073D01*
Y148006D01*
X579158Y148907D01*
X578692Y149715D01*
X578032Y150375D01*
X577224Y150841D01*
X576323Y151083D01*
D02*
G37*
G36*
X586323Y146083D02*
X585390D01*
X584489Y145841D01*
X583681Y145375D01*
X583021Y144715D01*
X582554Y143907D01*
X582313Y143006D01*
Y142073D01*
X582554Y141172D01*
X583021Y140364D01*
X583681Y139704D01*
X584489Y139238D01*
X585390Y138996D01*
X586323D01*
X587224Y139238D01*
X588032Y139704D01*
X588692Y140364D01*
X589158Y141172D01*
X589400Y142073D01*
Y143006D01*
X589158Y143907D01*
X588692Y144715D01*
X588032Y145375D01*
X587224Y145841D01*
X586323Y146083D01*
D02*
G37*
G36*
X576323Y141083D02*
X575390D01*
X574489Y140841D01*
X573681Y140375D01*
X573021Y139715D01*
X572554Y138907D01*
X572313Y138006D01*
Y137073D01*
X572554Y136172D01*
X573021Y135364D01*
X573681Y134704D01*
X574489Y134238D01*
X575390Y133996D01*
X576323D01*
X577224Y134238D01*
X578032Y134704D01*
X578692Y135364D01*
X579158Y136172D01*
X579400Y137073D01*
Y138006D01*
X579158Y138907D01*
X578692Y139715D01*
X578032Y140375D01*
X577224Y140841D01*
X576323Y141083D01*
D02*
G37*
G36*
X586323Y136083D02*
X585390D01*
X584489Y135841D01*
X583681Y135375D01*
X583021Y134715D01*
X582554Y133907D01*
X582313Y133006D01*
Y132073D01*
X582554Y131172D01*
X583021Y130364D01*
X583681Y129704D01*
X584489Y129238D01*
X585390Y128996D01*
X586323D01*
X587224Y129238D01*
X588032Y129704D01*
X588692Y130364D01*
X589158Y131172D01*
X589400Y132073D01*
Y133006D01*
X589158Y133907D01*
X588692Y134715D01*
X588032Y135375D01*
X587224Y135841D01*
X586323Y136083D01*
D02*
G37*
G36*
X576323Y131083D02*
X575390D01*
X574489Y130841D01*
X573681Y130375D01*
X573021Y129715D01*
X572554Y128907D01*
X572313Y128006D01*
Y127073D01*
X572554Y126172D01*
X573021Y125364D01*
X573681Y124704D01*
X574489Y124238D01*
X575390Y123996D01*
X576323D01*
X577224Y124238D01*
X578032Y124704D01*
X578692Y125364D01*
X579158Y126172D01*
X579400Y127073D01*
Y128006D01*
X579158Y128907D01*
X578692Y129715D01*
X578032Y130375D01*
X577224Y130841D01*
X576323Y131083D01*
D02*
G37*
G36*
X586323Y126083D02*
X585390D01*
X584489Y125841D01*
X583681Y125375D01*
X583021Y124715D01*
X582554Y123907D01*
X582313Y123006D01*
Y122073D01*
X582554Y121172D01*
X583021Y120364D01*
X583681Y119704D01*
X584489Y119238D01*
X585390Y118996D01*
X586323D01*
X587224Y119238D01*
X588032Y119704D01*
X588692Y120364D01*
X589158Y121172D01*
X589400Y122073D01*
Y123006D01*
X589158Y123907D01*
X588692Y124715D01*
X588032Y125375D01*
X587224Y125841D01*
X586323Y126083D01*
D02*
G37*
G36*
X623365Y115075D02*
X621910D01*
X620504Y114698D01*
X619244Y113970D01*
X619008Y113734D01*
X619803Y112939D01*
X619246Y112382D01*
X618451Y113177D01*
X618215Y112941D01*
X617487Y111681D01*
X617110Y110275D01*
Y108819D01*
X617487Y107414D01*
X618215Y106153D01*
X618451Y105917D01*
X619246Y106712D01*
X619803Y106156D01*
X619008Y105360D01*
X619244Y105124D01*
X620504Y104396D01*
X621910Y104020D01*
X623365D01*
X624771Y104396D01*
X626032Y105124D01*
X626268Y105360D01*
X625473Y106156D01*
X626030Y106712D01*
X626825Y105917D01*
X627061Y106153D01*
X627789Y107414D01*
X628165Y108819D01*
Y110275D01*
X627789Y111681D01*
X627061Y112941D01*
X626825Y113177D01*
X626030Y112382D01*
X625473Y112939D01*
X626268Y113734D01*
X626032Y113970D01*
X624771Y114698D01*
X623365Y115075D01*
D02*
G37*
G36*
X611564Y124744D02*
X610149D01*
X608760Y124468D01*
X607453Y123926D01*
X606276Y123140D01*
X605275Y122139D01*
X604489Y120962D01*
X603947Y119655D01*
X603671Y118267D01*
Y116851D01*
X603947Y115463D01*
X604489Y114156D01*
X605275Y112979D01*
X606276Y111978D01*
X607453Y111192D01*
X608760Y110650D01*
X610149Y110374D01*
X611564D01*
X612952Y110650D01*
X614260Y111192D01*
X615437Y111978D01*
X616437Y112979D01*
X617224Y114156D01*
X617765Y115463D01*
X618041Y116851D01*
Y118267D01*
X617765Y119655D01*
X617224Y120962D01*
X616437Y122139D01*
X615437Y123140D01*
X614260Y123926D01*
X612952Y124468D01*
X611564Y124744D01*
D02*
G37*
G36*
X370025Y101618D02*
X369299D01*
X368598Y101430D01*
X367970Y101068D01*
X367457Y100554D01*
X367094Y99926D01*
X366906Y99225D01*
Y98500D01*
X367094Y97799D01*
X367457Y97170D01*
X367970Y96657D01*
X368598Y96294D01*
X369299Y96106D01*
X370025D01*
X370725Y96294D01*
X371354Y96657D01*
X371867Y97170D01*
X372230Y97799D01*
X372418Y98500D01*
Y99225D01*
X372230Y99926D01*
X371867Y100554D01*
X371354Y101068D01*
X370725Y101430D01*
X370025Y101618D01*
D02*
G37*
G36*
X376717D02*
X375992D01*
X375291Y101430D01*
X374662Y101068D01*
X374149Y100554D01*
X373787Y99926D01*
X373599Y99225D01*
Y98500D01*
X373787Y97799D01*
X374149Y97170D01*
X374662Y96657D01*
X375291Y96294D01*
X375957Y96116D01*
X375984Y96074D01*
X375877Y95576D01*
X375685Y95525D01*
X375056Y95162D01*
X374543Y94649D01*
X374180Y94020D01*
X373992Y93320D01*
Y92594D01*
X374180Y91893D01*
X374543Y91265D01*
X375056Y90751D01*
X375685Y90389D01*
X376386Y90201D01*
X377111D01*
X377812Y90389D01*
X378441Y90751D01*
X378954Y91265D01*
X379316Y91893D01*
X379504Y92594D01*
Y93320D01*
X379316Y94020D01*
X378954Y94649D01*
X378441Y95162D01*
X377812Y95525D01*
X377146Y95703D01*
X377119Y95745D01*
X377226Y96243D01*
X377418Y96294D01*
X378047Y96657D01*
X378560Y97170D01*
X378923Y97799D01*
X379111Y98500D01*
Y99225D01*
X378923Y99926D01*
X378560Y100554D01*
X378047Y101068D01*
X377418Y101430D01*
X376717Y101618D01*
D02*
G37*
G36*
X306212Y93286D02*
X305429D01*
X304706Y92986D01*
X304152Y92432D01*
X303852Y91709D01*
Y90926D01*
X304152Y90202D01*
X304706Y89648D01*
X305429Y89349D01*
X306212D01*
X306936Y89648D01*
X307490Y90202D01*
X307789Y90926D01*
Y91709D01*
X307490Y92432D01*
X306936Y92986D01*
X306212Y93286D01*
D02*
G37*
G36*
X213282Y92169D02*
X212499D01*
X211775Y91870D01*
X211221Y91316D01*
X210922Y90592D01*
Y89809D01*
X211221Y89086D01*
X211775Y88532D01*
X212499Y88232D01*
X213282D01*
X214005Y88532D01*
X214559Y89086D01*
X214859Y89809D01*
Y90592D01*
X214559Y91316D01*
X214005Y91870D01*
X213282Y92169D01*
D02*
G37*
G36*
X292101Y85083D02*
X291318D01*
X290594Y84783D01*
X290040Y84229D01*
X289740Y83506D01*
Y82723D01*
X290040Y81999D01*
X290594Y81445D01*
X291318Y81146D01*
X292101D01*
X292824Y81445D01*
X293378Y81999D01*
X293677Y82723D01*
Y83506D01*
X293378Y84229D01*
X292824Y84783D01*
X292101Y85083D01*
D02*
G37*
G36*
X377360Y79724D02*
X376577D01*
X375853Y79425D01*
X375300Y78871D01*
X375000Y78148D01*
Y77364D01*
X375300Y76641D01*
X375853Y76087D01*
X376577Y75787D01*
X377360D01*
X378084Y76087D01*
X378637Y76641D01*
X378937Y77364D01*
Y78148D01*
X378637Y78871D01*
X378084Y79425D01*
X377360Y79724D01*
D02*
G37*
G36*
X599084Y83465D02*
X597766D01*
X596473Y83207D01*
X595255Y82703D01*
X594159Y81970D01*
X593226Y81038D01*
X592494Y79942D01*
X591990Y78724D01*
X591732Y77431D01*
Y76113D01*
X591990Y74819D01*
X592494Y73601D01*
X593226Y72505D01*
X594159Y71573D01*
X595255Y70841D01*
X596473Y70336D01*
X597766Y70079D01*
X599084D01*
X600378Y70336D01*
X601595Y70841D01*
X602692Y71573D01*
X603624Y72505D01*
X604356Y73601D01*
X604861Y74819D01*
X605118Y76113D01*
Y77431D01*
X604861Y78724D01*
X604356Y79942D01*
X603624Y81038D01*
X602692Y81970D01*
X601595Y82703D01*
X600378Y83207D01*
X599084Y83465D01*
D02*
G37*
G36*
X32155D02*
X30837D01*
X29544Y83207D01*
X28326Y82703D01*
X27230Y81970D01*
X26297Y81038D01*
X25565Y79942D01*
X25060Y78724D01*
X24803Y77431D01*
Y76113D01*
X25060Y74819D01*
X25565Y73601D01*
X26297Y72505D01*
X27230Y71573D01*
X28326Y70841D01*
X29544Y70336D01*
X30837Y70079D01*
X32155D01*
X33448Y70336D01*
X34666Y70841D01*
X35763Y71573D01*
X36695Y72505D01*
X37427Y73601D01*
X37932Y74819D01*
X38189Y76113D01*
Y77431D01*
X37932Y78724D01*
X37427Y79942D01*
X36695Y81038D01*
X35763Y81970D01*
X34666Y82703D01*
X33448Y83207D01*
X32155Y83465D01*
D02*
G37*
G36*
X614988Y85039D02*
X613359D01*
X611762Y84722D01*
X610257Y84098D01*
X608903Y83194D01*
X607751Y82042D01*
X606847Y80688D01*
X606223Y79183D01*
X605905Y77586D01*
Y75957D01*
X606223Y74360D01*
X606847Y72855D01*
X607751Y71501D01*
X608903Y70350D01*
X610257Y69445D01*
X611762Y68822D01*
X613359Y68504D01*
X614988D01*
X616585Y68822D01*
X618089Y69445D01*
X619444Y70350D01*
X620595Y71501D01*
X621500Y72855D01*
X622123Y74360D01*
X622441Y75957D01*
Y77586D01*
X622123Y79183D01*
X621500Y80688D01*
X620595Y82042D01*
X619444Y83194D01*
X618089Y84098D01*
X616585Y84722D01*
X614988Y85039D01*
D02*
G37*
G36*
X16562D02*
X14934D01*
X13336Y84722D01*
X11832Y84098D01*
X10478Y83194D01*
X9326Y82042D01*
X8421Y80688D01*
X7798Y79183D01*
X7480Y77586D01*
Y75957D01*
X7798Y74360D01*
X8421Y72855D01*
X9326Y71501D01*
X10478Y70350D01*
X11832Y69445D01*
X13336Y68822D01*
X14934Y68504D01*
X16562D01*
X18160Y68822D01*
X19664Y69445D01*
X21018Y70350D01*
X22170Y71501D01*
X23075Y72855D01*
X23698Y74360D01*
X24016Y75957D01*
Y77586D01*
X23698Y79183D01*
X23075Y80688D01*
X22170Y82042D01*
X21018Y83194D01*
X19664Y84098D01*
X18160Y84722D01*
X16562Y85039D01*
D02*
G37*
G36*
X191313Y75240D02*
X190530D01*
X189806Y74941D01*
X189253Y74387D01*
X188953Y73663D01*
Y72880D01*
X189253Y72157D01*
X189806Y71603D01*
X190530Y71303D01*
X190568D01*
X190667Y70803D01*
X190200Y70610D01*
X189646Y70056D01*
X189347Y69333D01*
Y68550D01*
X189646Y67826D01*
X190200Y67272D01*
X190924Y66973D01*
X191707D01*
X192430Y67272D01*
X192984Y67826D01*
X193284Y68550D01*
Y69333D01*
X192984Y70056D01*
X192430Y70610D01*
X191707Y70910D01*
X191669D01*
X191570Y71409D01*
X192037Y71603D01*
X192590Y72157D01*
X192890Y72880D01*
Y73663D01*
X192590Y74387D01*
X192037Y74941D01*
X191313Y75240D01*
D02*
G37*
G36*
X221628Y68154D02*
X220845D01*
X220122Y67854D01*
X219568Y67300D01*
X219268Y66577D01*
Y65794D01*
X219568Y65070D01*
X220122Y64516D01*
X220845Y64217D01*
X221628D01*
X222352Y64516D01*
X222905Y65070D01*
X223205Y65794D01*
Y66577D01*
X222905Y67300D01*
X222352Y67854D01*
X221628Y68154D01*
D02*
G37*
G36*
X352730Y65004D02*
X351947D01*
X351224Y64704D01*
X350670Y64151D01*
X350370Y63427D01*
Y62644D01*
X350670Y61920D01*
X351224Y61367D01*
X351947Y61067D01*
X352730D01*
X353454Y61367D01*
X354008Y61920D01*
X354307Y62644D01*
Y63427D01*
X354008Y64151D01*
X353454Y64704D01*
X352730Y65004D01*
D02*
G37*
G36*
X343058Y64961D02*
X342275D01*
X341551Y64661D01*
X340998Y64108D01*
X340698Y63384D01*
Y62601D01*
X340998Y61877D01*
X341551Y61324D01*
X342275Y61024D01*
X343058D01*
X343781Y61324D01*
X344335Y61877D01*
X344635Y62601D01*
Y63384D01*
X344335Y64108D01*
X343781Y64661D01*
X343058Y64961D01*
D02*
G37*
G36*
X334551D02*
X333768D01*
X333044Y64661D01*
X332490Y64108D01*
X332191Y63384D01*
Y62601D01*
X332490Y61877D01*
X333044Y61324D01*
X333768Y61024D01*
X334551D01*
X335274Y61324D01*
X335828Y61877D01*
X336128Y62601D01*
Y63384D01*
X335828Y64108D01*
X335274Y64661D01*
X334551Y64961D01*
D02*
G37*
G36*
X326044D02*
X325261D01*
X324537Y64661D01*
X323983Y64108D01*
X323684Y63384D01*
Y62601D01*
X323983Y61877D01*
X324537Y61324D01*
X325261Y61024D01*
X326044D01*
X326767Y61324D01*
X327321Y61877D01*
X327621Y62601D01*
Y63384D01*
X327321Y64108D01*
X326767Y64661D01*
X326044Y64961D01*
D02*
G37*
G36*
X318255D02*
X317472D01*
X316748Y64661D01*
X316194Y64108D01*
X315895Y63384D01*
Y62601D01*
X316194Y61877D01*
X316748Y61324D01*
X317472Y61024D01*
X318255D01*
X318978Y61324D01*
X319532Y61877D01*
X319832Y62601D01*
Y63384D01*
X319532Y64108D01*
X318978Y64661D01*
X318255Y64961D01*
D02*
G37*
G36*
X309593D02*
X308810D01*
X308087Y64661D01*
X307533Y64108D01*
X307233Y63384D01*
Y62601D01*
X307533Y61877D01*
X308087Y61324D01*
X308810Y61024D01*
X309593D01*
X310317Y61324D01*
X310871Y61877D01*
X311170Y62601D01*
Y63384D01*
X310871Y64108D01*
X310317Y64661D01*
X309593Y64961D01*
D02*
G37*
G36*
X39055Y58748D02*
X37859D01*
X36703Y58438D01*
X35667Y57840D01*
X35522Y57696D01*
X36321Y56897D01*
X35764Y56340D01*
X34966Y57139D01*
X34821Y56994D01*
X34223Y55958D01*
X33913Y54803D01*
Y53607D01*
X34223Y52451D01*
X34821Y51415D01*
X34966Y51271D01*
X35764Y52069D01*
X36321Y51512D01*
X35522Y50714D01*
X35667Y50569D01*
X36703Y49971D01*
X37859Y49661D01*
X39055D01*
X40210Y49971D01*
X41246Y50569D01*
X41391Y50714D01*
X40592Y51512D01*
X41149Y52069D01*
X41948Y51271D01*
X42092Y51415D01*
X42690Y52451D01*
X43000Y53607D01*
Y54803D01*
X42690Y55958D01*
X42092Y56994D01*
X41948Y57139D01*
X41149Y56340D01*
X40592Y56897D01*
X41391Y57696D01*
X41246Y57840D01*
X40210Y58438D01*
X39055Y58748D01*
D02*
G37*
G36*
X25134D02*
X23937D01*
X22782Y58438D01*
X21746Y57840D01*
X21601Y57696D01*
X22400Y56897D01*
X21843Y56340D01*
X21045Y57139D01*
X20900Y56994D01*
X20302Y55958D01*
X19992Y54803D01*
Y53607D01*
X20302Y52451D01*
X20900Y51415D01*
X21045Y51271D01*
X21843Y52069D01*
X22400Y51512D01*
X21601Y50714D01*
X21746Y50569D01*
X22782Y49971D01*
X23937Y49661D01*
X25134D01*
X26289Y49971D01*
X27325Y50569D01*
X27470Y50714D01*
X26671Y51512D01*
X27228Y52069D01*
X28026Y51271D01*
X28171Y51415D01*
X28769Y52451D01*
X29079Y53607D01*
Y54803D01*
X28769Y55958D01*
X28171Y56994D01*
X28026Y57139D01*
X27228Y56340D01*
X26671Y56897D01*
X27470Y57696D01*
X27325Y57840D01*
X26289Y58438D01*
X25134Y58748D01*
D02*
G37*
G36*
X275506Y72693D02*
X274723D01*
X273999Y72393D01*
X273446Y71839D01*
X273146Y71115D01*
Y70332D01*
X273446Y69609D01*
X273665Y69389D01*
X273699Y69335D01*
X273734Y69296D01*
X273744Y69284D01*
X273753Y69269D01*
X273763Y69248D01*
X273774Y69221D01*
X273785Y69185D01*
X273795Y69140D01*
X273804Y69085D01*
X273809Y69020D01*
X273812Y68923D01*
X273844Y68781D01*
X273873Y68638D01*
X273879Y68629D01*
X273881Y68618D01*
X273966Y68499D01*
X274002Y68444D01*
Y64670D01*
X274002Y64670D01*
X274087Y64244D01*
X274328Y63883D01*
X283011Y55200D01*
X283024Y55135D01*
X283049Y54991D01*
X283055Y54982D01*
X283057Y54971D01*
X283138Y54850D01*
X283216Y54726D01*
X283282Y54656D01*
X283324Y54606D01*
X283357Y54561D01*
X283382Y54522D01*
X283400Y54489D01*
X283411Y54462D01*
X283418Y54440D01*
X283422Y54423D01*
X283424Y54408D01*
X283426Y54355D01*
X283441Y54293D01*
Y53983D01*
X283741Y53259D01*
X284295Y52705D01*
X285018Y52406D01*
X285801D01*
X286525Y52705D01*
X287079Y53259D01*
X287378Y53983D01*
Y54766D01*
X287079Y55489D01*
X286525Y56043D01*
X285801Y56343D01*
X285490D01*
X285429Y56357D01*
X285376Y56359D01*
X285361Y56361D01*
X285343Y56366D01*
X285322Y56373D01*
X285295Y56384D01*
X285262Y56402D01*
X285223Y56427D01*
X285178Y56460D01*
X285128Y56502D01*
X285058Y56568D01*
X284934Y56646D01*
X284813Y56727D01*
X284802Y56729D01*
X284793Y56735D01*
X284649Y56760D01*
X284584Y56773D01*
X276226Y65130D01*
Y68444D01*
X276263Y68499D01*
X276347Y68618D01*
X276350Y68629D01*
X276356Y68638D01*
X276384Y68781D01*
X276417Y68923D01*
X276419Y69020D01*
X276425Y69085D01*
X276433Y69140D01*
X276443Y69185D01*
X276454Y69221D01*
X276465Y69248D01*
X276476Y69269D01*
X276485Y69284D01*
X276494Y69296D01*
X276530Y69335D01*
X276563Y69389D01*
X276783Y69609D01*
X277083Y70332D01*
Y71115D01*
X276783Y71839D01*
X276229Y72393D01*
X275506Y72693D01*
D02*
G37*
G36*
X200762Y55555D02*
X199979D01*
X199255Y55256D01*
X198702Y54702D01*
X198402Y53978D01*
Y53195D01*
X198702Y52472D01*
X199255Y51918D01*
X199979Y51618D01*
X200762D01*
X201485Y51918D01*
X202039Y52472D01*
X202339Y53195D01*
Y53978D01*
X202039Y54702D01*
X201485Y55256D01*
X200762Y55555D01*
D02*
G37*
G36*
X605956Y58535D02*
X604816D01*
X603714Y58240D01*
X602727Y57670D01*
X601920Y56864D01*
X601350Y55876D01*
X601055Y54775D01*
Y53635D01*
X601350Y52533D01*
X601920Y51546D01*
X602727Y50739D01*
X603714Y50169D01*
X604816Y49874D01*
X605956D01*
X607057Y50169D01*
X608045Y50739D01*
X608851Y51546D01*
X609421Y52533D01*
X609717Y53635D01*
Y54775D01*
X609421Y55876D01*
X608851Y56864D01*
X608045Y57670D01*
X607057Y58240D01*
X605956Y58535D01*
D02*
G37*
G36*
X592035D02*
X590894D01*
X589793Y58240D01*
X588805Y57670D01*
X587999Y56864D01*
X587429Y55876D01*
X587134Y54775D01*
Y53635D01*
X587429Y52533D01*
X587999Y51546D01*
X588805Y50739D01*
X589793Y50169D01*
X590894Y49874D01*
X592035D01*
X593136Y50169D01*
X594124Y50739D01*
X594930Y51546D01*
X595500Y52533D01*
X595795Y53635D01*
Y54775D01*
X595500Y55876D01*
X594930Y56864D01*
X594124Y57670D01*
X593136Y58240D01*
X592035Y58535D01*
D02*
G37*
G36*
X605984Y44827D02*
X604788D01*
X603632Y44517D01*
X602596Y43919D01*
X602452Y43774D01*
X603250Y42976D01*
X602693Y42419D01*
X601895Y43218D01*
X601750Y43073D01*
X601152Y42037D01*
X600843Y40882D01*
Y39685D01*
X601152Y38530D01*
X601750Y37494D01*
X601895Y37349D01*
X602693Y38148D01*
X603250Y37591D01*
X602452Y36792D01*
X602596Y36648D01*
X603632Y36050D01*
X604788Y35740D01*
X605984D01*
X607139Y36050D01*
X608176Y36648D01*
X608320Y36792D01*
X607521Y37591D01*
X608078Y38148D01*
X608877Y37349D01*
X609021Y37494D01*
X609620Y38530D01*
X609929Y39685D01*
Y40882D01*
X609620Y42037D01*
X609021Y43073D01*
X608877Y43218D01*
X608078Y42419D01*
X607521Y42976D01*
X608320Y43774D01*
X608176Y43919D01*
X607139Y44517D01*
X605984Y44827D01*
D02*
G37*
G36*
X592063D02*
X590866D01*
X589711Y44517D01*
X588675Y43919D01*
X588530Y43774D01*
X589329Y42976D01*
X588772Y42419D01*
X587974Y43218D01*
X587829Y43073D01*
X587231Y42037D01*
X586921Y40882D01*
Y39685D01*
X587231Y38530D01*
X587829Y37494D01*
X587974Y37349D01*
X588772Y38148D01*
X589329Y37591D01*
X588530Y36792D01*
X588675Y36648D01*
X589711Y36050D01*
X590866Y35740D01*
X592063D01*
X593218Y36050D01*
X594254Y36648D01*
X594399Y36792D01*
X593600Y37591D01*
X594157Y38148D01*
X594956Y37349D01*
X595100Y37494D01*
X595698Y38530D01*
X596008Y39685D01*
Y40882D01*
X595698Y42037D01*
X595100Y43073D01*
X594956Y43218D01*
X594157Y42419D01*
X593600Y42976D01*
X594399Y43774D01*
X594254Y43919D01*
X593218Y44517D01*
X592063Y44827D01*
D02*
G37*
G36*
X39027Y44614D02*
X37887D01*
X36785Y44319D01*
X35798Y43749D01*
X34991Y42943D01*
X34421Y41955D01*
X34126Y40854D01*
Y39713D01*
X34421Y38612D01*
X34991Y37624D01*
X35798Y36818D01*
X36785Y36248D01*
X37887Y35953D01*
X39027D01*
X40128Y36248D01*
X41116Y36818D01*
X41922Y37624D01*
X42492Y38612D01*
X42787Y39713D01*
Y40854D01*
X42492Y41955D01*
X41922Y42943D01*
X41116Y43749D01*
X40128Y44319D01*
X39027Y44614D01*
D02*
G37*
G36*
X25106D02*
X23965D01*
X22864Y44319D01*
X21876Y43749D01*
X21070Y42943D01*
X20500Y41955D01*
X20205Y40854D01*
Y39713D01*
X20500Y38612D01*
X21070Y37624D01*
X21876Y36818D01*
X22864Y36248D01*
X23965Y35953D01*
X25106D01*
X26207Y36248D01*
X27194Y36818D01*
X28001Y37624D01*
X28571Y38612D01*
X28866Y39713D01*
Y40854D01*
X28571Y41955D01*
X28001Y42943D01*
X27194Y43749D01*
X26207Y44319D01*
X25106Y44614D01*
D02*
G37*
G36*
X555855Y27165D02*
X554381D01*
X552936Y26878D01*
X551575Y26314D01*
X550350Y25495D01*
X549308Y24453D01*
X548489Y23228D01*
X547925Y21867D01*
X547638Y20422D01*
Y18948D01*
X547925Y17503D01*
X548489Y16142D01*
X549308Y14917D01*
X550350Y13875D01*
X551575Y13056D01*
X552936Y12492D01*
X554381Y12205D01*
X555855D01*
X557300Y12492D01*
X558661Y13056D01*
X559887Y13875D01*
X560928Y14917D01*
X561747Y16142D01*
X562311Y17503D01*
X562598Y18948D01*
Y20422D01*
X562311Y21867D01*
X561747Y23228D01*
X560928Y24453D01*
X559887Y25495D01*
X558661Y26314D01*
X557300Y26878D01*
X555855Y27165D01*
D02*
G37*
G36*
X75540D02*
X74066D01*
X72621Y26878D01*
X71260Y26314D01*
X70035Y25495D01*
X68993Y24453D01*
X68174Y23228D01*
X67610Y21867D01*
X67323Y20422D01*
Y18948D01*
X67610Y17503D01*
X68174Y16142D01*
X68993Y14917D01*
X70035Y13875D01*
X71260Y13056D01*
X72621Y12492D01*
X74066Y12205D01*
X75540D01*
X76985Y12492D01*
X78346Y13056D01*
X79572Y13875D01*
X80613Y14917D01*
X81432Y16142D01*
X81996Y17503D01*
X82284Y18948D01*
Y20422D01*
X81996Y21867D01*
X81432Y23228D01*
X80613Y24453D01*
X79572Y25495D01*
X78346Y26314D01*
X76985Y26878D01*
X75540Y27165D01*
D02*
G37*
G36*
X599084Y24409D02*
X597766D01*
X596473Y24152D01*
X595255Y23648D01*
X594159Y22915D01*
X593226Y21983D01*
X592494Y20887D01*
X591990Y19669D01*
X591732Y18376D01*
Y17057D01*
X591990Y15764D01*
X592494Y14546D01*
X593226Y13450D01*
X594159Y12518D01*
X595255Y11785D01*
X596473Y11281D01*
X597766Y11024D01*
X599084D01*
X600378Y11281D01*
X601595Y11785D01*
X602692Y12518D01*
X603624Y13450D01*
X604356Y14546D01*
X604861Y15764D01*
X605118Y17057D01*
Y18376D01*
X604861Y19669D01*
X604356Y20887D01*
X603624Y21983D01*
X602692Y22915D01*
X601595Y23648D01*
X600378Y24152D01*
X599084Y24409D01*
D02*
G37*
G36*
X32155D02*
X30837D01*
X29544Y24152D01*
X28326Y23648D01*
X27230Y22915D01*
X26297Y21983D01*
X25565Y20887D01*
X25060Y19669D01*
X24803Y18376D01*
Y17057D01*
X25060Y15764D01*
X25565Y14546D01*
X26297Y13450D01*
X27230Y12518D01*
X28326Y11785D01*
X29544Y11281D01*
X30837Y11024D01*
X32155D01*
X33448Y11281D01*
X34666Y11785D01*
X35763Y12518D01*
X36695Y13450D01*
X37427Y14546D01*
X37932Y15764D01*
X38189Y17057D01*
Y18376D01*
X37932Y19669D01*
X37427Y20887D01*
X36695Y21983D01*
X35763Y22915D01*
X34666Y23648D01*
X33448Y24152D01*
X32155Y24409D01*
D02*
G37*
G36*
X614988Y25984D02*
X613359D01*
X611762Y25666D01*
X610257Y25043D01*
X608903Y24138D01*
X607751Y22987D01*
X606847Y21633D01*
X606223Y20128D01*
X605905Y18531D01*
Y16902D01*
X606223Y15305D01*
X606847Y13800D01*
X607751Y12446D01*
X608903Y11295D01*
X610257Y10390D01*
X611762Y9766D01*
X613359Y9449D01*
X614988D01*
X616585Y9766D01*
X618089Y10390D01*
X619444Y11295D01*
X620595Y12446D01*
X621500Y13800D01*
X622123Y15305D01*
X622441Y16902D01*
Y18531D01*
X622123Y20128D01*
X621500Y21633D01*
X620595Y22987D01*
X619444Y24138D01*
X618089Y25043D01*
X616585Y25666D01*
X614988Y25984D01*
D02*
G37*
G36*
X16562D02*
X14934D01*
X13336Y25666D01*
X11832Y25043D01*
X10478Y24138D01*
X9326Y22987D01*
X8421Y21633D01*
X7798Y20128D01*
X7480Y18531D01*
Y16902D01*
X7798Y15305D01*
X8421Y13800D01*
X9326Y12446D01*
X10478Y11295D01*
X11832Y10390D01*
X13336Y9766D01*
X14934Y9449D01*
X16562D01*
X18160Y9766D01*
X19664Y10390D01*
X21018Y11295D01*
X22170Y12446D01*
X23075Y13800D01*
X23698Y15305D01*
X24016Y16902D01*
Y18531D01*
X23698Y20128D01*
X23075Y21633D01*
X22170Y22987D01*
X21018Y24138D01*
X19664Y25043D01*
X18160Y25666D01*
X16562Y25984D01*
D02*
G37*
%LPD*%
G36*
X275879Y69814D02*
X275823Y69741D01*
X275774Y69662D01*
X275732Y69577D01*
X275696Y69487D01*
X275667Y69390D01*
X275644Y69288D01*
X275627Y69179D01*
X275618Y69065D01*
X275614Y68945D01*
X274614D01*
X274611Y69065D01*
X274601Y69179D01*
X274585Y69288D01*
X274562Y69390D01*
X274533Y69487D01*
X274497Y69577D01*
X274454Y69662D01*
X274405Y69741D01*
X274350Y69814D01*
X274288Y69880D01*
X275941D01*
X275879Y69814D01*
D02*
G37*
G36*
X284593Y55903D02*
X284681Y55829D01*
X284769Y55764D01*
X284857Y55708D01*
X284946Y55660D01*
X285036Y55622D01*
X285125Y55592D01*
X285216Y55571D01*
X285307Y55559D01*
X285398Y55555D01*
X284229Y54386D01*
X284225Y54477D01*
X284213Y54568D01*
X284192Y54658D01*
X284162Y54748D01*
X284123Y54838D01*
X284076Y54927D01*
X284020Y55015D01*
X283955Y55103D01*
X283881Y55191D01*
X283799Y55278D01*
X284506Y55985D01*
X284593Y55903D01*
D02*
G37*
D10*
X275114Y64670D02*
Y70724D01*
Y64670D02*
X285410Y54374D01*
D89*
X622638Y170472D02*
D03*
Y109547D02*
D03*
D92*
X557087Y282323D02*
D03*
X395669D02*
D03*
X234252D02*
D03*
X72835D02*
D03*
D93*
X514370Y292323D02*
D03*
Y369094D02*
D03*
X599803D02*
D03*
Y292323D02*
D03*
X352953D02*
D03*
Y369094D02*
D03*
X438386D02*
D03*
Y292323D02*
D03*
X191535D02*
D03*
Y369094D02*
D03*
X276969D02*
D03*
Y292323D02*
D03*
X30118D02*
D03*
Y369094D02*
D03*
X115551D02*
D03*
Y292323D02*
D03*
D95*
X591465Y40284D02*
D03*
X605386D02*
D03*
X24535Y54205D02*
D03*
X38457D02*
D03*
D98*
X237342Y21928D02*
D03*
X347184D02*
D03*
X249016Y17717D02*
D03*
X220843Y23665D02*
D03*
X216119Y29473D02*
D03*
X272638Y26575D02*
D03*
X147244Y31102D02*
D03*
X177559Y87402D02*
D03*
X141370Y67563D02*
D03*
X556693Y216535D02*
D03*
X394488D02*
D03*
X235039Y215748D02*
D03*
X79429Y217325D02*
D03*
X63386Y207087D02*
D03*
X219587Y205217D02*
D03*
X541870Y206518D02*
D03*
X379528Y206398D02*
D03*
X154528Y108268D02*
D03*
X149606D02*
D03*
X139764D02*
D03*
X134843D02*
D03*
X198425Y18799D02*
D03*
X112598Y77953D02*
D03*
Y84646D02*
D03*
Y91732D02*
D03*
X136386Y213484D02*
D03*
X126346Y227362D02*
D03*
X292134Y211614D02*
D03*
X282095Y225492D02*
D03*
X605118Y198327D02*
D03*
X595079Y212205D02*
D03*
X22736Y195669D02*
D03*
Y201378D02*
D03*
Y207087D02*
D03*
X590756Y186851D02*
D03*
X562879Y206342D02*
D03*
X516157Y186263D02*
D03*
X540484Y194504D02*
D03*
X564893D02*
D03*
X556496Y233366D02*
D03*
X502854Y219291D02*
D03*
Y225000D02*
D03*
Y230709D02*
D03*
X340453Y219193D02*
D03*
Y224902D02*
D03*
Y230610D02*
D03*
X285410Y54374D02*
D03*
X291304Y69118D02*
D03*
X295717Y65484D02*
D03*
X287056D02*
D03*
Y73161D02*
D03*
X295717D02*
D03*
X293371Y54768D02*
D03*
X289827D02*
D03*
X113249Y187540D02*
D03*
X361958Y68898D02*
D03*
X264764Y42618D02*
D03*
X279113Y45713D02*
D03*
X268012Y34646D02*
D03*
X278717Y33508D02*
D03*
Y38626D02*
D03*
X247221Y81146D02*
D03*
X250370D02*
D03*
X239740D02*
D03*
X242890D02*
D03*
X231867D02*
D03*
X235016D02*
D03*
X183071Y68110D02*
D03*
Y63779D02*
D03*
Y54724D02*
D03*
Y50394D02*
D03*
Y37402D02*
D03*
Y41732D02*
D03*
Y76378D02*
D03*
Y80709D02*
D03*
X141370Y37248D02*
D03*
Y41579D02*
D03*
Y75830D02*
D03*
Y80161D02*
D03*
Y63232D02*
D03*
Y54571D02*
D03*
Y50240D02*
D03*
X216119Y33803D02*
D03*
Y40545D02*
D03*
Y44876D02*
D03*
X189764Y47244D02*
D03*
X191315Y63823D02*
D03*
X195252Y92957D02*
D03*
X213756Y84295D02*
D03*
X227536Y81146D02*
D03*
X224386D02*
D03*
X270019Y70354D02*
D03*
X296397Y95157D02*
D03*
X218838Y61692D02*
D03*
X216119Y55949D02*
D03*
Y51618D02*
D03*
X318874Y79046D02*
D03*
Y73272D02*
D03*
Y90595D02*
D03*
Y84820D02*
D03*
X276748Y89807D02*
D03*
X378099Y50788D02*
D03*
X372981D02*
D03*
X317913Y45276D02*
D03*
X309055D02*
D03*
X325787D02*
D03*
X353839Y186264D02*
D03*
X441535Y226673D02*
D03*
X451575Y212795D02*
D03*
X402575Y194504D02*
D03*
X378166D02*
D03*
X394094Y233563D02*
D03*
X428438Y186851D02*
D03*
X400787Y206398D02*
D03*
X194398Y185083D02*
D03*
X180807Y223917D02*
D03*
Y229626D02*
D03*
X243134Y193323D02*
D03*
X180807Y218209D02*
D03*
X218307Y193307D02*
D03*
X234449Y232283D02*
D03*
X268997Y185670D02*
D03*
X241929Y205217D02*
D03*
X79134Y233858D02*
D03*
X86614Y207087D02*
D03*
X38650Y186953D02*
D03*
X259032Y47681D02*
D03*
X301945Y50437D02*
D03*
X334646Y45276D02*
D03*
X342520D02*
D03*
X265331Y76028D02*
D03*
X268874Y87839D02*
D03*
X296433Y85083D02*
D03*
X275114Y70724D02*
D03*
X87386Y195193D02*
D03*
X62977D02*
D03*
X361958Y72441D02*
D03*
X393060Y68898D02*
D03*
X357233Y90945D02*
D03*
X362351Y83465D02*
D03*
X273524Y42913D02*
D03*
X362351Y78347D02*
D03*
D99*
X209011Y72693D02*
D03*
X206756D02*
D03*
M02*
