M48
;Layer_Color=9474304
;FILE_FORMAT=2:5
INCH,TZ
;TYPE=PLATED
T01F00S00C0.01181
T02F00S00C0.01968
T03F00S00C0.03543
T04F00S00C0.03937
T05F00S00C0.05118
T06F00S00C0.06299
T07F00S00C0.07874
T08F00S00C0.08268
T09F00S00C0.11220
;TYPE=NON_PLATED
T10F00S00C0.12795
T11F00S00C0.13386
T12F00S00C0.62992
%
T01
X147244Y31102
X141370Y37248
X183071Y37402
X198425Y18799
X220843Y23665
X216119Y29473
Y33803
Y40545
X237342Y21928
X249016Y17717
X272638Y26575
X268012Y34646
X278717Y33508
Y38626
X347184Y21928
X590756Y186851
X564893Y194504
X540484
X516157Y186263
X428438Y186851
X402575Y194504
X378166
X353839Y186264
X268997Y185670
X268874Y87839
X276748Y89807
X275114Y70724
X270019Y70354
X265331Y76028
X287056Y73161
Y65484
X291304Y69118
X295717Y65484
Y73161
X296433Y85083
X291709Y83114
X296397Y95157
X305821Y91317
X318874Y90595
Y84820
Y79046
Y73272
X317863Y62993
X325652
X334159
X342666
X352339Y63036
X361958Y68898
Y72441
X362351Y78347
Y83465
X357233Y90945
X376969Y77756
X393060Y68898
X378099Y50788
X372981
X342520Y45276
X334646
X325787
X317913
X309055
X301945Y50437
X293371Y54768
X289827
X285410Y54374
X279113Y45713
X273524Y42913
X264764Y42618
X259032Y47681
X309202Y62993
X250370Y81146
X247221
X242890
X239740
X235016
X231867
X227536
X224386
X213756Y84295
X212890Y90201
X195252Y92957
X177559Y87402
X183071Y80709
Y76378
Y68110
Y63779
X191315Y63823
Y68941
X190922Y73272
X206756Y72693
X209011
X221237Y66185
X218838Y61692
X216119Y55949
Y51618
Y44876
X200370Y53587
X189764Y47244
X183071Y50394
Y54724
Y41732
X141370Y41579
Y50240
Y54571
Y63232
Y67563
Y75830
Y80161
X139764Y108268
X134843
X149606
X154528
X112598Y91732
Y84646
Y77953
X113249Y187540
X194398Y185083
X218307Y193307
X243134Y193323
X87386Y195193
X62977
X38650Y186953
X31594Y191240
X22736Y195669
Y201378
Y207087
X63386
X73325Y213037
X74791Y217877
X79429Y217325
X79134Y233858
X69685Y238976
X52854Y248524
X86614Y207087
X136386Y213484
X126346Y227362
X125000Y247047
X104724Y247441
X180807Y229626
Y223917
Y218209
X189862Y213976
X219587Y205217
X228992Y211122
X230458Y215962
X235039Y215748
X234449Y232283
X225295Y237106
X209539Y247638
X241929Y205217
X292134Y211614
X282095Y225492
X281299Y245571
X260343Y245079
X340453Y230610
Y224902
Y219193
X349213Y214567
X379528Y206398
X388433Y212303
X389899Y217143
X394488Y216535
X400787Y206398
X394094Y233563
X384941Y238386
X369193Y248327
X419783Y246260
X440354Y246457
X441535Y226673
X451575Y212795
X502854Y219291
Y225000
Y230709
X511527Y215153
X541870Y206518
X550751Y212302
X552217Y217142
X556693Y216535
X562879Y206342
X556496Y233366
X547244Y238189
X529316Y248130
X582185Y245965
X602362Y246063
X595079Y212205
X605118Y198327
T02
X369662Y98862
X376355
X376748Y92957
T03
X575856Y127539
Y137539
Y147539
Y157539
X585856Y152539
Y142539
Y132539
Y122539
T04
X72835Y262323
Y272323
Y282323
Y292323
X234252
Y282323
Y272323
Y262323
X395669
Y272323
Y282323
Y292323
X557087
Y282323
Y272323
Y262323
T05
X24535Y40284
X38457
X591465
X605386
Y54205
X591465
X38457
X24535
T06
X622638Y109547
Y170472
T07
X30118Y292323
X115551
X191535
X276969
X352953
X438386
X514370
X599803
Y369094
X514370
X438386
X352953
X276969
X191535
X115551
X30118
T08
X31496Y17717
X598425
Y76772
X31496
T09
X15748Y17717
X614173
Y76772
X15748
T10
X610856Y117559
Y162559
T11
X74803Y19685
X555118
X13780Y222441
X616142
X314961Y379921
T12
X72835Y330709
X234252
X395669
X557087
M30
